<svg width="474" height="500" viewBox="0 0 474 500" fill="none" xmlns="http://www.w3.org/2000/svg">
<g clip-path="url(#clip0_95_760)">
<path d="M90.8701 190.993C92.98 188.968 95.4924 188.998 98.9382 191.217C100.588 192.28 102.452 193.844 104.588 195.924C108.746 199.974 110.113 203.912 110.478 206.601C110.592 207.437 109.64 207.857 109.012 207.294L90.8701 190.993Z" fill="#E2E8F0"/>
<path d="M109.918 169.793V169.793C114.776 181.347 104.807 193.656 92.4961 191.304L90.8701 190.993M90.8701 190.993C93.9902 187.999 97.9902 189.499 104.588 195.924C108.746 199.974 110.113 203.912 110.478 206.601C110.592 207.437 109.64 207.857 109.012 207.294L90.8701 190.993Z" stroke="#E2E8F0" stroke-width="4"/>
<path d="M151.5 197.999C143.9 197.999 141 201.665 138 203.499H162.39C163.233 203.499 163.669 202.542 163.038 201.982C160.974 200.151 157.323 197.999 151.5 197.999Z" fill="#E2E8F0"/>
<path d="M138 174.999V203.499M138 203.499C141 201.665 143.9 197.999 151.5 197.999C157.323 197.999 160.974 200.151 163.038 201.982C163.669 202.542 163.233 203.499 162.39 203.499H138Z" stroke="#E2E8F0" stroke-width="4"/>
<path d="M53 152.391C65.0291 129.033 85.364 91.2019 97.9659 99.1664C113.718 109.122 75.0534 139.755 93.6698 152.391C112.286 165.027 129.471 87.6791 146.369 99.1664C163.267 110.654 130.044 140.904 143.218 152.391C153.758 161.581 171.859 129.31 186.466 104.549" stroke="#E2E8F0" stroke-width="49.0909" stroke-linecap="round"/>
<path d="M118 109.999C120.277 109.999 122.505 111.526 124.216 114.349C125.916 117.154 127 121.094 127 125.499C127 129.903 125.916 133.843 124.216 136.648C122.505 139.471 120.277 140.999 118 140.999C115.723 140.999 113.495 139.471 111.784 136.648C110.084 133.843 109 129.903 109 125.499C109 121.094 110.084 117.154 111.784 114.349C113.495 111.526 115.723 109.999 118 109.999Z" fill="white" stroke="#E2E8F0" stroke-width="2"/>
<path d="M121.5 115.999C122.821 115.999 124.173 116.867 125.246 118.6C126.31 120.318 127 122.755 127 125.499C127 128.242 126.31 130.679 125.246 132.397C124.173 134.13 122.821 134.999 121.5 134.999C120.179 134.999 118.827 134.13 117.754 132.397C116.69 130.679 116 128.242 116 125.499C116 122.755 116.69 120.318 117.754 118.6C118.827 116.867 120.179 115.999 121.5 115.999Z" fill="#E2E8F0" stroke="#E2E8F0" stroke-width="2"/>
<path d="M144 109.999C146.277 109.999 148.505 111.526 150.216 114.349C151.916 117.154 153 121.094 153 125.499C153 129.903 151.916 133.843 150.216 136.648C148.505 139.471 146.277 140.999 144 140.999C141.723 140.999 139.495 139.471 137.784 136.648C136.084 133.843 135 129.903 135 125.499C135 121.094 136.084 117.154 137.784 114.349C139.495 111.526 141.723 109.999 144 109.999Z" fill="white" stroke="#E2E8F0" stroke-width="2"/>
<path d="M147.5 115.999C148.821 115.999 150.173 116.867 151.246 118.6C152.31 120.318 153 122.755 153 125.499C153 128.242 152.31 130.679 151.246 132.397C150.173 134.13 148.821 134.999 147.5 134.999C146.179 134.999 144.827 134.13 143.754 132.397C142.69 130.679 142 128.242 142 125.499C142 122.755 142.69 120.318 143.754 118.6C144.827 116.867 146.179 115.999 147.5 115.999Z" fill="#E2E8F0" stroke="#E2E8F0" stroke-width="2"/>
<path d="M196.17 148.939C201.511 150.526 207.135 150.204 211.481 145.46C220.476 135.642 205.021 143.689 196.17 148.939Z" fill="#E2E8F0"/>
<path d="M181.916 140.374C185.072 143.363 190.459 147.243 196.17 148.939M196.17 148.939C201.511 150.526 207.135 150.204 211.481 145.46C220.476 135.642 205.021 143.689 196.17 148.939Z" stroke="#E2E8F0" stroke-width="4"/>
<g clip-path="url(#clip1_95_760)">
<path d="M175.559 59.1517C175.25 58.0912 175.86 56.9811 176.92 56.6721L204.762 48.5595C205.823 48.2506 206.933 48.8597 207.242 49.9202L246.789 185.644C246.904 186.039 246.894 186.46 246.761 186.849L238.617 210.732C238.17 212.044 236.556 212.514 235.475 211.648L215.776 195.877C215.455 195.62 215.221 195.27 215.106 194.876L175.559 59.1517Z" fill="#E2E8F0"/>
<g clip-path="url(#clip2_95_760)">
<mask id="mask0_95_760" style="mask-type:alpha" maskUnits="userSpaceOnUse" x="175" y="48" width="72" height="165">
<path d="M175.559 59.1517C175.25 58.0912 175.86 56.9811 176.92 56.6721L204.762 48.5595C205.823 48.2506 206.933 48.8597 207.242 49.9202L246.789 185.644C246.904 186.039 246.894 186.46 246.761 186.849L238.617 210.732C238.17 212.044 236.556 212.514 235.475 211.648L215.776 195.877C215.455 195.62 215.221 195.27 215.106 194.876L175.559 59.1517Z" fill="#D9D9D9"/>
</mask>
<g mask="url(#mask0_95_760)">
<path fill-rule="evenodd" clip-rule="evenodd" d="M225.557 216.445L177.721 52.2723L179.641 51.7129L227.477 215.886L225.557 216.445Z" fill="#CBD5E1"/>
<path fill-rule="evenodd" clip-rule="evenodd" d="M231.318 214.767L183.482 50.5939L185.402 50.0344L233.238 214.207L231.318 214.767Z" fill="#CBD5E1"/>
<path fill-rule="evenodd" clip-rule="evenodd" d="M237.078 213.088L189.242 48.9154L191.162 48.3559L238.998 212.529L237.078 213.088Z" fill="#CBD5E1"/>
<path fill-rule="evenodd" clip-rule="evenodd" d="M242.839 211.41L195.003 47.2369L196.923 46.6775L244.759 210.85L242.839 211.41Z" fill="#CBD5E1"/>
<path fill-rule="evenodd" clip-rule="evenodd" d="M248.599 209.731L200.763 45.5585L202.683 44.999L250.519 209.172L248.599 209.731Z" fill="#CBD5E1"/>
</g>
</g>
</g>
<mask id="mask1_95_760" style="mask-type:alpha" maskUnits="userSpaceOnUse" x="176" y="48" width="71" height="165">
<path d="M176.146 59.2849C175.837 58.2244 176.446 57.1143 177.507 56.8053L204.389 48.9725C205.449 48.6635 206.559 49.2727 206.868 50.3331L246.42 186.072C246.532 186.458 246.526 186.868 246.401 187.25L238.713 210.908C238.277 212.249 236.627 212.73 235.538 211.833L216.345 196.008C216.035 195.752 215.809 195.409 215.697 195.024L176.146 59.2849Z" fill="#94A3B8"/>
</mask>
<g mask="url(#mask1_95_760)">
<rect x="226.938" y="209.16" width="19.3939" height="11" transform="rotate(-16.2448 226.938 209.16)" fill="#94A3B8"/>
</g>
<path d="M198.333 139.557C203.882 139.058 208.989 136.68 211.275 130.666C216.006 118.22 204.618 131.407 198.333 139.557Z" fill="#E2E8F0"/>
<path d="M181.923 136.864C185.96 138.476 192.399 140.091 198.333 139.557M198.333 139.557C203.882 139.058 208.989 136.68 211.275 130.666C216.006 118.22 204.618 131.407 198.333 139.557Z" stroke="#E2E8F0" stroke-width="4"/>
<path d="M360.435 101.997C361.49 100.984 362.746 101 364.469 102.109C365.294 102.64 366.226 103.422 367.294 104.463C369.373 106.487 370.057 108.456 370.239 109.801C370.296 110.219 369.82 110.429 369.506 110.147L360.435 101.997Z" fill="#E2E8F0"/>
<path d="M369.959 91.397V91.397C372.388 97.1737 367.403 103.328 361.248 102.152L360.435 101.997M360.435 101.997C361.995 100.5 363.995 101.25 367.294 104.463C369.373 106.487 370.057 108.456 370.239 109.801C370.296 110.219 369.82 110.429 369.506 110.147L360.435 101.997Z" stroke="#E2E8F0" stroke-width="2"/>
<path d="M390.75 105.5C386.95 105.5 385.5 107.333 384 108.25H396.195C396.617 108.25 396.834 107.772 396.519 107.492C395.487 106.576 393.662 105.5 390.75 105.5Z" fill="#E2E8F0"/>
<path d="M384 93.9998V108.25M384 108.25C385.5 107.333 386.95 105.5 390.75 105.5C393.662 105.5 395.487 106.576 396.519 107.492C396.834 107.772 396.617 108.25 396.195 108.25H384Z" stroke="#E2E8F0" stroke-width="2"/>
<path d="M341.5 82.6957C347.515 71.0169 357.682 52.1012 363.983 56.0835C371.859 61.0613 352.527 76.3777 361.835 82.6957C371.143 89.0137 379.735 50.3398 388.184 56.0834C396.634 61.8271 380.022 76.952 386.609 82.6957C391.879 87.2906 400.93 71.1554 408.233 58.7747" stroke="#E2E8F0" stroke-width="24.5454" stroke-linecap="round"/>
<path d="M374 61.4996C375.139 61.4996 376.253 62.2636 377.108 63.6754C377.958 65.078 378.5 67.0476 378.5 69.2496C378.5 71.4517 377.958 73.4213 377.108 74.8239C376.253 76.2356 375.139 76.9996 374 76.9996C372.861 76.9996 371.747 76.2356 370.892 74.8239C370.042 73.4213 369.5 71.4517 369.5 69.2496C369.5 67.0476 370.042 65.078 370.892 63.6754C371.747 62.2636 372.861 61.4996 374 61.4996Z" fill="white" stroke="#E2E8F0"/>
<path d="M375.75 64.4999C376.411 64.4999 377.087 64.9339 377.623 65.8007C378.155 66.6597 378.5 67.878 378.5 69.2499C378.5 70.6218 378.155 71.84 377.623 72.6991C377.087 73.5658 376.411 73.9999 375.75 73.9999C375.09 73.9999 374.414 73.5658 373.877 72.6991C373.345 71.84 373 70.6218 373 69.2499C373 67.878 373.345 66.6597 373.877 65.8007C374.414 64.9339 375.09 64.4999 375.75 64.4999Z" fill="#E2E8F0" stroke="#E2E8F0"/>
<path d="M387 61.4996C388.139 61.4996 389.253 62.2636 390.108 63.6754C390.958 65.078 391.5 67.0476 391.5 69.2496C391.5 71.4517 390.958 73.4213 390.108 74.8239C389.253 76.2356 388.139 76.9996 387 76.9996C385.861 76.9996 384.747 76.2356 383.892 74.8239C383.042 73.4213 382.5 71.4517 382.5 69.2496C382.5 67.0476 383.042 65.078 383.892 63.6754C384.747 62.2636 385.861 61.4996 387 61.4996Z" fill="white" stroke="#E2E8F0"/>
<path d="M388.75 64.4999C389.411 64.4999 390.087 64.9339 390.623 65.8007C391.155 66.6597 391.5 67.878 391.5 69.2499C391.5 70.6218 391.155 71.84 390.623 72.6991C390.087 73.5658 389.411 73.9999 388.75 73.9999C388.089 73.9999 387.413 73.5658 386.877 72.6991C386.345 71.84 386 70.6218 386 69.2499C386 67.878 386.345 66.6597 386.877 65.8007C387.413 64.9339 388.089 64.4999 388.75 64.4999Z" fill="#E2E8F0" stroke="#E2E8F0"/>
<path d="M413.085 80.9702C415.756 81.7636 418.568 81.6025 420.741 79.2303C425.238 74.3217 417.511 78.345 413.085 80.9702Z" fill="#E2E8F0"/>
<path d="M405.958 76.6873C407.536 78.1822 410.23 80.1219 413.085 80.9702M413.085 80.9702C415.756 81.7636 418.568 81.6025 420.741 79.2303C425.238 74.3217 417.511 78.345 413.085 80.9702Z" stroke="#E2E8F0" stroke-width="2"/>
<g clip-path="url(#clip3_95_760)">
<path d="M402.78 36.0758C402.625 35.5456 402.93 34.9905 403.46 34.836L417.381 30.7797C417.912 30.6252 418.467 30.9298 418.621 31.46L438.394 99.322C438.452 99.5194 438.447 99.7298 438.381 99.9245L434.309 111.866C434.085 112.522 433.278 112.757 432.737 112.324L422.888 104.439C422.728 104.31 422.611 104.135 422.553 103.938L402.78 36.0758Z" fill="#E2E8F0"/>
<g clip-path="url(#clip4_95_760)">
<mask id="mask2_95_760" style="mask-type:alpha" maskUnits="userSpaceOnUse" x="402" y="30" width="37" height="83">
<path d="M402.78 36.0758C402.625 35.5456 402.93 34.9905 403.46 34.836L417.381 30.7797C417.912 30.6252 418.467 30.9298 418.621 31.46L438.394 99.322C438.452 99.5194 438.447 99.7298 438.381 99.9245L434.309 111.866C434.085 112.522 433.278 112.757 432.737 112.324L422.888 104.439C422.728 104.31 422.611 104.135 422.553 103.938L402.78 36.0758Z" fill="#D9D9D9"/>
</mask>
<g mask="url(#mask2_95_760)">
<path fill-rule="evenodd" clip-rule="evenodd" d="M427.779 114.722L403.861 32.6357L404.821 32.356L428.739 114.442L427.779 114.722Z" fill="#CBD5E1"/>
<path fill-rule="evenodd" clip-rule="evenodd" d="M430.659 113.883L406.741 31.7966L407.701 31.5169L431.619 113.603L430.659 113.883Z" fill="#CBD5E1"/>
<path fill-rule="evenodd" clip-rule="evenodd" d="M433.539 113.044L409.621 30.9573L410.581 30.6775L434.499 112.764L433.539 113.044Z" fill="#CBD5E1"/>
<path fill-rule="evenodd" clip-rule="evenodd" d="M436.419 112.205L412.501 30.1182L413.461 29.8384L437.379 111.925L436.419 112.205Z" fill="#CBD5E1"/>
<path fill-rule="evenodd" clip-rule="evenodd" d="M439.3 111.365L415.382 29.2788L416.342 28.9991L440.26 111.085L439.3 111.365Z" fill="#CBD5E1"/>
</g>
</g>
</g>
<mask id="mask3_95_760" style="mask-type:alpha" maskUnits="userSpaceOnUse" x="403" y="30" width="36" height="83">
<path d="M403.073 36.1427C402.919 35.6125 403.223 35.0574 403.754 34.9029L417.195 30.9865C417.725 30.832 418.28 31.1366 418.435 31.6668L438.21 99.5363C438.266 99.7291 438.263 99.9342 438.201 100.125L434.357 111.954C434.139 112.625 433.314 112.865 432.769 112.417L423.173 104.504C423.018 104.376 422.905 104.205 422.849 104.012L403.073 36.1427Z" fill="#94A3B8"/>
</mask>
<g mask="url(#mask3_95_760)">
<rect x="428.469" y="111.08" width="9.69697" height="5.5" transform="rotate(-16.2448 428.469 111.08)" fill="#94A3B8"/>
</g>
<path d="M414.167 76.2789C416.941 76.0293 419.495 74.8405 420.638 71.8332C423.003 65.6102 417.309 72.204 414.167 76.2789Z" fill="#E2E8F0"/>
<path d="M405.961 74.9326C407.98 75.7386 411.2 76.5457 414.167 76.2789M414.167 76.2789C416.941 76.0293 419.495 74.8405 420.638 71.8332C423.003 65.6102 417.309 72.204 414.167 76.2789Z" stroke="#E2E8F0" stroke-width="2"/>
<path d="M156.138 470.104C163.738 470.104 166.638 473.771 169.638 475.604L145.248 475.604C144.404 475.604 143.969 474.648 144.6 474.088C146.664 472.257 150.315 470.104 156.138 470.104Z" fill="#E2E8F0"/>
<path d="M169.638 447.104L169.638 475.604M169.638 475.604C166.638 473.771 163.738 470.104 156.138 470.104C150.315 470.104 146.664 472.257 144.6 474.088C143.969 474.648 144.404 475.604 145.248 475.604L169.638 475.604Z" stroke="#E2E8F0" stroke-width="4"/>
<path d="M115.138 470.104C122.738 470.104 125.638 473.771 128.638 475.604L104.248 475.604C103.404 475.604 102.969 474.648 103.6 474.088C105.664 472.257 109.315 470.104 115.138 470.104Z" fill="#E2E8F0"/>
<path d="M128.638 447.104L128.638 475.604M128.638 475.604C125.638 473.771 122.738 470.104 115.138 470.104C109.315 470.104 105.664 472.257 103.6 474.088C102.969 474.648 103.404 475.604 104.248 475.604L128.638 475.604Z" stroke="#E2E8F0" stroke-width="4"/>
<path d="M213.466 424.392C201.437 401.035 181.102 363.203 168.5 371.168C152.747 381.124 191.412 411.756 172.796 424.392C154.179 437.028 136.995 359.681 120.097 371.168C103.199 382.655 136.422 412.905 123.247 424.392C112.708 433.582 94.6067 401.312 80 376.55" stroke="#E2E8F0" stroke-width="49.0909" stroke-linecap="round"/>
<path d="M113 400C113.459 398.667 115.665 396 120.811 396C125.957 396 129.081 398.667 130 400" stroke="white" stroke-width="3.5" stroke-linecap="round"/>
<path d="M143 400C143.459 398.667 145.665 396 150.811 396C155.957 396 159.081 398.667 160 400" stroke="white" stroke-width="3.5" stroke-linecap="round"/>
<path d="M218 362C218.47 356.448 209.665 355.196 204.5 355.5C179 357 201.837 360.028 218 362Z" fill="#E2E8F0"/>
<path d="M216.618 383.663C242.168 381.619 224.834 365.974 218 362M218 362C218.47 356.448 209.665 355.196 204.5 355.5C179 357 201.837 360.028 218 362Z" stroke="#E2E8F0" stroke-width="4"/>
<path d="M197.831 318.194C199.8 312.14 202.625 310.692 205.251 311.547C207.877 312.401 209.309 315.233 207.34 321.287C205.371 327.341 198.755 331.517 198.755 331.517C198.755 331.517 195.861 324.247 197.831 318.194Z" fill="#E2E8F0"/>
<path d="M212.992 328.41C215.486 326.098 217.18 326.157 218.183 327.239C219.186 328.321 219.118 330.015 216.625 332.327C214.131 334.64 209.958 334.867 209.958 334.867C209.958 334.867 210.499 330.723 212.992 328.41Z" fill="#E2E8F0"/>
<path d="M216.887 337.142C219.397 337.141 220.285 338.024 220.285 339.113C220.285 340.201 219.398 341.084 216.888 341.084C214.378 341.084 212.005 339.113 212.005 339.113C212.005 339.113 214.377 337.142 216.887 337.142Z" fill="#E2E8F0"/>
<path d="M226.142 331.366C227.832 331.033 228.555 331.553 228.71 332.339C228.865 333.126 228.393 333.881 226.703 334.214C225.013 334.547 223.134 333.438 223.134 333.438C223.134 333.438 224.451 331.699 226.142 331.366Z" fill="#E2E8F0"/>
<path d="M60.6073 424.254C55.3814 426.186 49.7484 426.232 45.1011 421.781C35.4844 412.573 51.4316 419.593 60.6073 424.254Z" fill="#E2E8F0"/>
<path d="M82.5 410C79.5461 413.19 66.1951 422.187 60.6073 424.254M60.6073 424.254C55.3814 426.186 49.7484 426.232 45.1011 421.781C35.4844 412.573 51.4316 419.593 60.6073 424.254Z" stroke="#E2E8F0" stroke-width="4"/>
<path d="M392.569 375.052C396.369 375.052 397.819 376.886 399.319 377.802L387.124 377.802C386.702 377.802 386.485 377.324 386.8 377.044C387.832 376.129 389.657 375.052 392.569 375.052Z" fill="#E2E8F0"/>
<path d="M399.319 363.552L399.319 377.802M399.319 377.802C397.819 376.886 396.369 375.052 392.569 375.052C389.657 375.052 387.832 376.129 386.8 377.044C386.485 377.324 386.702 377.802 387.124 377.802L399.319 377.802Z" stroke="#E2E8F0" stroke-width="2"/>
<path d="M372.069 375.052C375.869 375.052 377.319 376.886 378.819 377.802L366.624 377.802C366.202 377.802 365.985 377.324 366.3 377.044C367.332 376.129 369.157 375.052 372.069 375.052Z" fill="#E2E8F0"/>
<path d="M378.819 363.552L378.819 377.802M378.819 377.802C377.319 376.886 375.869 375.052 372.069 375.052C369.157 375.052 367.332 376.129 366.3 377.044C365.985 377.324 366.202 377.802 366.624 377.802L378.819 377.802Z" stroke="#E2E8F0" stroke-width="2"/>
<path d="M421.233 352.196C415.218 340.517 405.051 321.602 398.75 325.584C390.874 330.562 410.206 345.878 400.898 352.196C391.59 358.514 382.997 319.84 374.548 325.584C366.099 331.328 382.711 346.452 376.124 352.196C370.854 356.791 361.803 340.656 354.5 328.275" stroke="#E2E8F0" stroke-width="24.5454" stroke-linecap="round"/>
<path d="M371 340C371.23 339.334 372.332 338 374.905 338C377.478 338 379.04 339.334 379.5 340" stroke="white" stroke-width="1.75" stroke-linecap="round"/>
<path d="M386 340C386.23 339.334 387.332 338 389.905 338C392.478 338 394.04 339.334 394.5 340" stroke="white" stroke-width="1.75" stroke-linecap="round"/>
<path d="M423.5 321C423.735 318.224 419.332 317.598 416.75 317.75C404 318.5 415.418 320.014 423.5 321Z" fill="#E2E8F0"/>
<path d="M422.809 331.832C435.584 330.81 426.917 322.987 423.5 321M423.5 321C423.735 318.224 419.332 317.598 416.75 317.75C404 318.5 415.418 320.014 423.5 321Z" stroke="#E2E8F0" stroke-width="2"/>
<path d="M413.416 299.097C414.4 296.07 415.813 295.346 417.126 295.774C418.439 296.201 419.155 297.617 418.17 300.644C417.186 303.671 413.878 305.759 413.878 305.759C413.878 305.759 412.431 302.124 413.416 299.097Z" fill="#E2E8F0"/>
<path d="M420.996 304.205C422.243 303.049 423.09 303.079 423.592 303.619C424.093 304.16 424.059 305.007 422.812 306.163C421.566 307.32 419.479 307.433 419.479 307.433C419.479 307.433 419.75 305.361 420.996 304.205Z" fill="#E2E8F0"/>
<path d="M422.944 308.571C424.199 308.571 424.642 309.012 424.643 309.556C424.643 310.101 424.199 310.542 422.944 310.542C421.689 310.542 420.503 309.557 420.503 309.557C420.503 309.557 421.689 308.571 422.944 308.571Z" fill="#E2E8F0"/>
<path d="M427.571 305.683C428.416 305.516 428.778 305.776 428.855 306.17C428.933 306.563 428.697 306.94 427.852 307.107C427.007 307.274 426.067 306.719 426.067 306.719C426.067 306.719 426.726 305.85 427.571 305.683Z" fill="#E2E8F0"/>
<path d="M344.803 352.127C342.19 353.093 339.374 353.116 337.05 350.891C332.242 346.286 340.216 349.796 344.803 352.127Z" fill="#E2E8F0"/>
<path d="M355.75 345C354.273 346.595 347.597 351.094 344.803 352.127M344.803 352.127C342.19 353.093 339.374 353.116 337.05 350.891C332.242 346.286 340.216 349.796 344.803 352.127Z" stroke="#E2E8F0" stroke-width="2"/>
</g>
<rect x="0.5" y="0.5" width="473" height="499" rx="4.5" stroke="#9747FF" stroke-dasharray="10 5"/>
<defs>
<clipPath id="clip0_95_760">
<rect width="474" height="500" rx="5" fill="white"/>
</clipPath>
<clipPath id="clip1_95_760">
<rect width="33" height="167.5" fill="white" transform="translate(175 57.2316) rotate(-16.2448)"/>
</clipPath>
<clipPath id="clip2_95_760">
<rect width="33" height="167.5" fill="white" transform="translate(175 57.2316) rotate(-16.2448)"/>
</clipPath>
<clipPath id="clip3_95_760">
<rect width="16.5" height="83.75" fill="white" transform="translate(402.5 35.1157) rotate(-16.2448)"/>
</clipPath>
<clipPath id="clip4_95_760">
<rect width="16.5" height="83.75" fill="white" transform="translate(402.5 35.1157) rotate(-16.2448)"/>
</clipPath>
</defs>
</svg>
