<svg width="616" height="340" viewBox="0 0 616 340" fill="none" xmlns="http://www.w3.org/2000/svg">
<rect x="0.5" y="0.5" width="615" height="339" rx="4.5" stroke="#9747FF" stroke-dasharray="10 5"/>
<rect x="24.6521" y="166" width="162.348" height="50" rx="23" fill="#0F172A" stroke="#0F172A" stroke-width="2"/>
<rect x="21" y="162" width="162.348" height="50" rx="23" fill="#7C3AED" stroke="#0F172A" stroke-width="2"/>
<path d="M64.5 187L76.5 187" stroke="white" stroke-width="2" stroke-linecap="round"/>
<path d="M70.5 193L70.5 181" stroke="white" stroke-width="2" stroke-linecap="round"/>
<path d="M85.099 182.368V181.024H89.355V179.408H90.939V181.024H95.211V182.368H90.939V182.48C90.939 182.64 90.955 182.8 90.987 182.96C91.0297 183.109 91.1043 183.259 91.211 183.408C91.3177 183.547 91.467 183.691 91.659 183.84C91.8617 183.979 92.1177 184.123 92.427 184.272C92.9603 184.517 93.499 184.752 94.043 184.976C94.587 185.189 95.163 185.403 95.771 185.616L95.243 186.848C94.5603 186.603 93.947 186.373 93.403 186.16C92.859 185.936 92.3683 185.728 91.931 185.536C91.3977 185.301 90.9977 185.099 90.731 184.928C90.4643 184.747 90.2723 184.565 90.155 184.384H90.139C90.0217 184.587 89.8297 184.773 89.563 184.944C89.2963 185.115 88.8963 185.317 88.363 185.552C87.9257 185.744 87.435 185.947 86.891 186.16C86.347 186.373 85.7337 186.603 85.051 186.848L84.491 185.616C85.099 185.403 85.6803 185.189 86.235 184.976C86.7897 184.752 87.3283 184.517 87.851 184.272C88.1603 184.133 88.411 183.989 88.603 183.84C88.795 183.691 88.9443 183.541 89.051 183.392C89.1683 183.243 89.2483 183.093 89.291 182.944C89.3337 182.784 89.355 182.629 89.355 182.48V182.368H85.099ZM89.371 194.24V189.376H83.403V188.032H96.939V189.376H90.971V194.24H89.371ZM111.774 186.32H109.502V194.24H107.918V179.488H109.502V184.944H111.774V186.32ZM98.2535 189.728C99.1068 189.227 99.8268 188.784 100.414 188.4C101.011 188.005 101.502 187.648 101.886 187.328C102.28 187.008 102.59 186.709 102.814 186.432C103.038 186.144 103.203 185.856 103.31 185.568C103.416 185.28 103.48 184.987 103.502 184.688C103.534 184.379 103.55 184.032 103.55 183.648V182.224H98.5415V180.864H105.118V183.664C105.118 184.155 105.102 184.592 105.07 184.976C105.048 185.36 104.974 185.728 104.846 186.08C104.728 186.421 104.542 186.763 104.286 187.104C104.04 187.435 103.694 187.792 103.246 188.176C102.798 188.549 102.232 188.965 101.549 189.424C100.878 189.883 100.056 190.405 99.0855 190.992L98.2535 189.728ZM116.88 190.944C116.315 190.944 115.813 190.859 115.376 190.688C114.939 190.507 114.565 190.272 114.256 189.984C113.947 189.696 113.712 189.365 113.552 188.992C113.392 188.619 113.312 188.24 113.312 187.856V186.928C113.312 186.544 113.392 186.165 113.552 185.792C113.712 185.419 113.947 185.088 114.256 184.8C114.565 184.501 114.939 184.267 115.376 184.096C115.813 183.915 116.315 183.824 116.88 183.824C117.435 183.824 117.931 183.915 118.368 184.096C118.816 184.267 119.195 184.501 119.504 184.8C119.813 185.088 120.048 185.419 120.208 185.792C120.368 186.165 120.448 186.544 120.448 186.928V187.856C120.448 188.24 120.368 188.619 120.208 188.992C120.048 189.365 119.813 189.696 119.504 189.984C119.195 190.272 118.816 190.507 118.368 190.688C117.931 190.859 117.435 190.944 116.88 190.944ZM126.336 186.72H124.064V194.24H122.48V179.488H124.064V185.344H126.336V186.72ZM116.88 185.152C116.24 185.152 115.733 185.333 115.36 185.696C114.987 186.048 114.8 186.517 114.8 187.104V187.68C114.8 188.267 114.987 188.736 115.36 189.088C115.733 189.44 116.24 189.616 116.88 189.616C117.52 189.616 118.027 189.44 118.4 189.088C118.773 188.736 118.96 188.267 118.96 187.68V187.104C118.96 186.517 118.773 186.048 118.4 185.696C118.027 185.333 117.52 185.152 116.88 185.152ZM116.096 181.664V179.584H117.68V181.664H121.104V183.008H112.576V181.664H116.096ZM127.699 189.76C128.552 189.259 129.272 188.816 129.859 188.432C130.456 188.037 130.952 187.68 131.347 187.36C131.741 187.029 132.051 186.725 132.275 186.448C132.499 186.16 132.664 185.877 132.771 185.6C132.888 185.312 132.957 185.013 132.979 184.704C133.011 184.395 133.027 184.048 133.027 183.664V182.208H127.987V180.848H134.595V183.68C134.595 184.16 134.579 184.597 134.547 184.992C134.525 185.376 134.451 185.744 134.323 186.096C134.195 186.437 134.003 186.779 133.747 187.12C133.501 187.451 133.149 187.808 132.691 188.192C132.243 188.576 131.677 188.997 130.995 189.456C130.323 189.915 129.501 190.437 128.531 191.024L127.699 189.76ZM137.715 194.24V179.488H139.299V194.24H137.715Z" fill="white"/>
<rect x="24.6521" y="25" width="162.348" height="50" rx="23" fill="#0F172A" stroke="#0F172A" stroke-width="2"/>
<rect x="21" y="21" width="162.348" height="50" rx="23" fill="#E2E8F0" stroke="#0F172A" stroke-width="2"/>
<path d="M64.5 46L76.5 46" stroke="#0F172A" stroke-width="2" stroke-linecap="round"/>
<path d="M70.5 52L70.5 40" stroke="#0F172A" stroke-width="2" stroke-linecap="round"/>
<path d="M85.099 41.368V40.024H89.355V38.408H90.939V40.024H95.211V41.368H90.939V41.48C90.939 41.64 90.955 41.8 90.987 41.96C91.0297 42.1093 91.1043 42.2587 91.211 42.408C91.3177 42.5467 91.467 42.6907 91.659 42.84C91.8617 42.9787 92.1177 43.1227 92.427 43.272C92.9603 43.5173 93.499 43.752 94.043 43.976C94.587 44.1893 95.163 44.4027 95.771 44.616L95.243 45.848C94.5603 45.6027 93.947 45.3733 93.403 45.16C92.859 44.936 92.3683 44.728 91.931 44.536C91.3977 44.3013 90.9977 44.0987 90.731 43.928C90.4643 43.7467 90.2723 43.5653 90.155 43.384H90.139C90.0217 43.5867 89.8297 43.7733 89.563 43.944C89.2963 44.1147 88.8963 44.3173 88.363 44.552C87.9257 44.744 87.435 44.9467 86.891 45.16C86.347 45.3733 85.7337 45.6027 85.051 45.848L84.491 44.616C85.099 44.4027 85.6803 44.1893 86.235 43.976C86.7897 43.752 87.3283 43.5173 87.851 43.272C88.1603 43.1333 88.411 42.9893 88.603 42.84C88.795 42.6907 88.9443 42.5413 89.051 42.392C89.1683 42.2427 89.2483 42.0933 89.291 41.944C89.3337 41.784 89.355 41.6293 89.355 41.48V41.368H85.099ZM89.371 53.24V48.376H83.403V47.032H96.939V48.376H90.971V53.24H89.371ZM111.774 45.32H109.502V53.24H107.918V38.488H109.502V43.944H111.774V45.32ZM98.2535 48.728C99.1068 48.2267 99.8268 47.784 100.414 47.4C101.011 47.0053 101.502 46.648 101.886 46.328C102.28 46.008 102.59 45.7093 102.814 45.432C103.038 45.144 103.203 44.856 103.31 44.568C103.416 44.28 103.48 43.9867 103.502 43.688C103.534 43.3787 103.55 43.032 103.55 42.648V41.224H98.5415V39.864H105.118V42.664C105.118 43.1547 105.102 43.592 105.07 43.976C105.048 44.36 104.974 44.728 104.846 45.08C104.728 45.4213 104.542 45.7627 104.286 46.104C104.04 46.4347 103.694 46.792 103.246 47.176C102.798 47.5493 102.232 47.9653 101.549 48.424C100.878 48.8827 100.056 49.4053 99.0855 49.992L98.2535 48.728ZM116.88 49.944C116.315 49.944 115.813 49.8587 115.376 49.688C114.939 49.5067 114.565 49.272 114.256 48.984C113.947 48.696 113.712 48.3653 113.552 47.992C113.392 47.6187 113.312 47.24 113.312 46.856V45.928C113.312 45.544 113.392 45.1653 113.552 44.792C113.712 44.4187 113.947 44.088 114.256 43.8C114.565 43.5013 114.939 43.2667 115.376 43.096C115.813 42.9147 116.315 42.824 116.88 42.824C117.435 42.824 117.931 42.9147 118.368 43.096C118.816 43.2667 119.195 43.5013 119.504 43.8C119.813 44.088 120.048 44.4187 120.208 44.792C120.368 45.1653 120.448 45.544 120.448 45.928V46.856C120.448 47.24 120.368 47.6187 120.208 47.992C120.048 48.3653 119.813 48.696 119.504 48.984C119.195 49.272 118.816 49.5067 118.368 49.688C117.931 49.8587 117.435 49.944 116.88 49.944ZM126.336 45.72H124.064V53.24H122.48V38.488H124.064V44.344H126.336V45.72ZM116.88 44.152C116.24 44.152 115.733 44.3333 115.36 44.696C114.987 45.048 114.8 45.5173 114.8 46.104V46.68C114.8 47.2667 114.987 47.736 115.36 48.088C115.733 48.44 116.24 48.616 116.88 48.616C117.52 48.616 118.027 48.44 118.4 48.088C118.773 47.736 118.96 47.2667 118.96 46.68V46.104C118.96 45.5173 118.773 45.048 118.4 44.696C118.027 44.3333 117.52 44.152 116.88 44.152ZM116.096 40.664V38.584H117.68V40.664H121.104V42.008H112.576V40.664H116.096ZM127.699 48.76C128.552 48.2587 129.272 47.816 129.859 47.432C130.456 47.0373 130.952 46.68 131.347 46.36C131.741 46.0293 132.051 45.7253 132.275 45.448C132.499 45.16 132.664 44.8773 132.771 44.6C132.888 44.312 132.957 44.0133 132.979 43.704C133.011 43.3947 133.027 43.048 133.027 42.664V41.208H127.987V39.848H134.595V42.68C134.595 43.16 134.579 43.5973 134.547 43.992C134.525 44.376 134.451 44.744 134.323 45.096C134.195 45.4373 134.003 45.7787 133.747 46.12C133.501 46.4507 133.149 46.808 132.691 47.192C132.243 47.576 131.677 47.9973 130.995 48.456C130.323 48.9147 129.501 49.4373 128.531 50.024L127.699 48.76ZM137.715 53.24V38.488H139.299V53.24H137.715Z" fill="#0F172A"/>
<rect x="22.2173" y="242" width="52.7826" height="50" rx="23" fill="#0F172A" stroke="#0F172A" stroke-width="2"/>
<rect x="21" y="238" width="52.7826" height="50" rx="23" fill="#7C3AED" stroke="#0F172A" stroke-width="2"/>
<path d="M40 263L52 263" stroke="white" stroke-width="2" stroke-linecap="round"/>
<path d="M46 269L46 257" stroke="white" stroke-width="2" stroke-linecap="round"/>
<rect x="22.2173" y="91" width="52.7826" height="50" rx="23" fill="#0F172A" stroke="#0F172A" stroke-width="2"/>
<rect x="21" y="87" width="52.7826" height="50" rx="23" fill="#E2E8F0" stroke="#0F172A" stroke-width="2"/>
<path d="M40 112L52 112" stroke="#0F172A" stroke-width="2" stroke-linecap="round"/>
<path d="M46 118L46 106" stroke="#0F172A" stroke-width="2" stroke-linecap="round"/>
<rect x="228.652" y="25" width="162.348" height="50" rx="23" fill="#0F172A" stroke="#0F172A" stroke-width="2"/>
<rect x="225" y="21" width="162.348" height="50" rx="23" fill="#F43F5E" stroke="#0F172A" stroke-width="2"/>
<path d="M272.5 42L280.5 50" stroke="white" stroke-width="2" stroke-linecap="round"/>
<path d="M280.5 42L272.5 50" stroke="white" stroke-width="2" stroke-linecap="round"/>
<path d="M293.675 43.528C293.632 43.6667 293.504 43.8587 293.291 44.104C293.078 44.3493 292.848 44.584 292.603 44.808C292.272 45.1173 291.888 45.4587 291.451 45.832C291.014 46.1947 290.582 46.5467 290.155 46.888L289.211 45.768C289.723 45.3733 290.208 44.9787 290.667 44.584C291.136 44.1893 291.51 43.8533 291.787 43.576C291.99 43.3733 292.155 43.1813 292.283 43C292.422 42.808 292.528 42.616 292.603 42.424C292.688 42.2213 292.747 42.008 292.779 41.784C292.811 41.56 292.827 41.3093 292.827 41.032V39.096H294.427V40.968C294.427 41.2133 294.432 41.4373 294.443 41.64C294.464 41.832 294.502 42.0133 294.555 42.184C294.608 42.3547 294.688 42.5253 294.795 42.696C294.912 42.856 295.067 43.0213 295.259 43.192C295.632 43.5333 296.038 43.8853 296.475 44.248C296.923 44.6 297.387 44.9467 297.867 45.288L296.939 46.392C296.523 46.0827 296.123 45.7733 295.739 45.464C295.366 45.1547 294.987 44.84 294.603 44.52C294.358 44.3173 294.155 44.1307 293.995 43.96C293.846 43.7893 293.744 43.6453 293.691 43.528H293.675ZM291.659 47.832H300.987V53.384H299.403V49.192H291.659V47.832ZM303.083 43.352H300.987V47.064H299.419V38.488H300.987V41.976H303.083V43.352ZM307.694 46.056C307.64 46.216 307.55 46.3867 307.422 46.568C307.304 46.7387 307.166 46.92 307.006 47.112C306.686 47.496 306.328 47.9013 305.934 48.328C305.539 48.7547 305.128 49.1867 304.702 49.624L303.63 48.552C304.11 48.0933 304.558 47.6453 304.974 47.208C305.39 46.7707 305.768 46.328 306.11 45.88C306.43 45.464 306.643 45.0533 306.75 44.648C306.856 44.2427 306.91 43.8107 306.91 43.352V41.24H304.382V39.912H310.814V41.24H308.446V43.352C308.446 43.8107 308.504 44.2373 308.622 44.632C308.75 45.0267 308.974 45.432 309.294 45.848C309.635 46.2853 309.987 46.7013 310.35 47.096C310.712 47.4907 311.134 47.9173 311.614 48.376L310.542 49.432C310.115 49.0053 309.726 48.6107 309.374 48.248C309.032 47.8747 308.702 47.496 308.382 47.112C308.222 46.92 308.083 46.7387 307.966 46.568C307.848 46.3867 307.763 46.216 307.71 46.056H307.694ZM312.318 38.792H313.87V52.52H312.318V44.696H310.078V43.32H312.318V38.792ZM316.798 53.24H315.246V38.488H316.798V53.24ZM322.88 49.944C322.315 49.944 321.813 49.8587 321.376 49.688C320.939 49.5067 320.565 49.272 320.256 48.984C319.947 48.696 319.712 48.3653 319.552 47.992C319.392 47.6187 319.312 47.24 319.312 46.856V45.928C319.312 45.544 319.392 45.1653 319.552 44.792C319.712 44.4187 319.947 44.088 320.256 43.8C320.565 43.5013 320.939 43.2667 321.376 43.096C321.813 42.9147 322.315 42.824 322.88 42.824C323.435 42.824 323.931 42.9147 324.368 43.096C324.816 43.2667 325.195 43.5013 325.504 43.8C325.813 44.088 326.048 44.4187 326.208 44.792C326.368 45.1653 326.448 45.544 326.448 45.928V46.856C326.448 47.24 326.368 47.6187 326.208 47.992C326.048 48.3653 325.813 48.696 325.504 48.984C325.195 49.272 324.816 49.5067 324.368 49.688C323.931 49.8587 323.435 49.944 322.88 49.944ZM332.336 45.72H330.064V53.24H328.48V38.488H330.064V44.344H332.336V45.72ZM322.88 44.152C322.24 44.152 321.733 44.3333 321.36 44.696C320.987 45.048 320.8 45.5173 320.8 46.104V46.68C320.8 47.2667 320.987 47.736 321.36 48.088C321.733 48.44 322.24 48.616 322.88 48.616C323.52 48.616 324.027 48.44 324.4 48.088C324.773 47.736 324.96 47.2667 324.96 46.68V46.104C324.96 45.5173 324.773 45.048 324.4 44.696C324.027 44.3333 323.52 44.152 322.88 44.152ZM322.096 40.664V38.584H323.68V40.664H327.104V42.008H318.576V40.664H322.096ZM333.699 48.76C334.552 48.2587 335.272 47.816 335.859 47.432C336.456 47.0373 336.952 46.68 337.347 46.36C337.741 46.0293 338.051 45.7253 338.275 45.448C338.499 45.16 338.664 44.8773 338.771 44.6C338.888 44.312 338.957 44.0133 338.979 43.704C339.011 43.3947 339.027 43.048 339.027 42.664V41.208H333.987V39.848H340.595V42.68C340.595 43.16 340.579 43.5973 340.547 43.992C340.525 44.376 340.451 44.744 340.323 45.096C340.195 45.4373 340.003 45.7787 339.747 46.12C339.501 46.4507 339.149 46.808 338.691 47.192C338.243 47.576 337.677 47.9973 336.995 48.456C336.323 48.9147 335.501 49.4373 334.531 50.024L333.699 48.76ZM343.715 53.24V38.488H345.299V53.24H343.715Z" fill="white"/>
<rect x="432.652" y="97" width="162.348" height="50" rx="23" fill="#0F172A" stroke="#0F172A" stroke-width="2"/>
<rect x="429" y="93" width="162.348" height="50" rx="23" fill="#BEF264" stroke="#0F172A" stroke-width="2"/>
<path d="M472.957 117L477.457 121.5L484.957 114" stroke="#0F172A" stroke-width="2" stroke-linecap="round" stroke-linejoin="round"/>
<path d="M497.812 125.24V120.168H491.844V118.824H505.38V120.168H499.412V125.24H497.812ZM500.388 116.024C499.854 115.757 499.449 115.523 499.172 115.32C498.905 115.117 498.718 114.925 498.612 114.744H498.596C498.5 114.925 498.313 115.123 498.036 115.336C497.758 115.539 497.353 115.773 496.82 116.04C496.382 116.253 495.87 116.493 495.284 116.76C494.697 117.027 494.073 117.288 493.412 117.544L492.788 116.248C493.385 116.024 493.993 115.779 494.612 115.512C495.23 115.235 495.796 114.957 496.308 114.68C496.574 114.531 496.804 114.381 496.996 114.232C497.188 114.083 497.342 113.917 497.46 113.736C497.588 113.544 497.678 113.336 497.732 113.112C497.785 112.877 497.812 112.611 497.812 112.312V111H499.396V112.312C499.396 112.611 499.422 112.877 499.476 113.112C499.529 113.336 499.614 113.544 499.732 113.736C499.849 113.917 499.998 114.083 500.18 114.232C500.372 114.381 500.606 114.531 500.884 114.68C501.396 114.957 501.961 115.235 502.58 115.512C503.198 115.779 503.806 116.024 504.404 116.248L503.796 117.528C503.134 117.272 502.51 117.011 501.924 116.744C501.337 116.477 500.825 116.237 500.388 116.024ZM509.734 122.216C509.734 121.832 509.835 121.469 510.038 121.128C510.251 120.787 510.55 120.488 510.934 120.232C511.329 119.976 511.803 119.779 512.358 119.64C512.923 119.491 513.558 119.416 514.262 119.416C514.966 119.416 515.595 119.491 516.15 119.64C516.715 119.779 517.19 119.976 517.574 120.232C517.969 120.488 518.267 120.787 518.47 121.128C518.683 121.469 518.79 121.832 518.79 122.216V122.856C518.79 123.24 518.683 123.603 518.47 123.944C518.267 124.285 517.969 124.584 517.574 124.84C517.19 125.096 516.715 125.293 516.15 125.432C515.595 125.581 514.966 125.656 514.262 125.656C513.558 125.656 512.923 125.581 512.358 125.432C511.803 125.293 511.329 125.096 510.934 124.84C510.55 124.584 510.251 124.285 510.038 123.944C509.835 123.603 509.734 123.24 509.734 122.856V122.216ZM511.158 115.944C511.105 116.083 510.977 116.275 510.774 116.52C510.571 116.755 510.342 116.979 510.086 117.192C509.745 117.491 509.361 117.805 508.934 118.136C508.518 118.467 508.086 118.787 507.638 119.096L506.71 117.96C507.222 117.597 507.702 117.245 508.15 116.904C508.598 116.552 508.966 116.237 509.254 115.96C509.446 115.768 509.611 115.581 509.75 115.4C509.889 115.219 509.995 115.032 510.07 114.84C510.155 114.637 510.214 114.424 510.246 114.2C510.289 113.965 510.31 113.704 510.31 113.416V112.76H507.206V111.4H514.822V112.76H511.91V113.352C511.91 113.608 511.921 113.837 511.942 114.04C511.963 114.243 512.001 114.429 512.054 114.6C512.118 114.771 512.203 114.936 512.31 115.096C512.417 115.245 512.561 115.4 512.742 115.56C513.115 115.901 513.51 116.232 513.926 116.552C514.342 116.861 514.79 117.171 515.27 117.48L514.374 118.632C513.958 118.344 513.569 118.061 513.206 117.784C512.843 117.507 512.47 117.208 512.086 116.888C511.841 116.685 511.638 116.509 511.478 116.36C511.329 116.2 511.227 116.061 511.174 115.944H511.158ZM517.238 122.312C517.238 122.12 517.169 121.928 517.03 121.736C516.891 121.544 516.694 121.373 516.438 121.224C516.182 121.064 515.867 120.941 515.494 120.856C515.131 120.76 514.721 120.712 514.262 120.712C513.803 120.712 513.387 120.76 513.014 120.856C512.651 120.941 512.342 121.064 512.086 121.224C511.83 121.373 511.633 121.544 511.494 121.736C511.355 121.928 511.286 122.12 511.286 122.312V122.76C511.286 122.952 511.355 123.144 511.494 123.336C511.633 123.528 511.83 123.699 512.086 123.848C512.342 124.008 512.651 124.131 513.014 124.216C513.387 124.312 513.803 124.36 514.262 124.36C514.721 124.36 515.131 124.312 515.494 124.216C515.867 124.131 516.182 124.008 516.438 123.848C516.694 123.699 516.891 123.528 517.03 123.336C517.169 123.144 517.238 122.952 517.238 122.76V122.312ZM517.158 119.208V115.464H514.438V114.104H517.158V110.488H518.726V119.208H517.158ZM534.361 119.352C533.721 119.416 533.102 119.475 532.505 119.528C531.918 119.571 531.267 119.608 530.553 119.64C529.849 119.661 529.049 119.683 528.153 119.704C527.257 119.715 526.195 119.72 524.969 119.72V118.36C525.737 118.36 526.425 118.36 527.033 118.36C527.651 118.36 528.227 118.355 528.761 118.344V116.808C528.334 116.744 527.939 116.637 527.577 116.488C527.225 116.328 526.921 116.131 526.665 115.896C526.409 115.661 526.211 115.4 526.073 115.112C525.934 114.824 525.865 114.509 525.865 114.168V113.496C525.865 113.112 525.955 112.76 526.137 112.44C526.329 112.109 526.585 111.827 526.905 111.592C527.235 111.347 527.625 111.155 528.073 111.016C528.521 110.877 529.011 110.808 529.545 110.808C530.067 110.808 530.553 110.877 531.001 111.016C531.459 111.155 531.849 111.347 532.169 111.592C532.499 111.827 532.755 112.109 532.937 112.44C533.129 112.76 533.225 113.112 533.225 113.496V114.168C533.225 114.509 533.15 114.824 533.001 115.112C532.862 115.4 532.665 115.661 532.409 115.896C532.153 116.131 531.849 116.328 531.497 116.488C531.145 116.637 530.755 116.744 530.329 116.808V118.296C531.011 118.275 531.657 118.243 532.265 118.2C532.873 118.157 533.529 118.104 534.233 118.04L534.361 119.352ZM535.145 121.528V110.488H536.713V115.176H538.793V116.552H536.713V121.528H535.145ZM528.889 123.736H537.113V125.096H527.305V120.984H528.889V123.736ZM529.545 112.136C528.851 112.136 528.318 112.285 527.945 112.584C527.571 112.872 527.385 113.219 527.385 113.624V114.04C527.385 114.445 527.571 114.797 527.945 115.096C528.318 115.384 528.851 115.528 529.545 115.528C530.238 115.528 530.771 115.384 531.145 115.096C531.518 114.797 531.705 114.445 531.705 114.04V113.624C531.705 113.219 531.518 112.872 531.145 112.584C530.771 112.285 530.238 112.136 529.545 112.136ZM541.435 119.4V114.84H549.531V113H541.371V111.656H551.099V116.184H543.003V118.056H551.451V119.4H549.339V121.928H553.067V123.272H539.531V121.928H543.387V119.4H541.435ZM544.939 121.928H547.787V119.4H544.939V121.928Z" fill="#0F172A"/>
<rect x="432.652" y="25" width="162.348" height="50" rx="23" fill="#0F172A" stroke="#0F172A" stroke-width="2"/>
<rect x="429" y="21" width="162.348" height="50" rx="23" fill="#E2E8F0" stroke="#0F172A" stroke-width="2"/>
<path d="M472.957 45L477.457 49.5L484.957 42" stroke="#0F172A" stroke-width="2" stroke-linecap="round" stroke-linejoin="round"/>
<path d="M497.812 53.24V48.168H491.844V46.824H505.38V48.168H499.412V53.24H497.812ZM500.388 44.024C499.854 43.7573 499.449 43.5227 499.172 43.32C498.905 43.1173 498.718 42.9253 498.612 42.744H498.596C498.5 42.9253 498.313 43.1227 498.036 43.336C497.758 43.5387 497.353 43.7733 496.82 44.04C496.382 44.2533 495.87 44.4933 495.284 44.76C494.697 45.0267 494.073 45.288 493.412 45.544L492.788 44.248C493.385 44.024 493.993 43.7787 494.612 43.512C495.23 43.2347 495.796 42.9573 496.308 42.68C496.574 42.5307 496.804 42.3813 496.996 42.232C497.188 42.0827 497.342 41.9173 497.46 41.736C497.588 41.544 497.678 41.336 497.732 41.112C497.785 40.8773 497.812 40.6107 497.812 40.312V39H499.396V40.312C499.396 40.6107 499.422 40.8773 499.476 41.112C499.529 41.336 499.614 41.544 499.732 41.736C499.849 41.9173 499.998 42.0827 500.18 42.232C500.372 42.3813 500.606 42.5307 500.884 42.68C501.396 42.9573 501.961 43.2347 502.58 43.512C503.198 43.7787 503.806 44.024 504.404 44.248L503.796 45.528C503.134 45.272 502.51 45.0107 501.924 44.744C501.337 44.4773 500.825 44.2373 500.388 44.024ZM509.734 50.216C509.734 49.832 509.835 49.4693 510.038 49.128C510.251 48.7867 510.55 48.488 510.934 48.232C511.329 47.976 511.803 47.7787 512.358 47.64C512.923 47.4907 513.558 47.416 514.262 47.416C514.966 47.416 515.595 47.4907 516.15 47.64C516.715 47.7787 517.19 47.976 517.574 48.232C517.969 48.488 518.267 48.7867 518.47 49.128C518.683 49.4693 518.79 49.832 518.79 50.216V50.856C518.79 51.24 518.683 51.6027 518.47 51.944C518.267 52.2853 517.969 52.584 517.574 52.84C517.19 53.096 516.715 53.2933 516.15 53.432C515.595 53.5813 514.966 53.656 514.262 53.656C513.558 53.656 512.923 53.5813 512.358 53.432C511.803 53.2933 511.329 53.096 510.934 52.84C510.55 52.584 510.251 52.2853 510.038 51.944C509.835 51.6027 509.734 51.24 509.734 50.856V50.216ZM511.158 43.944C511.105 44.0827 510.977 44.2747 510.774 44.52C510.571 44.7547 510.342 44.9787 510.086 45.192C509.745 45.4907 509.361 45.8053 508.934 46.136C508.518 46.4667 508.086 46.7867 507.638 47.096L506.71 45.96C507.222 45.5973 507.702 45.2453 508.15 44.904C508.598 44.552 508.966 44.2373 509.254 43.96C509.446 43.768 509.611 43.5813 509.75 43.4C509.889 43.2187 509.995 43.032 510.07 42.84C510.155 42.6373 510.214 42.424 510.246 42.2C510.289 41.9653 510.31 41.704 510.31 41.416V40.76H507.206V39.4H514.822V40.76H511.91V41.352C511.91 41.608 511.921 41.8373 511.942 42.04C511.963 42.2427 512.001 42.4293 512.054 42.6C512.118 42.7707 512.203 42.936 512.31 43.096C512.417 43.2453 512.561 43.4 512.742 43.56C513.115 43.9013 513.51 44.232 513.926 44.552C514.342 44.8613 514.79 45.1707 515.27 45.48L514.374 46.632C513.958 46.344 513.569 46.0613 513.206 45.784C512.843 45.5067 512.47 45.208 512.086 44.888C511.841 44.6853 511.638 44.5093 511.478 44.36C511.329 44.2 511.227 44.0613 511.174 43.944H511.158ZM517.238 50.312C517.238 50.12 517.169 49.928 517.03 49.736C516.891 49.544 516.694 49.3733 516.438 49.224C516.182 49.064 515.867 48.9413 515.494 48.856C515.131 48.76 514.721 48.712 514.262 48.712C513.803 48.712 513.387 48.76 513.014 48.856C512.651 48.9413 512.342 49.064 512.086 49.224C511.83 49.3733 511.633 49.544 511.494 49.736C511.355 49.928 511.286 50.12 511.286 50.312V50.76C511.286 50.952 511.355 51.144 511.494 51.336C511.633 51.528 511.83 51.6987 512.086 51.848C512.342 52.008 512.651 52.1307 513.014 52.216C513.387 52.312 513.803 52.36 514.262 52.36C514.721 52.36 515.131 52.312 515.494 52.216C515.867 52.1307 516.182 52.008 516.438 51.848C516.694 51.6987 516.891 51.528 517.03 51.336C517.169 51.144 517.238 50.952 517.238 50.76V50.312ZM517.158 47.208V43.464H514.438V42.104H517.158V38.488H518.726V47.208H517.158ZM534.361 47.352C533.721 47.416 533.102 47.4747 532.505 47.528C531.918 47.5707 531.267 47.608 530.553 47.64C529.849 47.6613 529.049 47.6827 528.153 47.704C527.257 47.7147 526.195 47.72 524.969 47.72V46.36C525.737 46.36 526.425 46.36 527.033 46.36C527.651 46.36 528.227 46.3547 528.761 46.344V44.808C528.334 44.744 527.939 44.6373 527.577 44.488C527.225 44.328 526.921 44.1307 526.665 43.896C526.409 43.6613 526.211 43.4 526.073 43.112C525.934 42.824 525.865 42.5093 525.865 42.168V41.496C525.865 41.112 525.955 40.76 526.137 40.44C526.329 40.1093 526.585 39.8267 526.905 39.592C527.235 39.3467 527.625 39.1547 528.073 39.016C528.521 38.8773 529.011 38.808 529.545 38.808C530.067 38.808 530.553 38.8773 531.001 39.016C531.459 39.1547 531.849 39.3467 532.169 39.592C532.499 39.8267 532.755 40.1093 532.937 40.44C533.129 40.76 533.225 41.112 533.225 41.496V42.168C533.225 42.5093 533.15 42.824 533.001 43.112C532.862 43.4 532.665 43.6613 532.409 43.896C532.153 44.1307 531.849 44.328 531.497 44.488C531.145 44.6373 530.755 44.744 530.329 44.808V46.296C531.011 46.2747 531.657 46.2427 532.265 46.2C532.873 46.1573 533.529 46.104 534.233 46.04L534.361 47.352ZM535.145 49.528V38.488H536.713V43.176H538.793V44.552H536.713V49.528H535.145ZM528.889 51.736H537.113V53.096H527.305V48.984H528.889V51.736ZM529.545 40.136C528.851 40.136 528.318 40.2853 527.945 40.584C527.571 40.872 527.385 41.2187 527.385 41.624V42.04C527.385 42.4453 527.571 42.7973 527.945 43.096C528.318 43.384 528.851 43.528 529.545 43.528C530.238 43.528 530.771 43.384 531.145 43.096C531.518 42.7973 531.705 42.4453 531.705 42.04V41.624C531.705 41.2187 531.518 40.872 531.145 40.584C530.771 40.2853 530.238 40.136 529.545 40.136ZM541.435 47.4V42.84H549.531V41H541.371V39.656H551.099V44.184H543.003V46.056H551.451V47.4H549.339V49.928H553.067V51.272H539.531V49.928H543.387V47.4H541.435ZM544.939 49.928H547.787V47.4H544.939V49.928Z" fill="#0F172A"/>
</svg>
