<svg width="567" height="181" viewBox="0 0 567 181" fill="none" xmlns="http://www.w3.org/2000/svg">
<rect x="0.5" y="0.5" width="566" height="180" rx="4.5" stroke="#9747FF" stroke-dasharray="10 5"/>
<rect x="21" y="22" width="525" height="48" rx="24" fill="white" stroke="#0F172A" stroke-width="2"/>
<circle cx="48" cy="46" r="15" fill="#FEFCE8" stroke="#0F172A" stroke-width="2"/>
<path d="M92.7033 53.176H91.5673V38.552H92.7033V53.176ZM88.4313 49.304H81.7113V39.752H82.8313V43.368H87.3113V39.752H88.4313V49.304ZM82.8313 48.28H87.3113V44.376H82.8313V48.28ZM102.658 39.736V40.744H97.1218V44.008H102.338V45.016H97.1218V48.408H99.1698C99.9164 48.408 100.695 48.3867 101.506 48.344C102.316 48.2907 103.154 48.2 104.018 48.072L104.146 49.08C103.282 49.2187 102.402 49.3147 101.506 49.368C100.61 49.4107 99.7351 49.432 98.8818 49.432H95.9858V39.736H102.658ZM106.514 44.04H108.946V45.048H106.514V53.176H105.378V38.552H106.514V44.04ZM117.3 46.36H110.708V39.464H117.3V46.36ZM116.212 40.456H111.796V45.368H116.212V40.456ZM121.796 49.016H120.676V38.552H121.796V49.016ZM113.972 52.008H122.164V53H112.836V48.216H113.972V52.008ZM136.247 47.704C136.844 47.704 137.415 47.7627 137.959 47.88C138.503 47.9973 138.983 48.168 139.399 48.392C139.815 48.616 140.145 48.8933 140.391 49.224C140.636 49.5547 140.759 49.928 140.759 50.344V50.92C140.759 51.336 140.636 51.7093 140.391 52.04C140.145 52.3707 139.815 52.648 139.399 52.872C138.983 53.096 138.503 53.2667 137.959 53.384C137.415 53.5013 136.844 53.56 136.247 53.56C135.649 53.56 135.079 53.5013 134.535 53.384C133.991 53.2667 133.511 53.096 133.095 52.872C132.679 52.648 132.348 52.3707 132.103 52.04C131.857 51.7093 131.735 51.336 131.735 50.92V50.328C131.735 49.9013 131.857 49.528 132.103 49.208C132.348 48.8773 132.679 48.6 133.095 48.376C133.511 48.152 133.991 47.9867 134.535 47.88C135.079 47.7627 135.649 47.704 136.247 47.704ZM136.247 52.6C136.673 52.6 137.089 52.5627 137.495 52.488C137.911 52.4133 138.279 52.3013 138.599 52.152C138.919 52.0027 139.175 51.8213 139.367 51.608C139.569 51.3947 139.671 51.144 139.671 50.856V50.408C139.671 50.12 139.569 49.8693 139.367 49.656C139.175 49.4427 138.919 49.2613 138.599 49.112C138.279 48.9627 137.911 48.8507 137.495 48.776C137.089 48.7013 136.673 48.664 136.247 48.664C135.82 48.664 135.399 48.7013 134.983 48.776C134.577 48.8507 134.215 48.9627 133.895 49.112C133.575 49.2507 133.313 49.432 133.111 49.656C132.919 49.8693 132.823 50.1147 132.823 50.392V50.856C132.823 51.144 132.919 51.3947 133.111 51.608C133.313 51.8213 133.575 52.0027 133.895 52.152C134.215 52.3013 134.577 52.4133 134.983 52.488C135.399 52.5627 135.82 52.6 136.247 52.6ZM137.463 42.328H139.575V38.552H140.679V47.384H139.575V43.336H137.463V46.76H136.359V38.744H137.463V42.328ZM134.727 46.664C134.375 46.3867 134.049 46.1253 133.751 45.88C133.452 45.6347 133.164 45.3893 132.887 45.144C132.375 44.6747 132.076 44.36 131.991 44.2H131.975C131.921 44.3813 131.639 44.7173 131.127 45.208C131.009 45.3253 130.865 45.464 130.695 45.624C130.535 45.7733 130.359 45.9333 130.167 46.104C129.975 46.264 129.772 46.4347 129.559 46.616C129.345 46.7867 129.137 46.952 128.935 47.112L128.231 46.344C128.636 46.0347 129.036 45.7147 129.431 45.384C129.825 45.0533 130.188 44.7173 130.519 44.376C130.7 44.184 130.844 44.0133 130.951 43.864C131.068 43.704 131.159 43.544 131.223 43.384C131.287 43.2133 131.329 43.032 131.351 42.84C131.383 42.648 131.399 42.424 131.399 42.168V41.416H128.727V40.44H131.399V38.6H132.519V40.44H135.047V41.416H132.519V42.168C132.519 42.4453 132.529 42.6747 132.551 42.856C132.572 43.0373 132.615 43.208 132.679 43.368C132.753 43.5173 132.855 43.6667 132.983 43.816C133.111 43.9653 133.281 44.1413 133.495 44.344C133.74 44.568 134.023 44.8187 134.343 45.096C134.673 45.3627 135.02 45.6293 135.383 45.896L134.727 46.664ZM143.449 48.92C144.26 48.4507 144.959 48.0293 145.545 47.656C146.143 47.2827 146.644 46.936 147.049 46.616C147.455 46.296 147.78 45.992 148.025 45.704C148.271 45.416 148.457 45.1227 148.585 44.824C148.724 44.5253 148.815 44.216 148.857 43.896C148.9 43.5653 148.921 43.1973 148.921 42.792V40.968H143.609V39.944H150.025V42.088H153.849V38.552H154.953V53.176H153.849V47.016H150.281V45.992H153.849V43.112H150.025C150.004 43.784 149.913 44.376 149.753 44.888C149.604 45.4 149.311 45.9013 148.873 46.392C148.447 46.8827 147.844 47.4 147.065 47.944C146.297 48.4773 145.289 49.1067 144.041 49.832L143.449 48.92ZM173.564 47H172.444V43.096H168.908V45.928H162.316V39.384H168.908V42.104H172.444V38.552H173.564V47ZM167.836 40.376H163.388V44.936H167.836V40.376ZM164.156 47.864H173.564V53.288H172.444V48.856H164.156V47.864ZM187.998 53.176H186.862V38.552H187.998V53.176ZM176.718 48.936C177.945 48.232 178.921 47.6293 179.646 47.128C180.372 46.616 180.921 46.1413 181.294 45.704C181.668 45.256 181.908 44.808 182.014 44.36C182.132 43.912 182.19 43.3893 182.19 42.792V40.952H176.878V39.928H183.294V42.808C183.294 43.2987 183.268 43.7413 183.214 44.136C183.161 44.5307 183.054 44.904 182.894 45.256C182.745 45.608 182.532 45.9493 182.254 46.28C181.977 46.6107 181.614 46.9573 181.166 47.32C180.729 47.6827 180.19 48.072 179.55 48.488C178.921 48.8933 178.174 49.3467 177.31 49.848L176.718 48.936Z" fill="#1E293B"/>
<rect x="21" y="95" width="525" height="48" rx="24" fill="#EDE9FE" stroke="#0F172A" stroke-width="2"/>
<circle cx="48" cy="119" r="16" fill="#7C3AED"/>
<path d="M40 119.286L45.8182 125L56 115" stroke="#FEFCE8" stroke-width="4" stroke-linecap="round" stroke-linejoin="round"/>
<path d="M92.7033 126.176H91.5673V111.552H92.7033V126.176ZM88.4313 122.304H81.7113V112.752H82.8313V116.368H87.3113V112.752H88.4313V122.304ZM82.8313 121.28H87.3113V117.376H82.8313V121.28ZM102.658 112.736V113.744H97.1218V117.008H102.338V118.016H97.1218V121.408H99.1698C99.9164 121.408 100.695 121.387 101.506 121.344C102.316 121.291 103.154 121.2 104.018 121.072L104.146 122.08C103.282 122.219 102.402 122.315 101.506 122.368C100.61 122.411 99.7351 122.432 98.8818 122.432H95.9858V112.736H102.658ZM106.514 117.04H108.946V118.048H106.514V126.176H105.378V111.552H106.514V117.04ZM117.3 119.36H110.708V112.464H117.3V119.36ZM116.212 113.456H111.796V118.368H116.212V113.456ZM121.796 122.016H120.676V111.552H121.796V122.016ZM113.972 125.008H122.164V126H112.836V121.216H113.972V125.008ZM136.247 120.704C136.844 120.704 137.415 120.763 137.959 120.88C138.503 120.997 138.983 121.168 139.399 121.392C139.815 121.616 140.145 121.893 140.391 122.224C140.636 122.555 140.759 122.928 140.759 123.344V123.92C140.759 124.336 140.636 124.709 140.391 125.04C140.145 125.371 139.815 125.648 139.399 125.872C138.983 126.096 138.503 126.267 137.959 126.384C137.415 126.501 136.844 126.56 136.247 126.56C135.649 126.56 135.079 126.501 134.535 126.384C133.991 126.267 133.511 126.096 133.095 125.872C132.679 125.648 132.348 125.371 132.103 125.04C131.857 124.709 131.735 124.336 131.735 123.92V123.328C131.735 122.901 131.857 122.528 132.103 122.208C132.348 121.877 132.679 121.6 133.095 121.376C133.511 121.152 133.991 120.987 134.535 120.88C135.079 120.763 135.649 120.704 136.247 120.704ZM136.247 125.6C136.673 125.6 137.089 125.563 137.495 125.488C137.911 125.413 138.279 125.301 138.599 125.152C138.919 125.003 139.175 124.821 139.367 124.608C139.569 124.395 139.671 124.144 139.671 123.856V123.408C139.671 123.12 139.569 122.869 139.367 122.656C139.175 122.443 138.919 122.261 138.599 122.112C138.279 121.963 137.911 121.851 137.495 121.776C137.089 121.701 136.673 121.664 136.247 121.664C135.82 121.664 135.399 121.701 134.983 121.776C134.577 121.851 134.215 121.963 133.895 122.112C133.575 122.251 133.313 122.432 133.111 122.656C132.919 122.869 132.823 123.115 132.823 123.392V123.856C132.823 124.144 132.919 124.395 133.111 124.608C133.313 124.821 133.575 125.003 133.895 125.152C134.215 125.301 134.577 125.413 134.983 125.488C135.399 125.563 135.82 125.6 136.247 125.6ZM137.463 115.328H139.575V111.552H140.679V120.384H139.575V116.336H137.463V119.76H136.359V111.744H137.463V115.328ZM134.727 119.664C134.375 119.387 134.049 119.125 133.751 118.88C133.452 118.635 133.164 118.389 132.887 118.144C132.375 117.675 132.076 117.36 131.991 117.2H131.975C131.921 117.381 131.639 117.717 131.127 118.208C131.009 118.325 130.865 118.464 130.695 118.624C130.535 118.773 130.359 118.933 130.167 119.104C129.975 119.264 129.772 119.435 129.559 119.616C129.345 119.787 129.137 119.952 128.935 120.112L128.231 119.344C128.636 119.035 129.036 118.715 129.431 118.384C129.825 118.053 130.188 117.717 130.519 117.376C130.7 117.184 130.844 117.013 130.951 116.864C131.068 116.704 131.159 116.544 131.223 116.384C131.287 116.213 131.329 116.032 131.351 115.84C131.383 115.648 131.399 115.424 131.399 115.168V114.416H128.727V113.44H131.399V111.6H132.519V113.44H135.047V114.416H132.519V115.168C132.519 115.445 132.529 115.675 132.551 115.856C132.572 116.037 132.615 116.208 132.679 116.368C132.753 116.517 132.855 116.667 132.983 116.816C133.111 116.965 133.281 117.141 133.495 117.344C133.74 117.568 134.023 117.819 134.343 118.096C134.673 118.363 135.02 118.629 135.383 118.896L134.727 119.664ZM143.449 121.92C144.26 121.451 144.959 121.029 145.545 120.656C146.143 120.283 146.644 119.936 147.049 119.616C147.455 119.296 147.78 118.992 148.025 118.704C148.271 118.416 148.457 118.123 148.585 117.824C148.724 117.525 148.815 117.216 148.857 116.896C148.9 116.565 148.921 116.197 148.921 115.792V113.968H143.609V112.944H150.025V115.088H153.849V111.552H154.953V126.176H153.849V120.016H150.281V118.992H153.849V116.112H150.025C150.004 116.784 149.913 117.376 149.753 117.888C149.604 118.4 149.311 118.901 148.873 119.392C148.447 119.883 147.844 120.4 147.065 120.944C146.297 121.477 145.289 122.107 144.041 122.832L143.449 121.92ZM173.564 120H172.444V116.096H168.908V118.928H162.316V112.384H168.908V115.104H172.444V111.552H173.564V120ZM167.836 113.376H163.388V117.936H167.836V113.376ZM164.156 120.864H173.564V126.288H172.444V121.856H164.156V120.864ZM187.998 126.176H186.862V111.552H187.998V126.176ZM176.718 121.936C177.945 121.232 178.921 120.629 179.646 120.128C180.372 119.616 180.921 119.141 181.294 118.704C181.668 118.256 181.908 117.808 182.014 117.36C182.132 116.912 182.19 116.389 182.19 115.792V113.952H176.878V112.928H183.294V115.808C183.294 116.299 183.268 116.741 183.214 117.136C183.161 117.531 183.054 117.904 182.894 118.256C182.745 118.608 182.532 118.949 182.254 119.28C181.977 119.611 181.614 119.957 181.166 120.32C180.729 120.683 180.19 121.072 179.55 121.488C178.921 121.893 178.174 122.347 177.31 122.848L176.718 121.936Z" fill="#1E293B"/>
<path d="M80.0312 119.088H189.966V119.888H80.0312V119.088Z" fill="#1E293B"/>
</svg>
