<svg width="1036" height="188" viewBox="0 0 1036 188" fill="none" xmlns="http://www.w3.org/2000/svg">
<rect x="0.5" y="0.5" width="1035" height="187" rx="4.5" stroke="#9747FF" stroke-dasharray="10 5"/>
<rect x="21" y="21" width="994" height="62" rx="23" fill="white" stroke="#0F172A" stroke-width="2"/>
<circle cx="441.5" cy="52" r="15" fill="#FEFCE8" stroke="#0F172A" stroke-width="2"/>
<path d="M487.729 60.3V41.86H489.709V60.3H487.729ZM475.769 55.46V43.36H477.729V47.72H482.389V43.36H484.349V55.46H475.769ZM477.729 53.76H482.389V49.4H477.729V53.76ZM495.612 45.04V48.54H501.692V50.22H495.612V53.96H497.352C498.019 53.96 498.626 53.9533 499.172 53.94C499.719 53.9267 500.232 53.9067 500.712 53.88C501.206 53.84 501.686 53.8 502.152 53.76C502.632 53.7067 503.132 53.64 503.652 53.56L503.872 55.24C503.406 55.3067 502.932 55.3667 502.452 55.42C501.986 55.4733 501.472 55.52 500.912 55.56C500.366 55.5867 499.759 55.6133 499.092 55.64C498.439 55.6533 497.699 55.66 496.872 55.66H493.652V43.34H502.092V45.04H495.612ZM509.932 50.32H507.092V60.3H505.112V41.86H507.092V48.6H509.932V50.32ZM524.155 55.02V41.86H526.115V55.02H524.155ZM520.455 51.84H512.035V42.98H520.455V51.84ZM513.975 50.16H518.515V44.66H513.975V50.16ZM516.575 58.38H526.495V60.1H514.595V53.98H516.575V58.38ZM538.318 56.64C538.318 56.1467 538.452 55.6933 538.718 55.28C538.985 54.8667 539.365 54.5133 539.858 54.22C540.365 53.9133 540.972 53.68 541.678 53.52C542.398 53.3467 543.198 53.26 544.078 53.26C544.958 53.26 545.752 53.3467 546.458 53.52C547.165 53.6933 547.765 53.9333 548.258 54.24C548.765 54.5333 549.152 54.8867 549.418 55.3C549.698 55.7133 549.838 56.16 549.838 56.64V57.44C549.838 57.92 549.698 58.3667 549.418 58.78C549.152 59.1933 548.765 59.5467 548.258 59.84C547.765 60.1467 547.165 60.3867 546.458 60.56C545.752 60.7333 544.958 60.82 544.078 60.82C543.198 60.82 542.398 60.7333 541.678 60.56C540.972 60.4 540.365 60.1667 539.858 59.86C539.365 59.5667 538.985 59.2133 538.718 58.8C538.452 58.3867 538.318 57.9333 538.318 57.44V56.64ZM547.818 41.86H549.718V53.02H547.818V48.14H545.958V52.24H544.078V42.1H545.958V46.44H547.818V41.86ZM538.718 49.24C538.678 49.3867 538.552 49.5867 538.338 49.84C538.125 50.08 537.925 50.2933 537.738 50.48C537.472 50.76 537.112 51.1 536.658 51.5C536.218 51.8867 535.698 52.32 535.098 52.8L533.878 51.44C534.558 50.9333 535.138 50.4667 535.618 50.04C536.098 49.6133 536.478 49.2467 536.758 48.94C536.958 48.7267 537.118 48.5333 537.238 48.36C537.372 48.1733 537.472 47.9933 537.538 47.82C537.618 47.6333 537.672 47.4333 537.698 47.22C537.725 46.9933 537.738 46.7267 537.738 46.42V45.78H534.598V44.14H537.738V41.94H539.658V44.14H542.558V45.78H539.658V46.32C539.658 46.6 539.665 46.8467 539.678 47.06C539.705 47.2733 539.752 47.4733 539.818 47.66C539.898 47.8467 540.005 48.0333 540.138 48.22C540.272 48.3933 540.458 48.5933 540.698 48.82C541.045 49.1667 541.412 49.5067 541.798 49.84C542.198 50.1733 542.645 50.52 543.138 50.88L541.958 52.28C541.505 51.92 541.105 51.5933 540.758 51.3C540.425 50.9933 540.112 50.7067 539.818 50.44C539.552 50.2 539.318 49.98 539.118 49.78C538.918 49.5667 538.792 49.3867 538.738 49.24H538.718ZM547.898 56.78C547.898 56.54 547.805 56.3067 547.618 56.08C547.432 55.84 547.172 55.6333 546.838 55.46C546.505 55.2867 546.098 55.1467 545.618 55.04C545.152 54.9333 544.638 54.88 544.078 54.88C543.518 54.88 542.998 54.9333 542.518 55.04C542.052 55.1467 541.652 55.2867 541.318 55.46C540.985 55.6333 540.725 55.84 540.538 56.08C540.352 56.3067 540.258 56.54 540.258 56.78V57.28C540.258 57.5333 540.352 57.7733 540.538 58C540.725 58.2267 540.985 58.4267 541.318 58.6C541.652 58.7867 542.052 58.9333 542.518 59.04C542.998 59.1467 543.518 59.2 544.078 59.2C544.638 59.2 545.152 59.1467 545.618 59.04C546.098 58.9333 546.505 58.7933 546.838 58.62C547.172 58.4467 547.432 58.24 547.618 58C547.805 57.7733 547.898 57.54 547.898 57.3V56.78ZM565.602 60.3V52.74H561.602V51H565.602V47.86H561.442C561.428 48.3667 561.388 48.8333 561.322 49.26C561.255 49.6867 561.128 50.1 560.942 50.5C560.755 50.8867 560.488 51.28 560.142 51.68C559.808 52.0667 559.362 52.4867 558.802 52.94C558.255 53.3933 557.575 53.8933 556.762 54.44C555.962 54.9733 555.002 55.58 553.882 56.26L552.842 54.68C553.908 54.0533 554.815 53.4933 555.562 53C556.308 52.5067 556.928 52.06 557.422 51.66C557.915 51.2467 558.302 50.8667 558.582 50.52C558.862 50.16 559.068 49.8067 559.202 49.46C559.335 49.1 559.415 48.7333 559.442 48.36C559.482 47.9733 559.502 47.54 559.502 47.06V45.28H553.202V43.58H561.462V46.12H565.602V41.86H567.582V60.3H565.602ZM588.885 52.56V47.86H585.005V51.26H576.585V42.88H585.005V46.16H588.885V41.86H590.845V52.56H588.885ZM578.705 53.52H590.845V60.48H588.865V55.22H578.705V53.52ZM578.525 49.58H583.065V44.56H578.525V49.58ZM594.428 54.7C595.494 54.0733 596.394 53.52 597.128 53.04C597.874 52.5467 598.494 52.1 598.988 51.7C599.481 51.2867 599.868 50.9067 600.148 50.56C600.428 50.2 600.634 49.8467 600.768 49.5C600.914 49.14 601.001 48.7667 601.028 48.38C601.068 47.9933 601.088 47.56 601.088 47.08V45.26H594.788V43.56H603.048V47.1C603.048 47.7 603.028 48.2467 602.988 48.74C602.961 49.22 602.868 49.68 602.708 50.12C602.548 50.5467 602.308 50.9733 601.988 51.4C601.681 51.8133 601.241 52.26 600.668 52.74C600.108 53.22 599.401 53.7467 598.548 54.32C597.708 54.8933 596.681 55.5467 595.468 56.28L594.428 54.7ZM606.948 60.3V41.86H608.928V60.3H606.948Z" fill="#0F172A"/>
<path d="M473.789 59.5H611.208V60.5H473.789V59.5Z" fill="#0F172A"/>
<rect x="21" y="101" width="994" height="62" rx="23" fill="#DDD6FE" stroke="#0F172A" stroke-width="2"/>
<circle cx="445" cy="132" r="16" fill="#7C3AED"/>
<path d="M437 132.286L442.818 138L453 128" stroke="#FEFCE8" stroke-width="4" stroke-linecap="round" stroke-linejoin="round"/>
<path d="M491.229 140.3V121.86H493.209V140.3H491.229ZM479.269 135.46V123.36H481.229V127.72H485.889V123.36H487.849V135.46H479.269ZM481.229 133.76H485.889V129.4H481.229V133.76ZM499.112 125.04V128.54H505.192V130.22H499.112V133.96H500.852C501.519 133.96 502.126 133.953 502.672 133.94C503.219 133.927 503.732 133.907 504.212 133.88C504.706 133.84 505.186 133.8 505.652 133.76C506.132 133.707 506.632 133.64 507.152 133.56L507.372 135.24C506.906 135.307 506.432 135.367 505.952 135.42C505.486 135.473 504.972 135.52 504.412 135.56C503.866 135.587 503.259 135.613 502.592 135.64C501.939 135.653 501.199 135.66 500.372 135.66H497.152V123.34H505.592V125.04H499.112ZM513.432 130.32H510.592V140.3H508.612V121.86H510.592V128.6H513.432V130.32ZM527.655 135.02V121.86H529.615V135.02H527.655ZM523.955 131.84H515.535V122.98H523.955V131.84ZM517.475 130.16H522.015V124.66H517.475V130.16ZM520.075 138.38H529.995V140.1H518.095V133.98H520.075V138.38ZM541.818 136.64C541.818 136.147 541.952 135.693 542.218 135.28C542.485 134.867 542.865 134.513 543.358 134.22C543.865 133.913 544.472 133.68 545.178 133.52C545.898 133.347 546.698 133.26 547.578 133.26C548.458 133.26 549.252 133.347 549.958 133.52C550.665 133.693 551.265 133.933 551.758 134.24C552.265 134.533 552.652 134.887 552.918 135.3C553.198 135.713 553.338 136.16 553.338 136.64V137.44C553.338 137.92 553.198 138.367 552.918 138.78C552.652 139.193 552.265 139.547 551.758 139.84C551.265 140.147 550.665 140.387 549.958 140.56C549.252 140.733 548.458 140.82 547.578 140.82C546.698 140.82 545.898 140.733 545.178 140.56C544.472 140.4 543.865 140.167 543.358 139.86C542.865 139.567 542.485 139.213 542.218 138.8C541.952 138.387 541.818 137.933 541.818 137.44V136.64ZM551.318 121.86H553.218V133.02H551.318V128.14H549.458V132.24H547.578V122.1H549.458V126.44H551.318V121.86ZM542.218 129.24C542.178 129.387 542.052 129.587 541.838 129.84C541.625 130.08 541.425 130.293 541.238 130.48C540.972 130.76 540.612 131.1 540.158 131.5C539.718 131.887 539.198 132.32 538.598 132.8L537.378 131.44C538.058 130.933 538.638 130.467 539.118 130.04C539.598 129.613 539.978 129.247 540.258 128.94C540.458 128.727 540.618 128.533 540.738 128.36C540.872 128.173 540.972 127.993 541.038 127.82C541.118 127.633 541.172 127.433 541.198 127.22C541.225 126.993 541.238 126.727 541.238 126.42V125.78H538.098V124.14H541.238V121.94H543.158V124.14H546.058V125.78H543.158V126.32C543.158 126.6 543.165 126.847 543.178 127.06C543.205 127.273 543.252 127.473 543.318 127.66C543.398 127.847 543.505 128.033 543.638 128.22C543.772 128.393 543.958 128.593 544.198 128.82C544.545 129.167 544.912 129.507 545.298 129.84C545.698 130.173 546.145 130.52 546.638 130.88L545.458 132.28C545.005 131.92 544.605 131.593 544.258 131.3C543.925 130.993 543.612 130.707 543.318 130.44C543.052 130.2 542.818 129.98 542.618 129.78C542.418 129.567 542.292 129.387 542.238 129.24H542.218ZM551.398 136.78C551.398 136.54 551.305 136.307 551.118 136.08C550.932 135.84 550.672 135.633 550.338 135.46C550.005 135.287 549.598 135.147 549.118 135.04C548.652 134.933 548.138 134.88 547.578 134.88C547.018 134.88 546.498 134.933 546.018 135.04C545.552 135.147 545.152 135.287 544.818 135.46C544.485 135.633 544.225 135.84 544.038 136.08C543.852 136.307 543.758 136.54 543.758 136.78V137.28C543.758 137.533 543.852 137.773 544.038 138C544.225 138.227 544.485 138.427 544.818 138.6C545.152 138.787 545.552 138.933 546.018 139.04C546.498 139.147 547.018 139.2 547.578 139.2C548.138 139.2 548.652 139.147 549.118 139.04C549.598 138.933 550.005 138.793 550.338 138.62C550.672 138.447 550.932 138.24 551.118 138C551.305 137.773 551.398 137.54 551.398 137.3V136.78ZM569.102 140.3V132.74H565.102V131H569.102V127.86H564.942C564.928 128.367 564.888 128.833 564.822 129.26C564.755 129.687 564.628 130.1 564.442 130.5C564.255 130.887 563.988 131.28 563.642 131.68C563.308 132.067 562.862 132.487 562.302 132.94C561.755 133.393 561.075 133.893 560.262 134.44C559.462 134.973 558.502 135.58 557.382 136.26L556.342 134.68C557.408 134.053 558.315 133.493 559.062 133C559.808 132.507 560.428 132.06 560.922 131.66C561.415 131.247 561.802 130.867 562.082 130.52C562.362 130.16 562.568 129.807 562.702 129.46C562.835 129.1 562.915 128.733 562.942 128.36C562.982 127.973 563.002 127.54 563.002 127.06V125.28H556.702V123.58H564.962V126.12H569.102V121.86H571.082V140.3H569.102ZM592.385 132.56V127.86H588.505V131.26H580.085V122.88H588.505V126.16H592.385V121.86H594.345V132.56H592.385ZM582.205 133.52H594.345V140.48H592.365V135.22H582.205V133.52ZM582.025 129.58H586.565V124.56H582.025V129.58ZM597.928 134.7C598.994 134.073 599.894 133.52 600.628 133.04C601.374 132.547 601.994 132.1 602.488 131.7C602.981 131.287 603.368 130.907 603.648 130.56C603.928 130.2 604.134 129.847 604.268 129.5C604.414 129.14 604.501 128.767 604.528 128.38C604.568 127.993 604.588 127.56 604.588 127.08V125.26H598.288V123.56H606.548V127.1C606.548 127.7 606.528 128.247 606.488 128.74C606.461 129.22 606.368 129.68 606.208 130.12C606.048 130.547 605.808 130.973 605.488 131.4C605.181 131.813 604.741 132.26 604.168 132.74C603.608 133.22 602.901 133.747 602.048 134.32C601.208 134.893 600.181 135.547 598.968 136.28L597.928 134.7ZM610.448 140.3V121.86H612.428V140.3H610.448Z" fill="#0F172A"/>
<path d="M477.289 139.5H614.708V140.5H477.289V139.5Z" fill="#0F172A"/>
</svg>
