<svg width="1960" height="260" viewBox="0 0 1960 260" fill="none" xmlns="http://www.w3.org/2000/svg">
<rect x="0.5" y="0.5" width="1959" height="259" rx="4.5" stroke="#9747FF" stroke-dasharray="10 5"/>
<mask id="path-2-inside-1_73_655" fill="white">
<path d="M20 20H1940V80H20V20Z"/>
</mask>
<path d="M20 20H1940V80H20V20Z" fill="white"/>
<path d="M1940 79H20V81H1940V79Z" fill="#E2E8F0" mask="url(#path-2-inside-1_73_655)"/>
<g clip-path="url(#clip0_73_655)">
<path d="M391 58.6755C394.876 51.1502 401.427 38.9616 405.487 41.5276C410.562 44.7352 398.105 54.6044 404.103 58.6755C410.101 62.7466 415.637 37.8266 421.082 41.5276C426.526 45.2286 415.822 54.9745 420.067 58.6755C423.462 61.6363 429.294 51.2394 434 43.2617" stroke="#6500C3" stroke-width="15.8161" stroke-linecap="round"/>
<path d="M411.942 45.0176C412.675 45.0176 413.393 45.5094 413.945 46.4189C414.492 47.3227 414.841 48.5927 414.841 50.0117C414.841 51.4306 414.492 52.6998 413.945 53.6035C413.393 54.5131 412.675 55.0049 411.942 55.0049C411.208 55.0048 410.49 54.5131 409.939 53.6035C409.391 52.6998 409.042 51.4306 409.042 50.0117C409.042 48.5927 409.391 47.3227 409.939 46.4189C410.49 45.5094 411.208 45.0176 411.942 45.0176Z" fill="white" stroke="#0F172A" stroke-width="0.64436"/>
<path d="M413.069 46.9507C413.494 46.9507 413.93 47.2303 414.276 47.7886C414.619 48.3421 414.841 49.1273 414.841 50.0112C414.841 50.8952 414.619 51.6803 414.276 52.2339C413.93 52.7923 413.494 53.0718 413.069 53.0718C412.643 53.0716 412.208 52.792 411.863 52.2339C411.52 51.6803 411.297 50.8952 411.297 50.0112C411.297 49.1273 411.52 48.3421 411.863 47.7886C412.208 47.2305 412.643 46.9509 413.069 46.9507Z" fill="#0F172A" stroke="#0F172A" stroke-width="0.64436"/>
<path d="M420.318 45.0176C421.052 45.0176 421.77 45.5094 422.321 46.4189C422.869 47.3227 423.218 48.5927 423.218 50.0117C423.218 51.4306 422.869 52.6998 422.321 53.6035C421.77 54.5131 421.052 55.0049 420.318 55.0049C419.585 55.0048 418.867 54.5131 418.315 53.6035C417.768 52.6998 417.419 51.4306 417.419 50.0117C417.419 48.5927 417.768 47.3227 418.315 46.4189C418.867 45.5094 419.585 45.0176 420.318 45.0176Z" fill="white" stroke="#0F172A" stroke-width="0.64436"/>
<path d="M421.446 46.9507C421.871 46.9507 422.307 47.2303 422.653 47.7886C422.995 48.3421 423.218 49.1273 423.218 50.0112C423.218 50.8952 422.995 51.6803 422.653 52.2339C422.307 52.7923 421.871 53.0718 421.446 53.0718C421.02 53.0716 420.585 52.792 420.24 52.2339C419.897 51.6803 419.674 50.8952 419.674 50.0112C419.674 49.1273 419.897 48.3421 420.24 47.7886C420.585 47.2305 421.02 46.9509 421.446 46.9507Z" fill="#0F172A" stroke="#0F172A" stroke-width="0.64436"/>
<path fill-rule="evenodd" clip-rule="evenodd" d="M520.488 46.3814C522.227 46.3697 523.632 44.9854 523.621 43.2968C523.609 41.5577 522.185 40.1525 520.446 40.1642C518.757 40.1756 517.392 41.5995 517.404 43.3386C517.415 45.0272 518.799 46.3928 520.488 46.3814Z" fill="#6500C3"/>
<path fill-rule="evenodd" clip-rule="evenodd" d="M523.561 54.5707C523.264 53.5648 522.45 52.3682 520.262 52.3829C518.573 52.3943 517.205 53.7784 517.216 55.467C517.227 57.0492 518.432 58.3494 519.989 58.4985L520.014 62.2507L520.491 61.947C522.98 60.3665 524.184 56.6833 523.561 54.5707Z" fill="#6500C3"/>
<path d="M460.33 49.6575C459.643 48.9368 458.787 48.5798 457.763 48.5867C456.398 48.5959 455.408 48.9439 454.794 49.6307C454.18 50.3175 453.876 51.2049 453.884 52.2929C453.89 53.2955 454.173 54.1043 454.732 54.7193C455.291 55.3342 456.168 55.6376 457.362 55.6296C457.938 55.6257 458.492 55.5047 459.024 55.2664C459.556 55.0282 460.001 54.6945 460.361 54.2654L460.33 49.6575ZM450.045 52.4787C450.036 51.1347 450.283 49.8851 450.788 48.7296C451.292 47.5742 452.011 46.6307 452.945 45.8991C453.9 45.146 455.006 44.7118 456.264 44.5967C456.904 44.5498 457.587 44.6838 458.315 44.9989C459.063 45.2926 459.728 45.7255 460.308 46.2976L460.265 39.9617L464.645 39.4202L464.767 57.4678C464.77 58.0012 464.581 58.4611 464.2 58.8477C463.819 59.2556 463.351 59.4614 462.796 59.4651L460.396 59.4813L460.384 57.6253C459.897 58.2259 459.292 58.7207 458.57 59.1095C457.868 59.4983 457.166 59.695 456.462 59.6997C455.203 59.7082 454.081 59.3851 453.095 58.7304C452.131 58.0968 451.378 57.2379 450.838 56.1535C450.318 55.0476 450.054 53.8227 450.045 52.4787ZM474.066 47.9331C473.106 47.9396 472.298 48.3183 471.641 49.0694C471.006 49.8204 470.693 50.8252 470.702 52.0838C470.709 53.2358 470.982 54.13 471.52 54.7664C472.079 55.4026 472.785 55.7179 473.638 55.7121C474.598 55.7057 475.396 55.3377 476.031 54.608C476.666 53.8784 476.979 52.8736 476.971 51.5936C476.963 50.4203 476.679 49.5156 476.12 48.8793C475.583 48.2429 474.898 47.9275 474.066 47.9331ZM466.959 52.365C466.949 50.829 467.228 49.4724 467.796 48.2953C468.386 47.1179 469.19 46.1738 470.209 45.463C471.228 44.7521 472.388 44.2963 473.688 44.0956C474.114 44.0287 474.509 43.994 474.871 43.9916C476.109 43.9833 477.22 44.2531 478.205 44.8012C479.211 45.3491 480.006 46.1651 480.589 47.2492C481.173 48.3333 481.47 49.6647 481.48 51.2433C481.492 52.9713 481.15 54.4669 480.454 55.7303C479.78 56.9722 478.848 57.9172 477.657 58.5652C476.489 59.2344 475.2 59.5737 473.792 59.5832C472.491 59.592 471.326 59.3118 470.298 58.7427C469.271 58.1949 468.455 57.379 467.85 56.2951C467.267 55.211 466.97 53.9009 466.959 52.365ZM494.691 44.0503L494.778 57.042C494.782 57.6394 494.572 58.1528 494.149 58.5823C493.725 59.0332 493.204 59.2607 492.585 59.2648L490.665 59.2777L490.567 44.6861L494.691 44.0503ZM490.05 39.1534C490.044 38.3428 490.349 37.6047 490.963 36.9392C491.577 36.2738 492.279 35.9384 493.068 35.9331C493.666 35.929 494.158 36.1284 494.544 36.5311C494.952 36.9337 495.159 37.455 495.163 38.095C495.168 38.927 494.864 39.6651 494.25 40.3092C493.635 40.9534 492.923 41.2781 492.112 41.2836C491.536 41.2875 491.044 41.0881 490.636 40.6855C490.25 40.2828 490.054 39.7721 490.05 39.1534ZM509.338 58.1282C508.828 58.3663 507.966 58.6281 506.752 58.9136L505.985 59.1107C505.836 59.1544 505.569 59.1775 505.185 59.1801C504.716 59.1833 504.236 59.1225 503.744 58.9978C503.274 58.8729 502.867 58.6837 502.524 58.43C501.023 57.2667 500.243 55.4266 500.183 52.9096L500.157 48.9737L497.79 49.2136L497.768 45.9177L500.134 45.6458L500.102 40.8779L504.098 40.307L504.131 45.1389L509.247 44.4965L509.259 46.3844C509.263 46.8537 509.105 47.2601 508.788 47.6036C508.491 47.947 508.109 48.1415 507.64 48.1874L504.154 48.5628L504.18 52.3707C504.184 52.9894 504.284 53.554 504.479 54.0647C504.674 54.5541 504.943 54.9256 505.287 55.1793C505.394 55.2426 505.543 55.2736 505.735 55.2723C506.076 55.27 506.524 55.203 507.078 55.0713C507.653 54.9181 508.143 54.7761 508.547 54.6454L509.338 58.1282Z" fill="#6500C3"/>
</g>
<mask id="path-12-inside-2_73_655" fill="white">
<path d="M20 100H764V160H20V100Z"/>
</mask>
<path d="M20 100H764V160H20V100Z" fill="white"/>
<path d="M764 159H20V161H764V159Z" fill="#E2E8F0" mask="url(#path-12-inside-2_73_655)"/>
<g clip-path="url(#clip1_73_655)">
<path d="M55 138.676C58.8755 131.15 65.427 118.962 69.4871 121.528C74.5622 124.735 62.1052 134.605 68.103 138.676C74.1009 142.747 79.6373 117.827 85.0815 121.528C90.5258 125.229 79.8219 134.975 84.0665 138.676C87.4622 141.636 93.294 131.24 98 123.262" stroke="#6500C3" stroke-width="15.8161" stroke-linecap="round"/>
<path d="M75.9417 125.018C76.6752 125.018 77.3933 125.51 77.9446 126.419C78.4923 127.323 78.8411 128.593 78.8411 130.012C78.841 131.431 78.4923 132.7 77.9446 133.604C77.3933 134.513 76.6753 135.005 75.9417 135.005C75.208 135.005 74.49 134.513 73.9387 133.604C73.391 132.7 73.0423 131.431 73.0422 130.012C73.0422 128.593 73.391 127.323 73.9387 126.419C74.49 125.51 75.2081 125.018 75.9417 125.018Z" fill="white" stroke="#0F172A" stroke-width="0.64436"/>
<path d="M77.0688 126.951C77.4944 126.951 77.9302 127.23 78.2759 127.789C78.6185 128.342 78.8413 129.127 78.8413 130.011C78.8413 130.895 78.6185 131.68 78.2759 132.234C77.9302 132.792 77.4944 133.072 77.0688 133.072C76.6434 133.072 76.2084 132.792 75.8628 132.234C75.5201 131.68 75.2974 130.895 75.2974 130.011C75.2974 129.127 75.5201 128.342 75.8628 127.789C76.2084 127.231 76.6435 126.951 77.0688 126.951Z" fill="#0F172A" stroke="#0F172A" stroke-width="0.64436"/>
<path d="M84.3184 125.018C85.052 125.018 85.77 125.51 86.3213 126.419C86.869 127.323 87.2178 128.593 87.2178 130.012C87.2177 131.431 86.869 132.7 86.3213 133.604C85.77 134.513 85.052 135.005 84.3184 135.005C83.5848 135.005 82.8667 134.513 82.3154 133.604C81.7677 132.7 81.419 131.431 81.4189 130.012C81.4189 128.593 81.7677 127.323 82.3154 126.419C82.8667 125.51 83.5848 125.018 84.3184 125.018Z" fill="white" stroke="#0F172A" stroke-width="0.64436"/>
<path d="M85.4456 126.951C85.8711 126.951 86.3069 127.23 86.6526 127.789C86.9952 128.342 87.218 129.127 87.218 130.011C87.218 130.895 86.9953 131.68 86.6526 132.234C86.3069 132.792 85.8711 133.072 85.4456 133.072C85.0201 133.072 84.5851 132.792 84.2395 132.234C83.8968 131.68 83.6741 130.895 83.6741 130.011C83.6741 129.127 83.8968 128.342 84.2395 127.789C84.5851 127.231 85.0202 126.951 85.4456 126.951Z" fill="#0F172A" stroke="#0F172A" stroke-width="0.64436"/>
<path fill-rule="evenodd" clip-rule="evenodd" d="M184.488 126.381C186.227 126.369 187.632 124.985 187.621 123.297C187.609 121.557 186.185 120.152 184.446 120.164C182.757 120.175 181.392 121.599 181.404 123.338C181.415 125.027 182.799 126.393 184.488 126.381Z" fill="#6500C3"/>
<path fill-rule="evenodd" clip-rule="evenodd" d="M187.561 134.571C187.264 133.565 186.45 132.368 184.262 132.383C182.573 132.394 181.205 133.778 181.216 135.467C181.227 137.049 182.432 138.349 183.989 138.498L184.014 142.251L184.491 141.947C186.98 140.366 188.184 136.683 187.561 134.571Z" fill="#6500C3"/>
<path d="M124.33 129.657C123.643 128.937 122.787 128.58 121.763 128.587C120.398 128.596 119.408 128.944 118.794 129.631C118.18 130.318 117.876 131.205 117.884 132.293C117.89 133.296 118.173 134.104 118.732 134.719C119.291 135.334 120.168 135.638 121.362 135.63C121.938 135.626 122.492 135.505 123.024 135.266C123.556 135.028 124.001 134.694 124.361 134.265L124.33 129.657ZM114.045 132.479C114.036 131.135 114.283 129.885 114.788 128.73C115.292 127.574 116.011 126.631 116.945 125.899C117.9 125.146 119.006 124.712 120.264 124.597C120.904 124.55 121.587 124.684 122.315 124.999C123.063 125.293 123.728 125.725 124.308 126.298L124.265 119.962L128.645 119.42L128.767 137.468C128.77 138.001 128.581 138.461 128.2 138.848C127.819 139.256 127.351 139.461 126.796 139.465L124.396 139.481L124.384 137.625C123.897 138.226 123.292 138.721 122.57 139.11C121.868 139.498 121.166 139.695 120.462 139.7C119.203 139.708 118.081 139.385 117.095 138.73C116.131 138.097 115.378 137.238 114.838 136.153C114.318 135.048 114.054 133.823 114.045 132.479ZM138.066 127.933C137.106 127.94 136.298 128.318 135.641 129.069C135.006 129.82 134.693 130.825 134.702 132.084C134.709 133.236 134.982 134.13 135.52 134.766C136.079 135.403 136.785 135.718 137.638 135.712C138.598 135.706 139.396 135.338 140.031 134.608C140.666 133.878 140.979 132.874 140.971 131.594C140.963 130.42 140.679 129.516 140.12 128.879C139.583 128.243 138.898 127.928 138.066 127.933ZM130.959 132.365C130.949 130.829 131.228 129.472 131.796 128.295C132.386 127.118 133.19 126.174 134.209 125.463C135.228 124.752 136.388 124.296 137.688 124.096C138.114 124.029 138.509 123.994 138.871 123.992C140.109 123.983 141.22 124.253 142.205 124.801C143.211 125.349 144.006 126.165 144.589 127.249C145.173 128.333 145.47 129.665 145.48 131.243C145.492 132.971 145.15 134.467 144.454 135.73C143.78 136.972 142.848 137.917 141.657 138.565C140.489 139.234 139.2 139.574 137.792 139.583C136.491 139.592 135.326 139.312 134.298 138.743C133.271 138.195 132.455 137.379 131.85 136.295C131.267 135.211 130.97 133.901 130.959 132.365ZM158.691 124.05L158.778 137.042C158.782 137.639 158.572 138.153 158.149 138.582C157.725 139.033 157.204 139.261 156.585 139.265L154.665 139.278L154.567 124.686L158.691 124.05ZM154.05 119.153C154.044 118.343 154.349 117.605 154.963 116.939C155.577 116.274 156.279 115.938 157.068 115.933C157.666 115.929 158.158 116.128 158.544 116.531C158.952 116.934 159.159 117.455 159.163 118.095C159.168 118.927 158.864 119.665 158.25 120.309C157.635 120.953 156.923 121.278 156.112 121.284C155.536 121.287 155.044 121.088 154.636 120.686C154.25 120.283 154.054 119.772 154.05 119.153ZM173.338 138.128C172.828 138.366 171.966 138.628 170.752 138.914L169.985 139.111C169.836 139.154 169.569 139.178 169.185 139.18C168.716 139.183 168.236 139.122 167.744 138.998C167.274 138.873 166.867 138.684 166.524 138.43C165.023 137.267 164.243 135.427 164.183 132.91L164.157 128.974L161.79 129.214L161.768 125.918L164.134 125.646L164.102 120.878L168.098 120.307L168.131 125.139L173.247 124.496L173.259 126.384C173.263 126.854 173.105 127.26 172.788 127.604C172.491 127.947 172.109 128.142 171.64 128.187L168.154 128.563L168.18 132.371C168.184 132.989 168.284 133.554 168.479 134.065C168.674 134.554 168.943 134.926 169.287 135.179C169.394 135.243 169.543 135.274 169.735 135.272C170.076 135.27 170.524 135.203 171.078 135.071C171.653 134.918 172.143 134.776 172.547 134.645L173.338 138.128Z" fill="#6500C3"/>
</g>
<mask id="path-22-inside-3_73_655" fill="white">
<path d="M20 180H395V240H20V180Z"/>
</mask>
<path d="M20 180H395V240H20V180Z" fill="white"/>
<path d="M395 239H20V241H395V239Z" fill="#E2E8F0" mask="url(#path-22-inside-3_73_655)"/>
<path d="M50 217.39C53.8755 209.865 60.427 197.676 64.4871 200.242C69.5622 203.45 57.1052 213.319 63.103 217.39C69.1009 221.461 74.6373 196.541 80.0815 200.242C85.5258 203.943 74.8219 213.689 79.0665 217.39C82.4622 220.351 88.294 209.954 93 201.976" stroke="#6500C3" stroke-width="15.8161" stroke-linecap="round"/>
<path d="M70.9417 203.732C71.6752 203.732 72.3933 204.224 72.9446 205.134C73.4923 206.037 73.8411 207.307 73.8411 208.726C73.841 210.145 73.4923 211.415 72.9446 212.318C72.3933 213.228 71.6753 213.72 70.9417 213.72C70.208 213.72 69.49 213.228 68.9387 212.318C68.391 211.415 68.0423 210.145 68.0422 208.726C68.0422 207.307 68.391 206.037 68.9387 205.134C69.49 204.224 70.2081 203.732 70.9417 203.732Z" fill="white" stroke="#0F172A" stroke-width="0.64436"/>
<path d="M72.0688 205.665C72.4944 205.665 72.9302 205.945 73.2759 206.503C73.6185 207.057 73.8413 207.842 73.8413 208.726C73.8413 209.61 73.6185 210.395 73.2759 210.948C72.9302 211.507 72.4944 211.786 72.0688 211.786C71.6434 211.786 71.2084 211.507 70.8628 210.948C70.5201 210.395 70.2974 209.61 70.2974 208.726C70.2974 207.842 70.5201 207.057 70.8628 206.503C71.2084 205.945 71.6435 205.665 72.0688 205.665Z" fill="#0F172A" stroke="#0F172A" stroke-width="0.64436"/>
<path d="M79.3184 203.732C80.052 203.732 80.77 204.224 81.3213 205.134C81.869 206.037 82.2178 207.307 82.2178 208.726C82.2177 210.145 81.869 211.415 81.3213 212.318C80.77 213.228 80.052 213.72 79.3184 213.72C78.5848 213.72 77.8667 213.228 77.3154 212.318C76.7677 211.415 76.419 210.145 76.4189 208.726C76.4189 207.307 76.7677 206.037 77.3154 205.134C77.8667 204.224 78.5848 203.732 79.3184 203.732Z" fill="white" stroke="#0F172A" stroke-width="0.64436"/>
<path d="M80.4456 205.665C80.8711 205.665 81.3069 205.945 81.6526 206.503C81.9952 207.057 82.218 207.842 82.218 208.726C82.218 209.61 81.9953 210.395 81.6526 210.948C81.3069 211.507 80.8711 211.786 80.4456 211.786C80.0201 211.786 79.5851 211.507 79.2395 210.948C78.8968 210.395 78.6741 209.61 78.6741 208.726C78.6741 207.842 78.8968 207.057 79.2395 206.503C79.5851 205.945 80.0202 205.665 80.4456 205.665Z" fill="#0F172A" stroke="#0F172A" stroke-width="0.64436"/>
<defs>
<clipPath id="clip0_73_655">
<rect width="151" height="40" fill="white" transform="translate(380 30)"/>
</clipPath>
<clipPath id="clip1_73_655">
<rect width="151" height="40" fill="white" transform="translate(44 110)"/>
</clipPath>
</defs>
</svg>
