<svg width="191" height="140" viewBox="0 0 191 140" fill="none" xmlns="http://www.w3.org/2000/svg">
<rect x="0.5" y="0.5" width="190" height="139" rx="4.5" stroke="#9747FF" stroke-dasharray="10 5"/>
<g clip-path="url(#clip0_95_712)">
<path d="M31 48.6755C34.8755 41.1502 41.427 28.9616 45.4871 31.5276C50.5622 34.7352 38.1052 44.6044 44.103 48.6755C50.1009 52.7466 55.6373 27.8266 61.0815 31.5276C66.5258 35.2286 55.8219 44.9745 60.0665 48.6755C63.4622 51.6363 69.294 41.2394 74 33.2617" stroke="#6500C3" stroke-width="15.8161" stroke-linecap="round"/>
<path d="M51.9416 35.0176C52.6752 35.0176 53.3932 35.5094 53.9445 36.4189C54.4923 37.3227 54.841 38.5927 54.841 40.0117C54.8409 41.4306 54.4922 42.6998 53.9445 43.6035C53.3932 44.5131 52.6752 45.0049 51.9416 45.0049C51.208 45.0048 50.49 44.5131 49.9387 43.6035C49.391 42.6998 49.0422 41.4306 49.0422 40.0117C49.0422 38.5927 49.3909 37.3227 49.9387 36.4189C50.4899 35.5094 51.208 35.0176 51.9416 35.0176Z" fill="white" stroke="#0F172A" stroke-width="0.64436"/>
<path d="M53.0689 36.9507C53.4945 36.9507 53.9302 37.2303 54.2759 37.7886C54.6186 38.3421 54.8414 39.1273 54.8414 40.0112C54.8414 40.8952 54.6186 41.6803 54.2759 42.2339C53.9302 42.7923 53.4945 43.0718 53.0689 43.0718C52.6435 43.0716 52.2084 42.792 51.8629 42.2339C51.5202 41.6803 51.2974 40.8952 51.2974 40.0112C51.2974 39.1273 51.5202 38.3421 51.8629 37.7886C52.2084 37.2305 52.6435 36.9509 53.0689 36.9507Z" fill="#0F172A" stroke="#0F172A" stroke-width="0.64436"/>
<path d="M60.3183 35.0176C61.0519 35.0176 61.7699 35.5094 62.3212 36.4189C62.869 37.3227 63.2177 38.5927 63.2177 40.0117C63.2176 41.4306 62.8689 42.6998 62.3212 43.6035C61.7699 44.5131 61.0519 45.0049 60.3183 45.0049C59.5847 45.0048 58.8667 44.5131 58.3154 43.6035C57.7677 42.6998 57.419 41.4306 57.4189 40.0117C57.4189 38.5927 57.7676 37.3227 58.3154 36.4189C58.8667 35.5094 59.5847 35.0176 60.3183 35.0176Z" fill="white" stroke="#0F172A" stroke-width="0.64436"/>
<path d="M61.4456 36.9507C61.8712 36.9507 62.3069 37.2303 62.6526 37.7886C62.9953 38.3421 63.2181 39.1273 63.2181 40.0112C63.2181 40.8952 62.9953 41.6803 62.6526 42.2339C62.3069 42.7923 61.8712 43.0718 61.4456 43.0718C61.0202 43.0716 60.5852 42.792 60.2396 42.2339C59.8969 41.6803 59.6741 40.8952 59.6741 40.0112C59.6741 39.1273 59.8969 38.3421 60.2396 37.7886C60.5851 37.2305 61.0202 36.9509 61.4456 36.9507Z" fill="#0F172A" stroke="#0F172A" stroke-width="0.64436"/>
<path fill-rule="evenodd" clip-rule="evenodd" d="M160.487 36.3814C162.227 36.3697 163.632 34.9854 163.621 33.2968C163.609 31.5577 162.185 30.1525 160.446 30.1642C158.757 30.1756 157.392 31.5995 157.403 33.3386C157.415 35.0272 158.799 36.3928 160.487 36.3814Z" fill="#6500C3"/>
<path fill-rule="evenodd" clip-rule="evenodd" d="M163.561 44.5707C163.264 43.5648 162.45 42.3682 160.262 42.3829C158.573 42.3943 157.205 43.7784 157.216 45.467C157.227 47.0492 158.433 48.3494 159.989 48.4985L160.014 52.2507L160.491 51.947C162.98 50.3665 164.184 46.6833 163.561 44.5707Z" fill="#6500C3"/>
<path d="M100.33 39.6575C99.6426 38.9368 98.7868 38.5798 97.7629 38.5867C96.3976 38.5959 95.4079 38.9439 94.7938 39.6307C94.1797 40.3175 93.8764 41.2049 93.8837 42.2929C93.8904 43.2955 94.1732 44.1043 94.732 44.7193C95.2908 45.3342 96.1676 45.6376 97.3622 45.6296C97.9382 45.6257 98.4921 45.5047 99.0238 45.2664C99.5555 45.0282 100.001 44.6945 100.361 44.2654L100.33 39.6575ZM90.0448 42.4787C90.0358 41.1347 90.2834 39.8851 90.7877 38.7296C91.2919 37.5742 92.0109 36.6307 92.9447 35.8991C93.8996 35.146 95.0061 34.7118 96.264 34.5967C96.9037 34.5498 97.5873 34.6838 98.3147 34.9989C99.0634 35.2926 99.7277 35.7255 100.308 36.2976L100.265 29.9617L104.645 29.4202L104.767 47.4678C104.77 48.0012 104.581 48.4611 104.2 48.8477C103.819 49.2556 103.351 49.4614 102.796 49.4651L100.396 49.4813L100.384 47.6253C99.897 48.2259 99.2924 48.7207 98.5696 49.1095C97.8682 49.4983 97.1655 49.695 96.4615 49.6997C95.2029 49.7082 94.0807 49.3851 93.095 48.7304C92.1307 48.0968 91.3782 47.2379 90.8376 46.1535C90.3181 45.0476 90.0539 43.8227 90.0448 42.4787ZM114.066 37.9331C113.106 37.9396 112.298 38.3183 111.641 39.0694C111.006 39.8204 110.693 40.8252 110.702 42.0838C110.709 43.2358 110.982 44.13 111.52 44.7664C112.079 45.4026 112.785 45.7179 113.638 45.7121C114.598 45.7057 115.396 45.3377 116.031 44.608C116.666 43.8784 116.979 42.8736 116.971 41.5936C116.963 40.4203 116.679 39.5156 116.12 38.8793C115.583 38.2429 114.898 37.9275 114.066 37.9331ZM106.959 42.365C106.949 40.829 107.228 39.4724 107.796 38.2953C108.386 37.1179 109.19 36.1738 110.209 35.463C111.228 34.7521 112.388 34.2963 113.688 34.0956C114.114 34.0287 114.509 33.994 114.871 33.9916C116.109 33.9833 117.22 34.2531 118.205 34.8012C119.211 35.3491 120.006 36.1651 120.589 37.2492C121.173 38.3333 121.47 39.6647 121.48 41.2433C121.492 42.9713 121.15 44.4669 120.454 45.7303C119.78 46.9722 118.848 47.9172 117.657 48.5652C116.489 49.2344 115.2 49.5737 113.792 49.5832C112.491 49.592 111.326 49.3118 110.298 48.7427C109.271 48.1949 108.455 47.379 107.85 46.2951C107.267 45.211 106.97 43.9009 106.959 42.365ZM134.691 34.0503L134.778 47.042C134.782 47.6394 134.572 48.1528 134.149 48.5823C133.725 49.0332 133.204 49.2607 132.585 49.2648L130.665 49.2777L130.567 34.6861L134.691 34.0503ZM130.05 29.1534C130.044 28.3428 130.349 27.6047 130.963 26.9392C131.577 26.2738 132.279 25.9384 133.068 25.9331C133.666 25.929 134.158 26.1284 134.544 26.5311C134.952 26.9337 135.159 27.455 135.163 28.095C135.168 28.927 134.864 29.6651 134.25 30.3092C133.635 30.9534 132.923 31.2781 132.112 31.2836C131.536 31.2875 131.044 31.0881 130.636 30.6855C130.25 30.2828 130.054 29.7721 130.05 29.1534ZM149.338 48.1282C148.828 48.3663 147.966 48.6281 146.752 48.9136L145.985 49.1107C145.836 49.1544 145.569 49.1775 145.185 49.1801C144.716 49.1833 144.236 49.1225 143.744 48.9978C143.274 48.8729 142.867 48.6837 142.524 48.43C141.023 47.2667 140.243 45.4266 140.183 42.9096L140.157 38.9737L137.79 39.2136L137.768 35.9177L140.134 35.6458L140.102 30.8779L144.098 30.307L144.131 35.1389L149.247 34.4965L149.259 36.3844C149.263 36.8537 149.105 37.2601 148.788 37.6036C148.491 37.947 148.109 38.1415 147.64 38.1874L144.154 38.5628L144.18 42.3707C144.184 42.9894 144.284 43.554 144.479 44.0647C144.674 44.5541 144.943 44.9256 145.287 45.1793C145.394 45.2426 145.543 45.2736 145.735 45.2723C146.076 45.27 146.524 45.203 147.078 45.0713C147.653 44.9181 148.143 44.7761 148.547 44.6454L149.338 48.1282Z" fill="#6500C3"/>
</g>
<path d="M34 107.675C37.8755 100.15 44.427 87.9616 48.4871 90.5276C53.5622 93.7352 41.1052 103.604 47.103 107.675C53.1009 111.747 58.6373 86.8266 64.0815 90.5276C69.5258 94.2286 58.8219 103.974 63.0665 107.675C66.4622 110.636 72.294 100.239 77 92.2617" stroke="#6500C3" stroke-width="15.8161" stroke-linecap="round"/>
<path d="M54.9416 94.0177C55.6752 94.0177 56.3932 94.5095 56.9445 95.4191C57.4923 96.3228 57.841 97.5928 57.841 99.0118C57.8409 100.431 57.4922 101.7 56.9445 102.604C56.3932 103.513 55.6752 104.005 54.9416 104.005C54.208 104.005 53.49 103.513 52.9387 102.604C52.391 101.7 52.0422 100.431 52.0422 99.0118C52.0422 97.5928 52.3909 96.3228 52.9387 95.4191C53.4899 94.5095 54.208 94.0178 54.9416 94.0177Z" fill="white" stroke="#0F172A" stroke-width="0.64436"/>
<path d="M56.0689 95.9507C56.4945 95.9507 56.9302 96.2303 57.2759 96.7886C57.6186 97.3421 57.8414 98.1273 57.8414 99.0112C57.8414 99.8952 57.6186 100.68 57.2759 101.234C56.9302 101.792 56.4945 102.072 56.0689 102.072C55.6435 102.072 55.2084 101.792 54.8629 101.234C54.5202 100.68 54.2974 99.8952 54.2974 99.0112C54.2974 98.1273 54.5202 97.3421 54.8629 96.7886C55.2084 96.2305 55.6435 95.9509 56.0689 95.9507Z" fill="#0F172A" stroke="#0F172A" stroke-width="0.64436"/>
<path d="M63.3183 94.0177C64.0519 94.0177 64.7699 94.5095 65.3212 95.4191C65.869 96.3228 66.2177 97.5928 66.2177 99.0118C66.2176 100.431 65.8689 101.7 65.3212 102.604C64.7699 103.513 64.0519 104.005 63.3183 104.005C62.5847 104.005 61.8667 103.513 61.3154 102.604C60.7677 101.7 60.419 100.431 60.4189 99.0118C60.4189 97.5928 60.7676 96.3228 61.3154 95.4191C61.8667 94.5095 62.5847 94.0178 63.3183 94.0177Z" fill="white" stroke="#0F172A" stroke-width="0.64436"/>
<path d="M64.4456 95.9507C64.8712 95.9507 65.3069 96.2303 65.6526 96.7886C65.9953 97.3421 66.2181 98.1273 66.2181 99.0112C66.2181 99.8952 65.9953 100.68 65.6526 101.234C65.3069 101.792 64.8712 102.072 64.4456 102.072C64.0202 102.072 63.5852 101.792 63.2396 101.234C62.8969 100.68 62.6741 99.8952 62.6741 99.0112C62.6741 98.1273 62.8969 97.3421 63.2396 96.7886C63.5851 96.2305 64.0202 95.9509 64.4456 95.9507Z" fill="#0F172A" stroke="#0F172A" stroke-width="0.64436"/>
<defs>
<clipPath id="clip0_95_712">
<rect width="151" height="40" fill="white" transform="translate(20 20)"/>
</clipPath>
</defs>
</svg>
