<svg width="1040" height="248" viewBox="0 0 1040 248" fill="none" xmlns="http://www.w3.org/2000/svg">
<rect x="0.5" y="0.5" width="1039" height="247" rx="4.5" stroke="#9747FF" stroke-dasharray="10 5"/>
<rect x="25" y="24.5" width="994" height="50.5" rx="23" fill="#0F172A" stroke="#0F172A" stroke-width="2"/>
<rect x="21" y="21" width="994" height="50.5" rx="23" fill="#F1F5F9" stroke="#0F172A" stroke-width="2"/>
<path d="M56.5328 47.32V50.744H48.8208V52.264H56.9168V53.224H47.7168V49.8H55.4288V48.296H47.6368V47.32H56.5328ZM49.3808 46.312C48.8154 46.312 48.3248 46.2533 47.9088 46.136C47.4928 46.008 47.1461 45.848 46.8688 45.656C46.5914 45.4533 46.3834 45.2187 46.2448 44.952C46.1061 44.6853 46.0368 44.408 46.0368 44.12V43.736C46.0368 43.448 46.1061 43.1707 46.2448 42.904C46.3834 42.6373 46.5914 42.408 46.8688 42.216C47.1461 42.0133 47.4928 41.8533 47.9088 41.736C48.3248 41.608 48.8154 41.544 49.3808 41.544C49.9461 41.544 50.4368 41.608 50.8528 41.736C51.2688 41.8533 51.6154 42.0133 51.8928 42.216C52.1701 42.4187 52.3781 42.6533 52.5168 42.92C52.6554 43.176 52.7248 43.448 52.7248 43.736V44.12C52.7248 44.408 52.6554 44.6853 52.5168 44.952C52.3781 45.2187 52.1701 45.4533 51.8928 45.656C51.6154 45.848 51.2688 46.008 50.8528 46.136C50.4368 46.2533 49.9461 46.312 49.3808 46.312ZM56.5328 42.024H58.7728V43.016H56.5328V46.456H55.4128V38.552H56.5328V42.024ZM49.3808 42.488C49.0074 42.488 48.6768 42.5253 48.3888 42.6C48.1114 42.6747 47.8768 42.776 47.6848 42.904C47.5034 43.0213 47.3648 43.1547 47.2688 43.304C47.1728 43.4533 47.1248 43.608 47.1248 43.768V44.088C47.1248 44.248 47.1728 44.4027 47.2688 44.552C47.3648 44.7013 47.5034 44.84 47.6848 44.968C47.8768 45.0853 48.1114 45.1813 48.3888 45.256C48.6768 45.3307 49.0074 45.368 49.3808 45.368C49.7541 45.368 50.0794 45.3307 50.3568 45.256C50.6448 45.1813 50.8794 45.0853 51.0608 44.968C51.2528 44.84 51.3968 44.7013 51.4928 44.552C51.5888 44.4027 51.6368 44.248 51.6368 44.088V43.768C51.6368 43.608 51.5888 43.4533 51.4928 43.304C51.3968 43.1547 51.2528 43.0213 51.0608 42.904C50.8794 42.776 50.6448 42.6747 50.3568 42.6C50.0794 42.5253 49.7541 42.488 49.3808 42.488ZM49.9408 39.88H53.6208V40.856H45.1888V39.88H48.8208V38.248H49.9408V39.88ZM75.6713 46.616V50.392H67.8313V52.264H76.0553V53.224H66.7273V49.448H74.5673V47.592H66.6473V46.616H75.6713ZM75.6713 45.752H74.5513V38.552H75.6713V45.752ZM67.8473 45.384C67.3246 45.384 66.8446 45.304 66.4073 45.144C65.9699 44.984 65.5913 44.7707 65.2713 44.504C64.9619 44.2373 64.7166 43.928 64.5353 43.576C64.3646 43.224 64.2793 42.856 64.2793 42.472V41.768C64.2793 41.384 64.3646 41.016 64.5353 40.664C64.7166 40.312 64.9619 40.0027 65.2713 39.736C65.5913 39.4693 65.9699 39.256 66.4073 39.096C66.8446 38.936 67.3246 38.856 67.8473 38.856C68.3699 38.856 68.8499 38.936 69.2873 39.096C69.7246 39.256 70.0979 39.4693 70.4073 39.736C70.7273 40.0027 70.9726 40.312 71.1433 40.664C71.3246 41.016 71.4153 41.384 71.4153 41.768V42.472C71.4153 42.856 71.3246 43.224 71.1433 43.576C70.9726 43.928 70.7273 44.2373 70.4073 44.504C70.0979 44.7707 69.7246 44.984 69.2873 45.144C68.8499 45.304 68.3699 45.384 67.8473 45.384ZM67.8473 39.864C67.4846 39.864 67.1486 39.9173 66.8393 40.024C66.5406 40.1307 66.2793 40.2747 66.0553 40.456C65.8419 40.6373 65.6713 40.8507 65.5433 41.096C65.4259 41.3413 65.3673 41.5973 65.3673 41.864V42.376C65.3673 42.6533 65.4259 42.9147 65.5433 43.16C65.6713 43.3947 65.8419 43.6027 66.0553 43.784C66.2793 43.9653 66.5406 44.1093 66.8393 44.216C67.1486 44.3227 67.4846 44.376 67.8473 44.376C68.2099 44.376 68.5406 44.3227 68.8393 44.216C69.1486 44.1093 69.4099 43.9653 69.6233 43.784C69.8473 43.6027 70.0179 43.3947 70.1353 43.16C70.2633 42.9147 70.3273 42.6533 70.3273 42.376V41.864C70.3273 41.5973 70.2633 41.3413 70.1353 41.096C70.0179 40.8507 69.8473 40.6373 69.6233 40.456C69.4099 40.2747 69.1486 40.1307 68.8393 40.024C68.5406 39.9173 68.2099 39.864 67.8473 39.864ZM91.5938 45.096V46.056H78.1538V45.096H91.5938ZM89.4498 41.592C89.4498 41.9653 89.3324 42.3013 89.0978 42.6C88.8631 42.8987 88.5378 43.1547 88.1218 43.368C87.7164 43.5707 87.2311 43.7307 86.6658 43.848C86.1111 43.9547 85.5138 44.008 84.8738 44.008C84.2338 44.008 83.6311 43.9547 83.0658 43.848C82.5111 43.7307 82.0258 43.5707 81.6098 43.368C81.2044 43.1547 80.8844 42.8987 80.6498 42.6C80.4151 42.3013 80.2978 41.9653 80.2978 41.592V41.112C80.2978 40.728 80.4151 40.3867 80.6498 40.088C80.8844 39.7893 81.2044 39.5387 81.6098 39.336C82.0258 39.1227 82.5111 38.9627 83.0658 38.856C83.6311 38.7493 84.2338 38.696 84.8738 38.696C85.5138 38.696 86.1111 38.7547 86.6658 38.872C87.2311 38.9787 87.7164 39.1387 88.1218 39.352C88.5378 39.5547 88.8631 39.8053 89.0978 40.104C89.3324 40.4027 89.4498 40.7387 89.4498 41.112V41.592ZM81.4018 41.544C81.4018 41.7573 81.4924 41.96 81.6738 42.152C81.8551 42.3333 82.1004 42.4933 82.4098 42.632C82.7298 42.7707 83.0978 42.8773 83.5138 42.952C83.9404 43.0267 84.3938 43.064 84.8738 43.064C85.3538 43.064 85.8018 43.0267 86.2178 42.952C86.6444 42.8773 87.0124 42.7707 87.3218 42.632C87.6418 42.4933 87.8924 42.3333 88.0738 42.152C88.2551 41.96 88.3458 41.7573 88.3458 41.544V41.16C88.3458 40.9467 88.2551 40.7493 88.0738 40.568C87.8924 40.376 87.6418 40.216 87.3218 40.088C87.0124 39.9493 86.6444 39.8427 86.2178 39.768C85.8018 39.6827 85.3538 39.64 84.8738 39.64C84.3938 39.64 83.9404 39.6827 83.5138 39.768C83.0978 39.8427 82.7298 39.9493 82.4098 40.088C82.1004 40.216 81.8551 40.376 81.6738 40.568C81.4924 40.7493 81.4018 40.9467 81.4018 41.16V41.544ZM89.5938 47.336V50.744H81.2738V52.296H90.0258V53.24H80.1698V49.816H88.4898V48.28H80.0898V47.336H89.5938ZM108.796 46.888V53.16H99.8683V46.888H100.972V48.904H107.692V46.888H108.796ZM97.4043 42.008C97.4043 41.6453 97.4896 41.288 97.6603 40.936C97.8309 40.584 98.0709 40.2747 98.3803 40.008C98.7003 39.7307 99.0789 39.512 99.5163 39.352C99.9536 39.1813 100.439 39.096 100.972 39.096C101.506 39.096 101.991 39.1813 102.428 39.352C102.866 39.512 103.239 39.7307 103.548 40.008C103.868 40.2747 104.114 40.584 104.284 40.936C104.455 41.288 104.54 41.6453 104.54 42.008V42.776C104.54 43.1493 104.455 43.512 104.284 43.864C104.114 44.2053 103.868 44.5147 103.548 44.792C103.239 45.0587 102.866 45.2773 102.428 45.448C101.991 45.608 101.506 45.688 100.972 45.688C100.439 45.688 99.9536 45.608 99.5163 45.448C99.0789 45.2773 98.7003 45.0587 98.3803 44.792C98.0709 44.5147 97.8309 44.2053 97.6603 43.864C97.4896 43.512 97.4043 43.1493 97.4043 42.776V42.008ZM103.452 42.12C103.452 41.8533 103.388 41.6027 103.26 41.368C103.143 41.1227 102.972 40.9093 102.748 40.728C102.524 40.536 102.258 40.3867 101.948 40.28C101.65 40.1627 101.324 40.104 100.972 40.104C100.62 40.104 100.29 40.1627 99.9803 40.28C99.6816 40.3867 99.4203 40.536 99.1963 40.728C98.9723 40.9093 98.7963 41.1227 98.6683 41.368C98.5509 41.6027 98.4923 41.8533 98.4923 42.12V42.664C98.4923 42.9307 98.5509 43.1867 98.6683 43.432C98.7963 43.6667 98.9723 43.88 99.1963 44.072C99.4203 44.2533 99.6816 44.4027 99.9803 44.52C100.29 44.6267 100.62 44.68 100.972 44.68C101.324 44.68 101.65 44.6267 101.948 44.52C102.258 44.4027 102.524 44.2533 102.748 44.072C102.972 43.88 103.143 43.6667 103.26 43.432C103.388 43.1867 103.452 42.9307 103.452 42.664V42.12ZM107.692 52.152V49.896H100.972V52.152H107.692ZM108.796 46.024H107.676V38.552H108.796V46.024ZM113.327 45.704C114.009 45.704 114.655 45.704 115.263 45.704C115.871 45.6933 116.447 45.6827 116.991 45.672C117.535 45.6507 118.057 45.624 118.559 45.592C119.06 45.5493 119.556 45.5013 120.047 45.448L120.159 46.424C119.668 46.4773 119.167 46.5253 118.655 46.568C118.143 46.6 117.577 46.6267 116.959 46.648C116.351 46.6693 115.663 46.6853 114.895 46.696C114.127 46.696 113.236 46.696 112.223 46.696V42.488H117.071V40.248H112.223V39.256H118.175V43.448H113.327V45.704ZM122.351 40.6V38.552H123.455V47.48H122.351V44.152H119.295V43.176H122.351V41.576H119.295V40.6H122.351ZM114.047 48.344H123.455V53.304H122.351V49.336H114.047V48.344ZM135.377 44.152H137.425V38.552H138.545V53.176H137.425V45.16H135.377V52.456H134.257V38.856H135.377V44.152ZM129.633 49.448C129.121 49.448 128.668 49.368 128.273 49.208C127.879 49.0373 127.543 48.8187 127.265 48.552C126.999 48.2853 126.796 47.9813 126.657 47.64C126.519 47.2987 126.449 46.9467 126.449 46.584V45.912C126.449 45.5493 126.519 45.1973 126.657 44.856C126.796 44.5147 126.999 44.2107 127.265 43.944C127.543 43.6773 127.879 43.464 128.273 43.304C128.668 43.1333 129.121 43.048 129.633 43.048C130.145 43.048 130.599 43.1333 130.993 43.304C131.388 43.464 131.719 43.6773 131.985 43.944C132.263 44.2107 132.471 44.5147 132.609 44.856C132.748 45.1973 132.817 45.5493 132.817 45.912V46.584C132.817 46.936 132.748 47.288 132.609 47.64C132.471 47.9813 132.263 48.2853 131.985 48.552C131.719 48.8187 131.388 49.0373 130.993 49.208C130.599 49.368 130.145 49.448 129.633 49.448ZM129.633 44.04C129.313 44.04 129.02 44.0987 128.753 44.216C128.497 44.3227 128.273 44.4667 128.081 44.648C127.9 44.8293 127.761 45.0373 127.665 45.272C127.569 45.5067 127.521 45.7467 127.521 45.992V46.504C127.521 46.7493 127.569 46.9893 127.665 47.224C127.761 47.4587 127.9 47.6667 128.081 47.848C128.273 48.0293 128.497 48.1787 128.753 48.296C129.02 48.4027 129.313 48.456 129.633 48.456C129.953 48.456 130.241 48.4027 130.497 48.296C130.764 48.1787 130.988 48.0293 131.169 47.848C131.361 47.6667 131.505 47.4587 131.601 47.224C131.697 46.9893 131.745 46.7493 131.745 46.504V45.992C131.745 45.7467 131.697 45.5067 131.601 45.272C131.505 45.0373 131.361 44.8293 131.169 44.648C130.988 44.4667 130.764 44.3227 130.497 44.216C130.241 44.0987 129.953 44.04 129.633 44.04ZM125.889 41.112H129.057V38.968H130.177V41.112H133.137V42.104H125.889V41.112ZM149.012 44.024C147.945 43.4907 147.321 43.0427 147.14 42.68H147.124C146.953 43.0427 146.329 43.496 145.252 44.04C144.814 44.2533 144.318 44.4933 143.764 44.76C143.209 45.016 142.596 45.272 141.924 45.528L141.428 44.632C142.025 44.408 142.622 44.1627 143.22 43.896C143.817 43.6293 144.372 43.3627 144.884 43.096C145.268 42.8933 145.572 42.7013 145.796 42.52C146.02 42.328 146.185 42.136 146.292 41.944C146.409 41.7413 146.484 41.528 146.516 41.304C146.548 41.08 146.564 40.8347 146.564 40.568V40.424H142.132V39.464H152.116V40.424H147.7V40.568C147.7 40.8347 147.71 41.08 147.732 41.304C147.764 41.528 147.833 41.7413 147.94 41.944C148.057 42.136 148.228 42.328 148.452 42.52C148.676 42.7013 148.98 42.8933 149.364 43.096C149.876 43.3627 150.425 43.6293 151.012 43.896C151.598 44.152 152.19 44.392 152.788 44.616L152.308 45.496C151.7 45.2613 151.113 45.016 150.548 44.76C149.993 44.504 149.481 44.2587 149.012 44.024ZM153.844 46.968V47.944H147.7V53.176H146.564V47.944H140.404V46.968H153.844ZM163.574 43.448V38.856H164.694V52.456H163.574V44.472H160.902V43.448H163.574ZM158.022 39.72H159.158V43C159.158 43.384 159.169 43.7147 159.19 43.992C159.222 44.2587 159.276 44.504 159.35 44.728C159.425 44.952 159.526 45.1707 159.654 45.384C159.782 45.5973 159.948 45.832 160.15 46.088C160.417 46.4293 160.737 46.808 161.11 47.224C161.494 47.64 161.916 48.072 162.374 48.52L161.622 49.256C161.217 48.8507 160.828 48.44 160.454 48.024C160.092 47.608 159.772 47.2453 159.494 46.936C159.249 46.6587 159.046 46.408 158.886 46.184C158.737 45.9493 158.646 45.7893 158.614 45.704H158.598C158.577 45.7893 158.497 45.9387 158.358 46.152C158.22 46.3653 158.028 46.6213 157.782 46.92C157.484 47.272 157.142 47.6507 156.758 48.056C156.385 48.4613 155.942 48.92 155.43 49.432L154.662 48.68C154.897 48.456 155.132 48.2267 155.366 47.992C155.612 47.7467 155.836 47.512 156.038 47.288C156.252 47.064 156.444 46.8507 156.614 46.648C156.796 46.4453 156.95 46.264 157.078 46.104C157.27 45.8587 157.425 45.6293 157.542 45.416C157.67 45.192 157.766 44.9627 157.83 44.728C157.905 44.4933 157.953 44.2373 157.974 43.96C158.006 43.6827 158.022 43.3627 158.022 43V39.72ZM167.558 53.176H166.438V38.552H167.558V53.176ZM171.433 42.872C171.433 42.3493 171.561 41.88 171.817 41.464C172.073 41.0373 172.419 40.6747 172.857 40.376C173.294 40.0773 173.801 39.848 174.377 39.688C174.963 39.5173 175.587 39.432 176.249 39.432C176.899 39.432 177.513 39.5173 178.089 39.688C178.675 39.848 179.187 40.0773 179.625 40.376C180.073 40.6747 180.425 41.0373 180.681 41.464C180.937 41.88 181.065 42.3493 181.065 42.872V43.656C181.065 44.2213 180.915 44.728 180.617 45.176C180.318 45.624 179.918 45.9973 179.417 46.296V50.136H182.969V51.112H169.529V50.136H173.081V46.296C172.569 45.9973 172.163 45.6293 171.865 45.192C171.577 44.744 171.433 44.232 171.433 43.656V42.872ZM176.249 40.472C175.726 40.472 175.241 40.536 174.793 40.664C174.345 40.7813 173.955 40.9467 173.625 41.16C173.294 41.3733 173.033 41.6293 172.841 41.928C172.649 42.2267 172.553 42.5573 172.553 42.92V43.608C172.553 43.9707 172.649 44.3013 172.841 44.6C173.033 44.8987 173.294 45.16 173.625 45.384C173.955 45.5973 174.345 45.7627 174.793 45.88C175.241 45.9973 175.726 46.056 176.249 46.056C176.761 46.056 177.241 45.9973 177.689 45.88C178.147 45.7627 178.542 45.5973 178.873 45.384C179.203 45.16 179.465 44.8987 179.657 44.6C179.849 44.3013 179.945 43.9707 179.945 43.608V42.92C179.945 42.5573 179.849 42.2267 179.657 41.928C179.465 41.6293 179.203 41.3733 178.873 41.16C178.542 40.9467 178.147 40.7813 177.689 40.664C177.241 40.536 176.761 40.472 176.249 40.472ZM176.249 47.096C175.875 47.096 175.518 47.0693 175.177 47.016C174.835 46.9627 174.51 46.888 174.201 46.792V50.136H178.297V46.792C177.987 46.8987 177.657 46.9787 177.305 47.032C176.963 47.0747 176.611 47.096 176.249 47.096Z" fill="#64748B"/>
<rect x="25" y="100.5" width="994" height="50.5" rx="23" fill="#0F172A" stroke="#0F172A" stroke-width="2"/>
<rect x="21" y="97" width="994" height="50.5" rx="23" fill="#F1F5F9" stroke="#0F172A" stroke-width="2"/>
<path d="M56.672 129.176H55.536V114.552H56.672V129.176ZM52.4 125.304H45.68V115.752H46.8V119.368H51.28V115.752H52.4V125.304ZM46.8 124.28H51.28V120.376H46.8V124.28ZM66.6265 115.736V116.744H61.0905V120.008H66.3065V121.016H61.0905V124.408H63.1385C63.8852 124.408 64.6638 124.387 65.4745 124.344C66.2852 124.291 67.1225 124.2 67.9865 124.072L68.1145 125.08C67.2505 125.219 66.3705 125.315 65.4745 125.368C64.5785 125.411 63.7038 125.432 62.8505 125.432H59.9545V115.736H66.6265ZM70.4825 120.04H72.9145V121.048H70.4825V129.176H69.3465V114.552H70.4825V120.04ZM81.269 122.36H74.677V115.464H81.269V122.36ZM80.181 116.456H75.765V121.368H80.181V116.456ZM85.765 125.016H84.645V114.552H85.765V125.016ZM77.941 128.008H86.133V129H76.805V124.216H77.941V128.008ZM104.408 123H103.288V119.096H99.7515V121.928H93.1595V115.384H99.7515V118.104H103.288V114.552H104.408V123ZM98.6795 116.376H94.2315V120.936H98.6795V116.376ZM94.9995 123.864H104.408V129.288H103.288V124.856H94.9995V123.864ZM118.842 129.176H117.706V114.552H118.842V129.176ZM107.562 124.936C108.789 124.232 109.765 123.629 110.49 123.128C111.215 122.616 111.765 122.141 112.138 121.704C112.511 121.256 112.751 120.808 112.858 120.36C112.975 119.912 113.034 119.389 113.034 118.792V116.952H107.722V115.928H114.138V118.808C114.138 119.299 114.111 119.741 114.058 120.136C114.005 120.531 113.898 120.904 113.738 121.256C113.589 121.608 113.375 121.949 113.098 122.28C112.821 122.611 112.458 122.957 112.01 123.32C111.573 123.683 111.034 124.072 110.394 124.488C109.765 124.893 109.018 125.347 108.154 125.848L107.562 124.936Z" fill="#0F172A"/>
<rect x="25" y="176.5" width="994" height="50.5" rx="23" fill="#0F172A" stroke="#0F172A" stroke-width="2"/>
<rect x="21" y="173" width="994" height="50.5" rx="23" fill="#F1F5F9" stroke="#0F172A" stroke-width="2"/>
<path d="M56.608 197.848H55.488V190.552H56.608V197.848ZM56.608 198.712V202.44H48.768V204.264H56.992V205.224H47.664V201.496H55.504V199.688H47.584V198.712H56.608ZM45.264 197.368C46.1067 197.048 46.8267 196.76 47.424 196.504C48.032 196.237 48.5387 195.992 48.944 195.768C49.36 195.533 49.6907 195.309 49.936 195.096C50.1813 194.883 50.368 194.659 50.496 194.424C50.624 194.179 50.704 193.917 50.736 193.64C50.7787 193.363 50.8 193.043 50.8 192.68V192.2H45.744V191.208H51.904V192.744C51.904 193.203 51.872 193.608 51.808 193.96C51.7547 194.312 51.6427 194.637 51.472 194.936C51.312 195.235 51.0827 195.517 50.784 195.784C50.496 196.04 50.1227 196.301 49.664 196.568C49.2053 196.824 48.6453 197.091 47.984 197.368C47.3333 197.645 46.5653 197.955 45.68 198.296L45.264 197.368ZM71.1865 205.176H70.0505V190.552H71.1865V205.176ZM67.1545 197.336C67.1545 198.68 66.8345 199.725 66.1945 200.472C65.5652 201.219 64.6798 201.592 63.5385 201.592C62.3972 201.592 61.5065 201.219 60.8665 200.472C60.2372 199.725 59.9225 198.68 59.9225 197.336V195.816C59.9225 194.472 60.2372 193.432 60.8665 192.696C61.5065 191.949 62.3972 191.576 63.5385 191.576C64.6798 191.576 65.5652 191.949 66.1945 192.696C66.8345 193.443 67.1545 194.488 67.1545 195.832V197.336ZM66.0505 196.024C66.0505 195.416 65.9865 194.899 65.8585 194.472C65.7412 194.045 65.5705 193.699 65.3465 193.432C65.1332 193.155 64.8718 192.952 64.5625 192.824C64.2532 192.696 63.9118 192.632 63.5385 192.632C63.1652 192.632 62.8238 192.696 62.5145 192.824C62.2052 192.952 61.9385 193.155 61.7145 193.432C61.5012 193.699 61.3305 194.045 61.2025 194.472C61.0852 194.899 61.0265 195.416 61.0265 196.024V197.144C61.0265 197.752 61.0852 198.275 61.2025 198.712C61.3305 199.139 61.5012 199.491 61.7145 199.768C61.9385 200.035 62.2052 200.232 62.5145 200.36C62.8238 200.488 63.1652 200.552 63.5385 200.552C63.9118 200.552 64.2532 200.488 64.5625 200.36C64.8718 200.232 65.1332 200.035 65.3465 199.768C65.5705 199.491 65.7412 199.139 65.8585 198.712C65.9865 198.275 66.0505 197.752 66.0505 197.144V196.024ZM84.981 196.136H87.413V197.144H84.981V205.176H83.845V190.552H84.981V196.136ZM74.117 200.904C74.9383 200.435 75.6423 200.013 76.229 199.64C76.8157 199.267 77.3063 198.92 77.701 198.6C78.1063 198.269 78.4317 197.96 78.677 197.672C78.9223 197.384 79.109 197.096 79.237 196.808C79.365 196.509 79.4503 196.195 79.493 195.864C79.5357 195.533 79.557 195.171 79.557 194.776V192.968H74.277V191.944H80.661V194.792C80.661 195.517 80.5917 196.152 80.453 196.696C80.325 197.229 80.053 197.752 79.637 198.264C79.221 198.765 78.6183 199.293 77.829 199.848C77.0503 200.403 76.0103 201.059 74.709 201.816L74.117 200.904ZM104.296 197.848H103.176V190.552H104.296V197.848ZM104.296 198.712V202.44H96.4555V204.264H104.68V205.224H95.3515V201.496H103.192V199.688H95.2715V198.712H104.296ZM92.9515 197.368C93.7942 197.048 94.5142 196.76 95.1115 196.504C95.7195 196.237 96.2262 195.992 96.6315 195.768C97.0475 195.533 97.3782 195.309 97.6235 195.096C97.8688 194.883 98.0555 194.659 98.1835 194.424C98.3115 194.179 98.3915 193.917 98.4235 193.64C98.4662 193.363 98.4875 193.043 98.4875 192.68V192.2H93.4315V191.208H99.5915V192.744C99.5915 193.203 99.5595 193.608 99.4955 193.96C99.4422 194.312 99.3302 194.637 99.1595 194.936C98.9995 195.235 98.7702 195.517 98.4715 195.784C98.1835 196.04 97.8102 196.301 97.3515 196.568C96.8928 196.824 96.3328 197.091 95.6715 197.368C95.0208 197.645 94.2528 197.955 93.3675 198.296L92.9515 197.368ZM118.938 205.176H117.818V196.824H114.538V197.32C114.538 198.664 114.218 199.709 113.578 200.456C112.949 201.192 112.069 201.56 110.938 201.56C109.807 201.56 108.922 201.192 108.282 200.456C107.653 199.709 107.338 198.664 107.338 197.32V195.816C107.338 194.483 107.653 193.448 108.282 192.712C108.922 191.965 109.807 191.592 110.938 191.592C112.069 191.592 112.949 191.96 113.578 192.696C114.207 193.432 114.527 194.467 114.538 195.8H117.818V190.552H118.938V205.176ZM113.434 196.024C113.434 195.416 113.375 194.899 113.258 194.472C113.141 194.045 112.97 193.699 112.746 193.432C112.533 193.155 112.271 192.957 111.962 192.84C111.653 192.712 111.311 192.648 110.938 192.648C110.565 192.648 110.223 192.712 109.914 192.84C109.605 192.957 109.338 193.155 109.114 193.432C108.901 193.699 108.735 194.045 108.618 194.472C108.501 194.899 108.442 195.416 108.442 196.024V197.128C108.442 197.736 108.501 198.259 108.618 198.696C108.735 199.123 108.901 199.475 109.114 199.752C109.338 200.019 109.605 200.216 109.914 200.344C110.223 200.461 110.565 200.52 110.938 200.52C111.311 200.52 111.653 200.461 111.962 200.344C112.271 200.216 112.533 200.019 112.746 199.752C112.97 199.475 113.141 199.123 113.258 198.696C113.375 198.259 113.434 197.736 113.434 197.128V196.024ZM133.453 198.648V202.408H125.613V204.264H133.837V205.224H124.509V201.464H132.349V199.624H124.429V198.648H133.453ZM126.173 194.92C126.13 195.112 125.741 195.512 125.005 196.12C124.855 196.237 124.679 196.371 124.477 196.52C124.285 196.669 124.077 196.829 123.853 197C123.629 197.171 123.394 197.341 123.149 197.512C122.914 197.672 122.685 197.827 122.461 197.976L121.821 197.144C122.802 196.525 123.677 195.896 124.445 195.256C124.679 195.064 124.866 194.888 125.005 194.728C125.154 194.557 125.266 194.387 125.341 194.216C125.426 194.035 125.485 193.848 125.516 193.656C125.549 193.453 125.565 193.213 125.565 192.936V192.168H122.237V191.192H129.885V192.168H126.701V192.84C126.701 193.149 126.711 193.405 126.733 193.608C126.754 193.811 126.802 193.992 126.877 194.152C126.962 194.312 127.085 194.472 127.245 194.632C127.405 194.781 127.623 194.957 127.901 195.16C128.242 195.416 128.61 195.677 129.005 195.944C129.399 196.211 129.799 196.467 130.205 196.712L129.581 197.512C129.25 197.299 128.909 197.075 128.557 196.84C128.205 196.595 127.874 196.36 127.565 196.136C127.181 195.859 126.866 195.613 126.621 195.4C126.375 195.187 126.231 195.027 126.189 194.92H126.173ZM133.453 197.784H132.333V190.552H133.453V197.784ZM147.711 199.48C148.308 199.48 148.874 199.544 149.407 199.672C149.951 199.8 150.426 199.981 150.831 200.216C151.236 200.451 151.556 200.739 151.791 201.08C152.026 201.411 152.143 201.784 152.143 202.2V202.824C152.143 203.24 152.026 203.619 151.791 203.96C151.556 204.301 151.236 204.589 150.831 204.824C150.426 205.059 149.951 205.24 149.407 205.368C148.874 205.496 148.308 205.56 147.711 205.56C147.114 205.56 146.543 205.496 145.999 205.368C145.466 205.24 144.996 205.059 144.591 204.824C144.186 204.589 143.866 204.301 143.631 203.96C143.396 203.619 143.279 203.24 143.279 202.824V202.2C143.279 201.773 143.396 201.389 143.631 201.048C143.866 200.707 144.186 200.424 144.591 200.2C144.996 199.965 145.466 199.789 145.999 199.672C146.543 199.544 147.114 199.48 147.711 199.48ZM147.711 204.6C148.138 204.6 148.548 204.557 148.943 204.472C149.348 204.397 149.706 204.28 150.015 204.12C150.335 203.971 150.586 203.784 150.767 203.56C150.959 203.336 151.055 203.08 151.055 202.792V202.248C151.055 201.96 150.959 201.704 150.767 201.48C150.586 201.256 150.335 201.069 150.015 200.92C149.706 200.76 149.348 200.643 148.943 200.568C148.548 200.483 148.138 200.44 147.711 200.44C147.284 200.44 146.868 200.483 146.463 200.568C146.068 200.643 145.711 200.76 145.391 200.92C145.082 201.069 144.831 201.256 144.639 201.48C144.458 201.704 144.367 201.96 144.367 202.248V202.792C144.367 203.08 144.458 203.336 144.639 203.56C144.831 203.784 145.082 203.971 145.391 204.12C145.711 204.28 146.068 204.397 146.463 204.472C146.868 204.557 147.284 204.6 147.711 204.6ZM140.527 198.216C141.37 197.864 142.09 197.549 142.687 197.272C143.295 196.984 143.802 196.717 144.207 196.472C144.623 196.227 144.948 195.992 145.183 195.768C145.428 195.533 145.615 195.293 145.743 195.048C145.871 194.803 145.951 194.541 145.983 194.264C146.026 193.976 146.047 193.651 146.047 193.288V192.472H141.023V191.48H147.151V193.384C147.151 194.056 147.082 194.627 146.943 195.096C146.804 195.565 146.516 196.003 146.079 196.408C145.642 196.813 145.018 197.224 144.207 197.64C143.396 198.056 142.324 198.552 140.991 199.128L140.527 198.216ZM150.959 192.808V190.552H152.063V199.16H150.959V196.856H147.807V195.88H150.959V193.784H148.047V192.808H150.959ZM156.402 193.912C156.402 193.432 156.54 193.005 156.818 192.632C157.095 192.259 157.463 191.944 157.922 191.688C158.38 191.432 158.892 191.24 159.458 191.112C160.034 190.984 160.62 190.92 161.218 190.92C161.804 190.92 162.386 190.984 162.962 191.112C163.538 191.24 164.055 191.432 164.514 191.688C164.972 191.944 165.34 192.259 165.618 192.632C165.895 193.005 166.034 193.432 166.034 193.912V194.648C166.034 195.128 165.895 195.555 165.618 195.928C165.34 196.301 164.972 196.616 164.514 196.872C164.055 197.128 163.538 197.32 162.962 197.448C162.386 197.576 161.804 197.64 161.218 197.64C160.62 197.64 160.034 197.576 159.458 197.448C158.892 197.32 158.38 197.128 157.922 196.872C157.463 196.616 157.095 196.301 156.818 195.928C156.54 195.555 156.402 195.128 156.402 194.648V193.912ZM164.914 194.008C164.914 193.688 164.812 193.4 164.61 193.144C164.418 192.888 164.151 192.675 163.81 192.504C163.468 192.323 163.074 192.184 162.626 192.088C162.178 191.992 161.708 191.944 161.218 191.944C160.716 191.944 160.242 191.992 159.794 192.088C159.356 192.184 158.967 192.323 158.626 192.504C158.284 192.675 158.012 192.888 157.81 193.144C157.618 193.4 157.522 193.688 157.522 194.008V194.552C157.522 194.872 157.618 195.16 157.81 195.416C158.012 195.672 158.284 195.891 158.626 196.072C158.967 196.243 159.356 196.376 159.794 196.472C160.242 196.568 160.716 196.616 161.218 196.616C161.708 196.616 162.178 196.568 162.626 196.472C163.074 196.376 163.468 196.243 163.81 196.072C164.151 195.891 164.418 195.672 164.61 195.416C164.812 195.16 164.914 194.872 164.914 194.552V194.008ZM167.938 199.176V200.152H161.794V205.176H160.658V200.152H154.498V199.176H167.938ZM173.876 191.88H180.532V192.904H175.012V200.248H176.9C177.721 200.248 178.527 200.221 179.316 200.168C180.116 200.104 180.969 199.997 181.876 199.848L182.02 200.856C181.167 201.005 180.276 201.112 179.348 201.176C178.431 201.24 177.519 201.272 176.612 201.272H173.876V191.88ZM184.404 195.976H186.836V196.984H184.404V205.176H183.268V190.552H184.404V195.976ZM194.343 196.488C193.745 196.488 193.169 196.435 192.615 196.328C192.06 196.211 191.569 196.045 191.143 195.832C190.716 195.619 190.375 195.352 190.119 195.032C189.873 194.712 189.751 194.344 189.751 193.928V193.384C189.751 192.968 189.873 192.6 190.119 192.28C190.375 191.96 190.716 191.693 191.143 191.48C191.569 191.267 192.06 191.107 192.615 191C193.169 190.883 193.745 190.824 194.343 190.824C194.94 190.824 195.516 190.883 196.071 191C196.625 191.107 197.111 191.267 197.527 191.48C197.953 191.693 198.295 191.96 198.551 192.28C198.807 192.6 198.935 192.968 198.935 193.384V193.928C198.935 194.344 198.807 194.712 198.551 195.032C198.295 195.352 197.953 195.619 197.527 195.832C197.111 196.045 196.625 196.211 196.071 196.328C195.516 196.435 194.94 196.488 194.343 196.488ZM194.343 191.784C193.905 191.784 193.479 191.827 193.063 191.912C192.647 191.987 192.273 192.099 191.943 192.248C191.612 192.387 191.345 192.563 191.143 192.776C190.94 192.979 190.839 193.208 190.839 193.464V193.848C190.839 194.104 190.94 194.339 191.143 194.552C191.345 194.755 191.612 194.931 191.943 195.08C192.273 195.219 192.647 195.331 193.063 195.416C193.479 195.491 193.905 195.528 194.343 195.528C194.769 195.528 195.191 195.491 195.607 195.416C196.033 195.331 196.412 195.219 196.743 195.08C197.073 194.931 197.34 194.755 197.543 194.552C197.745 194.339 197.847 194.104 197.847 193.848V193.464C197.847 193.208 197.745 192.979 197.543 192.776C197.34 192.563 197.073 192.387 196.743 192.248C196.412 192.099 196.033 191.987 195.607 191.912C195.191 191.827 194.769 191.784 194.343 191.784ZM201.063 197.672V198.648H187.623V197.672H201.063ZM189.591 200.2H199.095V205.144H189.591V200.2ZM190.679 204.136H198.007V201.208H190.679V204.136ZM213.849 196.12H216.169V197.128H213.849V205.176H212.713V190.552H213.849V196.12ZM211.689 201.416C211.028 201.48 210.393 201.539 209.785 201.592C209.177 201.635 208.516 201.672 207.801 201.704C207.097 201.736 206.297 201.757 205.401 201.768C204.516 201.779 203.46 201.784 202.233 201.784V200.792C202.82 200.792 203.364 200.792 203.865 200.792C204.377 200.792 204.862 200.787 205.321 200.776V196.12H206.457V200.76C206.969 200.749 207.449 200.733 207.897 200.712C208.356 200.691 208.793 200.669 209.209 200.648C209.625 200.627 210.025 200.6 210.409 200.568C210.804 200.525 211.198 200.483 211.593 200.44L211.689 201.416ZM210.265 191.96V193.736C210.265 194.12 210.254 194.536 210.233 194.984C210.222 195.432 210.201 195.88 210.169 196.328C210.137 196.765 210.094 197.181 210.041 197.576C209.998 197.96 209.945 198.28 209.881 198.536L208.745 198.392C208.82 198.072 208.878 197.725 208.921 197.352C208.974 196.968 209.017 196.584 209.049 196.2C209.081 195.816 209.102 195.432 209.113 195.048C209.124 194.664 209.129 194.301 209.129 193.96V192.968H202.969V191.96H210.265ZM223.356 198.984H232.236V199.96H224.46V201.608H232.092V202.568H224.46V204.248H232.508V205.224H223.356V198.984ZM221.164 197.352C222.006 197.021 222.726 196.728 223.324 196.472C223.932 196.216 224.438 195.976 224.844 195.752C225.249 195.528 225.569 195.309 225.804 195.096C226.049 194.872 226.236 194.643 226.364 194.408C226.492 194.173 226.572 193.917 226.604 193.64C226.646 193.363 226.668 193.043 226.668 192.68V192.2H221.644V191.208H227.772V192.744C227.772 193.203 227.74 193.608 227.676 193.96C227.622 194.312 227.51 194.637 227.34 194.936C227.18 195.235 226.956 195.512 226.668 195.768C226.38 196.024 226.006 196.285 225.548 196.552C225.089 196.808 224.534 197.075 223.884 197.352C223.233 197.629 222.465 197.939 221.58 198.28L221.164 197.352ZM232.204 193.656H234.444V194.648H232.204V198.04H231.084V190.552H232.204V193.656ZM247.374 205.176H246.238V190.552H247.374V205.176ZM243.342 197.336C243.342 198.68 243.022 199.725 242.382 200.472C241.753 201.219 240.867 201.592 239.726 201.592C238.585 201.592 237.694 201.219 237.054 200.472C236.425 199.725 236.11 198.68 236.11 197.336V195.816C236.11 194.472 236.425 193.432 237.054 192.696C237.694 191.949 238.585 191.576 239.726 191.576C240.867 191.576 241.753 191.949 242.382 192.696C243.022 193.443 243.342 194.488 243.342 195.832V197.336ZM242.238 196.024C242.238 195.416 242.174 194.899 242.046 194.472C241.929 194.045 241.758 193.699 241.534 193.432C241.321 193.155 241.059 192.952 240.75 192.824C240.441 192.696 240.099 192.632 239.726 192.632C239.353 192.632 239.011 192.696 238.702 192.824C238.393 192.952 238.126 193.155 237.902 193.432C237.689 193.699 237.518 194.045 237.39 194.472C237.273 194.899 237.214 195.416 237.214 196.024V197.144C237.214 197.752 237.273 198.275 237.39 198.712C237.518 199.139 237.689 199.491 237.902 199.768C238.126 200.035 238.393 200.232 238.702 200.36C239.011 200.488 239.353 200.552 239.726 200.552C240.099 200.552 240.441 200.488 240.75 200.36C241.059 200.232 241.321 200.035 241.534 199.768C241.758 199.491 241.929 199.139 242.046 198.712C242.174 198.275 242.238 197.752 242.238 197.144V196.024ZM254.097 201.08C254.811 200.6 255.425 200.173 255.937 199.8C256.449 199.416 256.875 199.064 257.217 198.744C257.569 198.413 257.846 198.104 258.049 197.816C258.251 197.517 258.406 197.213 258.513 196.904C258.619 196.584 258.689 196.243 258.721 195.88C258.753 195.507 258.769 195.085 258.769 194.616V193.016H254.368V192.008H259.873V194.28H262.417V190.856H263.537V204.456H262.417V199.08H259.873V198.088H262.417V195.272H259.857C259.835 195.965 259.75 196.568 259.601 197.08C259.462 197.592 259.206 198.093 258.833 198.584C258.459 199.064 257.942 199.571 257.281 200.104C256.63 200.627 255.777 201.245 254.721 201.96L254.097 201.08ZM266.417 205.176H265.297V190.552H266.417V205.176ZM275.715 197.88H281.875V198.84H268.435V197.88H274.595V195.752H275.715V197.88ZM280.403 196.376C279.838 196.163 279.262 195.928 278.675 195.672C278.099 195.416 277.608 195.192 277.203 195C276.52 194.68 276.024 194.413 275.715 194.2C275.406 193.987 275.224 193.805 275.171 193.656H275.155C275.102 193.816 274.92 194.003 274.611 194.216C274.302 194.429 273.806 194.696 273.123 195.016C272.718 195.208 272.227 195.432 271.651 195.688C271.075 195.944 270.504 196.179 269.939 196.392L269.475 195.48C270.2 195.203 270.851 194.941 271.427 194.696C272.003 194.451 272.483 194.232 272.867 194.04C273.23 193.869 273.523 193.709 273.747 193.56C273.971 193.4 274.147 193.24 274.275 193.08C274.403 192.909 274.488 192.728 274.531 192.536C274.574 192.333 274.595 192.093 274.595 191.816V190.744H275.731V191.816C275.731 192.093 275.752 192.333 275.795 192.536C275.838 192.728 275.918 192.909 276.035 193.08C276.163 193.24 276.339 193.4 276.563 193.56C276.787 193.709 277.08 193.869 277.443 194.04C277.827 194.232 278.307 194.451 278.883 194.696C279.47 194.941 280.12 195.203 280.835 195.48L280.403 196.376ZM270.147 200.6H279.939V205.288H278.819V201.576H270.147V200.6ZM288.902 194.904C288.902 194.381 289.03 193.912 289.286 193.496C289.542 193.069 289.888 192.707 290.326 192.408C290.763 192.099 291.27 191.864 291.846 191.704C292.432 191.533 293.056 191.448 293.718 191.448C294.368 191.448 294.982 191.533 295.558 191.704C296.144 191.864 296.656 192.099 297.094 192.408C297.542 192.707 297.894 193.069 298.15 193.496C298.406 193.912 298.534 194.381 298.534 194.904V195.688C298.534 196.168 298.422 196.611 298.198 197.016C297.974 197.421 297.67 197.773 297.286 198.072C296.902 198.36 296.454 198.6 295.942 198.792C295.43 198.973 294.88 199.085 294.294 199.128V202.136H300.438V203.112H286.998V202.136H293.142V199.128C292.544 199.085 291.99 198.973 291.478 198.792C290.966 198.6 290.518 198.36 290.134 198.072C289.75 197.773 289.446 197.421 289.222 197.016C289.008 196.611 288.902 196.168 288.902 195.688V194.904ZM293.718 192.488C293.195 192.488 292.71 192.552 292.262 192.68C291.814 192.797 291.424 192.968 291.094 193.192C290.763 193.405 290.502 193.661 290.31 193.96C290.118 194.259 290.022 194.589 290.022 194.952V195.64C290.022 196.003 290.118 196.333 290.31 196.632C290.502 196.931 290.763 197.192 291.094 197.416C291.424 197.629 291.814 197.8 292.262 197.928C292.71 198.045 293.195 198.104 293.718 198.104C294.23 198.104 294.71 198.045 295.158 197.928C295.616 197.8 296.011 197.629 296.342 197.416C296.672 197.192 296.934 196.931 297.126 196.632C297.318 196.333 297.414 196.003 297.414 195.64V194.952C297.414 194.589 297.318 194.259 297.126 193.96C296.934 193.661 296.672 193.405 296.342 193.192C296.011 192.968 295.616 192.797 295.158 192.68C294.71 192.552 294.23 192.488 293.718 192.488ZM304.68 204.024H313.352V205.016H303.544V201.048H304.68V204.024ZM303.528 191.112H312.92V194.68H304.648V196.36H313.24V197.32H303.576V193.752H311.848V192.072H303.528V191.112ZM315 198.92V199.896H301.56V198.92H315ZM322.283 197.928V196.408H322.635C322.453 196.28 322.267 196.147 322.075 196.008C321.893 195.859 321.696 195.693 321.483 195.512C321.237 195.299 321.008 195.096 320.795 194.904C320.592 194.712 320.464 194.557 320.411 194.44H320.395C320.341 194.547 320.213 194.696 320.011 194.888C319.808 195.08 319.547 195.299 319.227 195.544C318.981 195.725 318.741 195.901 318.507 196.072C318.283 196.243 318.037 196.419 317.771 196.6L317.147 195.832C317.573 195.544 317.92 195.304 318.187 195.112C318.453 194.909 318.693 194.717 318.907 194.536C319.12 194.355 319.285 194.189 319.403 194.04C319.531 193.891 319.627 193.741 319.691 193.592C319.755 193.443 319.797 193.288 319.819 193.128C319.84 192.957 319.851 192.765 319.851 192.552V192.088H317.691V191.144H327.995V192.088H325.835V192.552C325.835 192.765 325.845 192.957 325.867 193.128C325.888 193.288 325.931 193.443 325.995 193.592C326.059 193.741 326.149 193.891 326.267 194.04C326.395 194.189 326.565 194.355 326.779 194.536C326.992 194.717 327.227 194.904 327.483 195.096C327.739 195.277 328.069 195.507 328.475 195.784L327.851 196.552C327.605 196.381 327.376 196.221 327.163 196.072C326.949 195.912 326.715 195.736 326.459 195.544C326.139 195.299 325.877 195.08 325.675 194.888C325.472 194.696 325.344 194.547 325.291 194.44H325.275C325.221 194.557 325.088 194.712 324.875 194.904C324.672 195.096 324.448 195.299 324.203 195.512C323.989 195.693 323.787 195.859 323.595 196.008C323.403 196.147 323.216 196.28 323.035 196.408H323.403V197.928H329.563V198.888H316.123V197.928H322.283ZM317.835 200.6H327.627V205.288H326.507V201.576H317.835V200.6ZM321.691 194.376C321.84 194.525 322.016 194.685 322.219 194.856C322.421 195.027 322.629 195.187 322.843 195.336C323.056 195.187 323.264 195.027 323.467 194.856C323.669 194.685 323.845 194.525 323.995 194.376C324.165 194.216 324.299 194.072 324.395 193.944C324.501 193.816 324.581 193.688 324.635 193.56C324.688 193.432 324.72 193.288 324.731 193.128C324.752 192.957 324.763 192.749 324.763 192.504V192.088H320.923V192.504C320.923 192.749 320.928 192.957 320.939 193.128C320.96 193.288 320.997 193.432 321.051 193.56C321.104 193.688 321.179 193.816 321.275 193.944C321.381 194.072 321.52 194.216 321.691 194.376ZM332.573 194.952C332.573 194.429 332.701 193.955 332.957 193.528C333.213 193.091 333.56 192.723 333.997 192.424C334.434 192.125 334.946 191.896 335.533 191.736C336.12 191.565 336.744 191.48 337.405 191.48C338.066 191.48 338.69 191.565 339.277 191.736C339.864 191.896 340.376 192.125 340.813 192.424C341.25 192.723 341.597 193.091 341.853 193.528C342.109 193.955 342.237 194.429 342.237 194.952V195.736C342.237 196.269 342.109 196.749 341.853 197.176C341.597 197.603 341.25 197.965 340.813 198.264C340.376 198.563 339.864 198.797 339.277 198.968C338.69 199.128 338.066 199.208 337.405 199.208C336.744 199.208 336.12 199.128 335.533 198.968C334.946 198.797 334.434 198.563 333.997 198.264C333.56 197.965 333.213 197.603 332.957 197.176C332.701 196.749 332.573 196.269 332.573 195.736V194.952ZM337.405 192.52C336.882 192.52 336.392 192.584 335.933 192.712C335.485 192.829 335.096 193 334.765 193.224C334.434 193.437 334.173 193.699 333.981 194.008C333.789 194.307 333.693 194.637 333.693 195V195.688C333.693 196.051 333.789 196.387 333.981 196.696C334.173 196.995 334.434 197.256 334.765 197.48C335.096 197.693 335.485 197.864 335.933 197.992C336.392 198.109 336.882 198.168 337.405 198.168C337.928 198.168 338.413 198.109 338.861 197.992C339.309 197.864 339.698 197.693 340.029 197.48C340.37 197.256 340.637 196.995 340.829 196.696C341.021 196.387 341.117 196.051 341.117 195.688V195C341.117 194.637 341.021 194.307 340.829 194.008C340.637 193.699 340.37 193.437 340.029 193.224C339.698 193 339.309 192.829 338.861 192.712C338.413 192.584 337.928 192.52 337.405 192.52ZM344.125 202.136V203.112H330.685V202.136H344.125ZM356.656 191.704V196.04H348.336V198.408H356.992V199.384H352.528V202.136H358.688V203.112H345.248V202.136H351.408V199.384H347.232V195.08H355.552V192.68H347.184V191.704H356.656ZM375.266 198.856V205.16H366.498V198.856H367.602V200.92H374.162V198.856H375.266ZM364.226 197.576C365.069 197.256 365.789 196.968 366.386 196.712C366.994 196.445 367.501 196.2 367.906 195.976C368.311 195.752 368.631 195.533 368.866 195.32C369.111 195.096 369.298 194.867 369.426 194.632C369.554 194.397 369.634 194.141 369.666 193.864C369.709 193.587 369.73 193.267 369.73 192.904V192.424H364.706V191.432H370.834V192.968C370.834 193.427 370.802 193.832 370.738 194.184C370.685 194.536 370.573 194.861 370.402 195.16C370.242 195.459 370.018 195.736 369.73 195.992C369.442 196.248 369.069 196.509 368.61 196.776C368.151 197.032 367.597 197.299 366.946 197.576C366.295 197.853 365.527 198.163 364.642 198.504L364.226 197.576ZM374.162 204.152V201.912H367.602V204.152H374.162ZM375.266 193.864H377.506V194.856H375.266V197.992H374.146V190.552H375.266V193.864ZM390.469 205.176H389.333V190.552H390.469V205.176ZM380.773 200.136H382.869C383.637 200.136 384.421 200.109 385.221 200.056C386.031 199.992 386.874 199.885 387.749 199.736L387.893 200.744C387.029 200.893 386.149 201 385.253 201.064C384.357 201.128 383.525 201.16 382.757 201.16H379.637V191.752H380.773V200.136ZM393.751 191.88H400.407V192.904H394.887V200.248H396.775C397.596 200.248 398.402 200.221 399.191 200.168C399.991 200.104 400.844 199.997 401.751 199.848L401.895 200.856C401.042 201.005 400.151 201.112 399.223 201.176C398.306 201.24 397.394 201.272 396.487 201.272H393.751V191.88ZM404.279 195.976H406.711V196.984H404.279V205.176H403.143V190.552H404.279V195.976ZM408.09 202.28H409.706V203.88H408.09V202.28ZM412.011 202.28H413.627V203.88H412.011V202.28ZM415.933 202.28H417.549V203.88H415.933V202.28ZM435.311 197.848H434.191V190.552H435.311V197.848ZM435.311 198.712V202.44H427.471V204.264H435.695V205.224H426.367V201.496H434.207V199.688H426.287V198.712H435.311ZM423.967 197.368C424.81 197.048 425.53 196.76 426.127 196.504C426.735 196.237 427.242 195.992 427.647 195.768C428.063 195.533 428.394 195.309 428.639 195.096C428.884 194.883 429.071 194.659 429.199 194.424C429.327 194.179 429.407 193.917 429.439 193.64C429.482 193.363 429.503 193.043 429.503 192.68V192.2H424.447V191.208H430.607V192.744C430.607 193.203 430.575 193.608 430.511 193.96C430.458 194.312 430.346 194.637 430.175 194.936C430.015 195.235 429.786 195.517 429.487 195.784C429.199 196.04 428.826 196.301 428.367 196.568C427.908 196.824 427.348 197.091 426.687 197.368C426.036 197.645 425.268 197.955 424.383 198.296L423.967 197.368ZM449.89 205.176H448.754V190.552H449.89V205.176ZM445.858 197.336C445.858 198.68 445.538 199.725 444.898 200.472C444.268 201.219 443.383 201.592 442.242 201.592C441.1 201.592 440.21 201.219 439.57 200.472C438.94 199.725 438.626 198.68 438.626 197.336V195.816C438.626 194.472 438.94 193.432 439.57 192.696C440.21 191.949 441.1 191.576 442.242 191.576C443.383 191.576 444.268 191.949 444.898 192.696C445.538 193.443 445.858 194.488 445.858 195.832V197.336ZM444.754 196.024C444.754 195.416 444.69 194.899 444.562 194.472C444.444 194.045 444.274 193.699 444.05 193.432C443.836 193.155 443.575 192.952 443.266 192.824C442.956 192.696 442.615 192.632 442.242 192.632C441.868 192.632 441.527 192.696 441.218 192.824C440.908 192.952 440.642 193.155 440.418 193.432C440.204 193.699 440.034 194.045 439.906 194.472C439.788 194.899 439.73 195.416 439.73 196.024V197.144C439.73 197.752 439.788 198.275 439.906 198.712C440.034 199.139 440.204 199.491 440.418 199.768C440.642 200.035 440.908 200.232 441.218 200.36C441.527 200.488 441.868 200.552 442.242 200.552C442.615 200.552 442.956 200.488 443.266 200.36C443.575 200.232 443.836 200.035 444.05 199.768C444.274 199.491 444.444 199.139 444.562 198.712C444.69 198.275 444.754 197.752 444.754 197.144V196.024ZM463.684 196.136H466.116V197.144H463.684V205.176H462.548V190.552H463.684V196.136ZM452.82 200.904C453.641 200.435 454.345 200.013 454.932 199.64C455.519 199.267 456.009 198.92 456.404 198.6C456.809 198.269 457.135 197.96 457.38 197.672C457.625 197.384 457.812 197.096 457.94 196.808C458.068 196.509 458.153 196.195 458.196 195.864C458.239 195.533 458.26 195.171 458.26 194.776V192.968H452.98V191.944H459.364V194.792C459.364 195.517 459.295 196.152 459.156 196.696C459.028 197.229 458.756 197.752 458.34 198.264C457.924 198.765 457.321 199.293 456.532 199.848C455.753 200.403 454.713 201.059 453.412 201.816L452.82 200.904ZM482.999 197.848H481.879V190.552H482.999V197.848ZM482.999 198.712V202.44H475.159V204.264H483.383V205.224H474.055V201.496H481.895V199.688H473.975V198.712H482.999ZM471.655 197.368C472.497 197.048 473.217 196.76 473.815 196.504C474.423 196.237 474.929 195.992 475.335 195.768C475.751 195.533 476.081 195.309 476.327 195.096C476.572 194.883 476.759 194.659 476.887 194.424C477.015 194.179 477.095 193.917 477.127 193.64C477.169 193.363 477.191 193.043 477.191 192.68V192.2H472.135V191.208H478.295V192.744C478.295 193.203 478.263 193.608 478.199 193.96C478.145 194.312 478.033 194.637 477.863 194.936C477.703 195.235 477.473 195.517 477.175 195.784C476.887 196.04 476.513 196.301 476.055 196.568C475.596 196.824 475.036 197.091 474.375 197.368C473.724 197.645 472.956 197.955 472.071 198.296L471.655 197.368ZM497.641 205.176H496.521V196.824H493.241V197.32C493.241 198.664 492.921 199.709 492.281 200.456C491.652 201.192 490.772 201.56 489.641 201.56C488.51 201.56 487.625 201.192 486.985 200.456C486.356 199.709 486.041 198.664 486.041 197.32V195.816C486.041 194.483 486.356 193.448 486.985 192.712C487.625 191.965 488.51 191.592 489.641 191.592C490.772 191.592 491.652 191.96 492.281 192.696C492.91 193.432 493.23 194.467 493.241 195.8H496.521V190.552H497.641V205.176ZM492.137 196.024C492.137 195.416 492.078 194.899 491.961 194.472C491.844 194.045 491.673 193.699 491.449 193.432C491.236 193.155 490.974 192.957 490.665 192.84C490.356 192.712 490.014 192.648 489.641 192.648C489.268 192.648 488.926 192.712 488.617 192.84C488.308 192.957 488.041 193.155 487.817 193.432C487.604 193.699 487.438 194.045 487.321 194.472C487.204 194.899 487.145 195.416 487.145 196.024V197.128C487.145 197.736 487.204 198.259 487.321 198.696C487.438 199.123 487.604 199.475 487.817 199.752C488.041 200.019 488.308 200.216 488.617 200.344C488.926 200.461 489.268 200.52 489.641 200.52C490.014 200.52 490.356 200.461 490.665 200.344C490.974 200.216 491.236 200.019 491.449 199.752C491.673 199.475 491.844 199.123 491.961 198.696C492.078 198.259 492.137 197.736 492.137 197.128V196.024ZM512.156 198.648V202.408H504.316V204.264H512.54V205.224H503.212V201.464H511.052V199.624H503.132V198.648H512.156ZM504.876 194.92C504.833 195.112 504.444 195.512 503.708 196.12C503.558 196.237 503.382 196.371 503.18 196.52C502.988 196.669 502.78 196.829 502.556 197C502.332 197.171 502.097 197.341 501.852 197.512C501.617 197.672 501.388 197.827 501.164 197.976L500.524 197.144C501.505 196.525 502.38 195.896 503.148 195.256C503.382 195.064 503.569 194.888 503.708 194.728C503.857 194.557 503.969 194.387 504.044 194.216C504.129 194.035 504.188 193.848 504.22 193.656C504.252 193.453 504.268 193.213 504.268 192.936V192.168H500.94V191.192H508.588V192.168H505.404V192.84C505.404 193.149 505.414 193.405 505.436 193.608C505.457 193.811 505.505 193.992 505.58 194.152C505.665 194.312 505.788 194.472 505.948 194.632C506.108 194.781 506.326 194.957 506.604 195.16C506.945 195.416 507.313 195.677 507.708 195.944C508.102 196.211 508.502 196.467 508.908 196.712L508.284 197.512C507.953 197.299 507.612 197.075 507.26 196.84C506.908 196.595 506.577 196.36 506.268 196.136C505.884 195.859 505.569 195.613 505.324 195.4C505.078 195.187 504.934 195.027 504.892 194.92H504.876ZM512.156 197.784H511.036V190.552H512.156V197.784ZM526.414 199.48C527.011 199.48 527.577 199.544 528.11 199.672C528.654 199.8 529.129 199.981 529.534 200.216C529.939 200.451 530.259 200.739 530.494 201.08C530.729 201.411 530.846 201.784 530.846 202.2V202.824C530.846 203.24 530.729 203.619 530.494 203.96C530.259 204.301 529.939 204.589 529.534 204.824C529.129 205.059 528.654 205.24 528.11 205.368C527.577 205.496 527.011 205.56 526.414 205.56C525.817 205.56 525.246 205.496 524.702 205.368C524.169 205.24 523.699 205.059 523.294 204.824C522.889 204.589 522.569 204.301 522.334 203.96C522.099 203.619 521.982 203.24 521.982 202.824V202.2C521.982 201.773 522.099 201.389 522.334 201.048C522.569 200.707 522.889 200.424 523.294 200.2C523.699 199.965 524.169 199.789 524.702 199.672C525.246 199.544 525.817 199.48 526.414 199.48ZM526.414 204.6C526.841 204.6 527.251 204.557 527.646 204.472C528.051 204.397 528.409 204.28 528.718 204.12C529.038 203.971 529.289 203.784 529.47 203.56C529.662 203.336 529.758 203.08 529.758 202.792V202.248C529.758 201.96 529.662 201.704 529.47 201.48C529.289 201.256 529.038 201.069 528.718 200.92C528.409 200.76 528.051 200.643 527.646 200.568C527.251 200.483 526.841 200.44 526.414 200.44C525.987 200.44 525.571 200.483 525.166 200.568C524.771 200.643 524.414 200.76 524.094 200.92C523.785 201.069 523.534 201.256 523.342 201.48C523.161 201.704 523.07 201.96 523.07 202.248V202.792C523.07 203.08 523.161 203.336 523.342 203.56C523.534 203.784 523.785 203.971 524.094 204.12C524.414 204.28 524.771 204.397 525.166 204.472C525.571 204.557 525.987 204.6 526.414 204.6ZM519.23 198.216C520.073 197.864 520.793 197.549 521.39 197.272C521.998 196.984 522.505 196.717 522.91 196.472C523.326 196.227 523.651 195.992 523.886 195.768C524.131 195.533 524.318 195.293 524.446 195.048C524.574 194.803 524.654 194.541 524.686 194.264C524.729 193.976 524.75 193.651 524.75 193.288V192.472H519.726V191.48H525.854V193.384C525.854 194.056 525.785 194.627 525.646 195.096C525.507 195.565 525.219 196.003 524.782 196.408C524.345 196.813 523.721 197.224 522.91 197.64C522.099 198.056 521.027 198.552 519.694 199.128L519.23 198.216ZM529.662 192.808V190.552H530.766V199.16H529.662V196.856H526.51V195.88H529.662V193.784H526.75V192.808H529.662ZM535.105 193.912C535.105 193.432 535.243 193.005 535.521 192.632C535.798 192.259 536.166 191.944 536.625 191.688C537.083 191.432 537.595 191.24 538.161 191.112C538.737 190.984 539.323 190.92 539.921 190.92C540.507 190.92 541.089 190.984 541.665 191.112C542.241 191.24 542.758 191.432 543.217 191.688C543.675 191.944 544.043 192.259 544.321 192.632C544.598 193.005 544.737 193.432 544.737 193.912V194.648C544.737 195.128 544.598 195.555 544.321 195.928C544.043 196.301 543.675 196.616 543.217 196.872C542.758 197.128 542.241 197.32 541.665 197.448C541.089 197.576 540.507 197.64 539.921 197.64C539.323 197.64 538.737 197.576 538.161 197.448C537.595 197.32 537.083 197.128 536.625 196.872C536.166 196.616 535.798 196.301 535.521 195.928C535.243 195.555 535.105 195.128 535.105 194.648V193.912ZM543.617 194.008C543.617 193.688 543.515 193.4 543.313 193.144C543.121 192.888 542.854 192.675 542.513 192.504C542.171 192.323 541.777 192.184 541.329 192.088C540.881 191.992 540.411 191.944 539.921 191.944C539.419 191.944 538.945 191.992 538.497 192.088C538.059 192.184 537.67 192.323 537.329 192.504C536.987 192.675 536.715 192.888 536.513 193.144C536.321 193.4 536.225 193.688 536.225 194.008V194.552C536.225 194.872 536.321 195.16 536.513 195.416C536.715 195.672 536.987 195.891 537.329 196.072C537.67 196.243 538.059 196.376 538.497 196.472C538.945 196.568 539.419 196.616 539.921 196.616C540.411 196.616 540.881 196.568 541.329 196.472C541.777 196.376 542.171 196.243 542.513 196.072C542.854 195.891 543.121 195.672 543.313 195.416C543.515 195.16 543.617 194.872 543.617 194.552V194.008ZM546.641 199.176V200.152H540.497V205.176H539.361V200.152H533.201V199.176H546.641ZM552.579 191.88H559.235V192.904H553.715V200.248H555.603C556.424 200.248 557.23 200.221 558.019 200.168C558.819 200.104 559.672 199.997 560.579 199.848L560.723 200.856C559.87 201.005 558.979 201.112 558.051 201.176C557.134 201.24 556.222 201.272 555.315 201.272H552.579V191.88ZM563.107 195.976H565.539V196.984H563.107V205.176H561.971V190.552H563.107V195.976ZM573.046 196.488C572.448 196.488 571.872 196.435 571.318 196.328C570.763 196.211 570.272 196.045 569.846 195.832C569.419 195.619 569.078 195.352 568.822 195.032C568.576 194.712 568.454 194.344 568.454 193.928V193.384C568.454 192.968 568.576 192.6 568.822 192.28C569.078 191.96 569.419 191.693 569.846 191.48C570.272 191.267 570.763 191.107 571.318 191C571.872 190.883 572.448 190.824 573.046 190.824C573.643 190.824 574.219 190.883 574.774 191C575.328 191.107 575.814 191.267 576.23 191.48C576.656 191.693 576.998 191.96 577.254 192.28C577.51 192.6 577.638 192.968 577.638 193.384V193.928C577.638 194.344 577.51 194.712 577.254 195.032C576.998 195.352 576.656 195.619 576.23 195.832C575.814 196.045 575.328 196.211 574.774 196.328C574.219 196.435 573.643 196.488 573.046 196.488ZM573.046 191.784C572.608 191.784 572.182 191.827 571.766 191.912C571.35 191.987 570.976 192.099 570.646 192.248C570.315 192.387 570.048 192.563 569.846 192.776C569.643 192.979 569.542 193.208 569.542 193.464V193.848C569.542 194.104 569.643 194.339 569.846 194.552C570.048 194.755 570.315 194.931 570.646 195.08C570.976 195.219 571.35 195.331 571.766 195.416C572.182 195.491 572.608 195.528 573.046 195.528C573.472 195.528 573.894 195.491 574.31 195.416C574.736 195.331 575.115 195.219 575.446 195.08C575.776 194.931 576.043 194.755 576.246 194.552C576.448 194.339 576.55 194.104 576.55 193.848V193.464C576.55 193.208 576.448 192.979 576.246 192.776C576.043 192.563 575.776 192.387 575.446 192.248C575.115 192.099 574.736 191.987 574.31 191.912C573.894 191.827 573.472 191.784 573.046 191.784ZM579.766 197.672V198.648H566.326V197.672H579.766ZM568.294 200.2H577.798V205.144H568.294V200.2ZM569.382 204.136H576.71V201.208H569.382V204.136ZM592.552 196.12H594.872V197.128H592.552V205.176H591.416V190.552H592.552V196.12ZM590.392 201.416C589.731 201.48 589.096 201.539 588.488 201.592C587.88 201.635 587.219 201.672 586.504 201.704C585.8 201.736 585 201.757 584.104 201.768C583.219 201.779 582.163 201.784 580.936 201.784V200.792C581.523 200.792 582.067 200.792 582.568 200.792C583.08 200.792 583.565 200.787 584.024 200.776V196.12H585.16V200.76C585.672 200.749 586.152 200.733 586.6 200.712C587.059 200.691 587.496 200.669 587.912 200.648C588.328 200.627 588.728 200.6 589.112 200.568C589.507 200.525 589.901 200.483 590.296 200.44L590.392 201.416ZM588.968 191.96V193.736C588.968 194.12 588.957 194.536 588.936 194.984C588.925 195.432 588.904 195.88 588.872 196.328C588.84 196.765 588.797 197.181 588.744 197.576C588.701 197.96 588.648 198.28 588.584 198.536L587.448 198.392C587.523 198.072 587.581 197.725 587.624 197.352C587.677 196.968 587.72 196.584 587.752 196.2C587.784 195.816 587.805 195.432 587.816 195.048C587.827 194.664 587.832 194.301 587.832 193.96V192.968H581.672V191.96H588.968ZM602.059 198.984H610.939V199.96H603.163V201.608H610.795V202.568H603.163V204.248H611.211V205.224H602.059V198.984ZM599.867 197.352C600.709 197.021 601.429 196.728 602.027 196.472C602.635 196.216 603.141 195.976 603.547 195.752C603.952 195.528 604.272 195.309 604.507 195.096C604.752 194.872 604.939 194.643 605.067 194.408C605.195 194.173 605.275 193.917 605.307 193.64C605.349 193.363 605.371 193.043 605.371 192.68V192.2H600.347V191.208H606.475V192.744C606.475 193.203 606.443 193.608 606.379 193.96C606.325 194.312 606.213 194.637 606.043 194.936C605.883 195.235 605.659 195.512 605.371 195.768C605.083 196.024 604.709 196.285 604.251 196.552C603.792 196.808 603.237 197.075 602.587 197.352C601.936 197.629 601.168 197.939 600.283 198.28L599.867 197.352ZM610.907 193.656H613.147V194.648H610.907V198.04H609.787V190.552H610.907V193.656ZM626.077 205.176H624.941V190.552H626.077V205.176ZM622.045 197.336C622.045 198.68 621.725 199.725 621.085 200.472C620.456 201.219 619.57 201.592 618.429 201.592C617.288 201.592 616.397 201.219 615.757 200.472C615.128 199.725 614.813 198.68 614.813 197.336V195.816C614.813 194.472 615.128 193.432 615.757 192.696C616.397 191.949 617.288 191.576 618.429 191.576C619.57 191.576 620.456 191.949 621.085 192.696C621.725 193.443 622.045 194.488 622.045 195.832V197.336ZM620.941 196.024C620.941 195.416 620.877 194.899 620.749 194.472C620.632 194.045 620.461 193.699 620.237 193.432C620.024 193.155 619.762 192.952 619.453 192.824C619.144 192.696 618.802 192.632 618.429 192.632C618.056 192.632 617.714 192.696 617.405 192.824C617.096 192.952 616.829 193.155 616.605 193.432C616.392 193.699 616.221 194.045 616.093 194.472C615.976 194.899 615.917 195.416 615.917 196.024V197.144C615.917 197.752 615.976 198.275 616.093 198.712C616.221 199.139 616.392 199.491 616.605 199.768C616.829 200.035 617.096 200.232 617.405 200.36C617.714 200.488 618.056 200.552 618.429 200.552C618.802 200.552 619.144 200.488 619.453 200.36C619.762 200.232 620.024 200.035 620.237 199.768C620.461 199.491 620.632 199.139 620.749 198.712C620.877 198.275 620.941 197.752 620.941 197.144V196.024ZM632.8 201.08C633.514 200.6 634.128 200.173 634.64 199.8C635.152 199.416 635.578 199.064 635.92 198.744C636.272 198.413 636.549 198.104 636.752 197.816C636.954 197.517 637.109 197.213 637.216 196.904C637.322 196.584 637.392 196.243 637.424 195.88C637.456 195.507 637.472 195.085 637.472 194.616V193.016H633.072V192.008H638.576V194.28H641.12V190.856H642.24V204.456H641.12V199.08H638.576V198.088H641.12V195.272H638.56C638.538 195.965 638.453 196.568 638.304 197.08C638.165 197.592 637.909 198.093 637.536 198.584C637.162 199.064 636.645 199.571 635.984 200.104C635.333 200.627 634.48 201.245 633.424 201.96L632.8 201.08ZM645.12 205.176H644V190.552H645.12V205.176ZM654.418 197.88H660.578V198.84H647.138V197.88H653.298V195.752H654.418V197.88ZM659.106 196.376C658.541 196.163 657.965 195.928 657.378 195.672C656.802 195.416 656.311 195.192 655.906 195C655.223 194.68 654.727 194.413 654.418 194.2C654.109 193.987 653.927 193.805 653.874 193.656H653.858C653.805 193.816 653.623 194.003 653.314 194.216C653.005 194.429 652.509 194.696 651.826 195.016C651.421 195.208 650.93 195.432 650.354 195.688C649.778 195.944 649.207 196.179 648.642 196.392L648.178 195.48C648.903 195.203 649.554 194.941 650.13 194.696C650.706 194.451 651.186 194.232 651.57 194.04C651.933 193.869 652.226 193.709 652.45 193.56C652.674 193.4 652.85 193.24 652.978 193.08C653.106 192.909 653.191 192.728 653.234 192.536C653.277 192.333 653.298 192.093 653.298 191.816V190.744H654.434V191.816C654.434 192.093 654.455 192.333 654.498 192.536C654.541 192.728 654.621 192.909 654.738 193.08C654.866 193.24 655.042 193.4 655.266 193.56C655.49 193.709 655.783 193.869 656.146 194.04C656.53 194.232 657.01 194.451 657.586 194.696C658.173 194.941 658.823 195.203 659.538 195.48L659.106 196.376ZM648.85 200.6H658.642V205.288H657.522V201.576H648.85V200.6ZM667.605 194.904C667.605 194.381 667.733 193.912 667.989 193.496C668.245 193.069 668.591 192.707 669.029 192.408C669.466 192.099 669.973 191.864 670.549 191.704C671.135 191.533 671.759 191.448 672.421 191.448C673.071 191.448 673.685 191.533 674.261 191.704C674.847 191.864 675.359 192.099 675.797 192.408C676.245 192.707 676.597 193.069 676.853 193.496C677.109 193.912 677.237 194.381 677.237 194.904V195.688C677.237 196.168 677.125 196.611 676.901 197.016C676.677 197.421 676.373 197.773 675.989 198.072C675.605 198.36 675.157 198.6 674.645 198.792C674.133 198.973 673.583 199.085 672.997 199.128V202.136H679.141V203.112H665.701V202.136H671.845V199.128C671.247 199.085 670.693 198.973 670.181 198.792C669.669 198.6 669.221 198.36 668.837 198.072C668.453 197.773 668.149 197.421 667.925 197.016C667.711 196.611 667.605 196.168 667.605 195.688V194.904ZM672.421 192.488C671.898 192.488 671.413 192.552 670.965 192.68C670.517 192.797 670.127 192.968 669.797 193.192C669.466 193.405 669.205 193.661 669.013 193.96C668.821 194.259 668.725 194.589 668.725 194.952V195.64C668.725 196.003 668.821 196.333 669.013 196.632C669.205 196.931 669.466 197.192 669.797 197.416C670.127 197.629 670.517 197.8 670.965 197.928C671.413 198.045 671.898 198.104 672.421 198.104C672.933 198.104 673.413 198.045 673.861 197.928C674.319 197.8 674.714 197.629 675.045 197.416C675.375 197.192 675.637 196.931 675.829 196.632C676.021 196.333 676.117 196.003 676.117 195.64V194.952C676.117 194.589 676.021 194.259 675.829 193.96C675.637 193.661 675.375 193.405 675.045 193.192C674.714 192.968 674.319 192.797 673.861 192.68C673.413 192.552 672.933 192.488 672.421 192.488ZM683.383 204.024H692.055V205.016H682.247V201.048H683.383V204.024ZM682.231 191.112H691.623V194.68H683.351V196.36H691.943V197.32H682.279V193.752H690.551V192.072H682.231V191.112ZM693.703 198.92V199.896H680.263V198.92H693.703ZM700.986 197.928V196.408H701.338C701.156 196.28 700.97 196.147 700.778 196.008C700.596 195.859 700.399 195.693 700.186 195.512C699.94 195.299 699.711 195.096 699.498 194.904C699.295 194.712 699.167 194.557 699.114 194.44H699.098C699.044 194.547 698.916 194.696 698.714 194.888C698.511 195.08 698.25 195.299 697.93 195.544C697.684 195.725 697.444 195.901 697.21 196.072C696.986 196.243 696.74 196.419 696.474 196.6L695.85 195.832C696.276 195.544 696.623 195.304 696.89 195.112C697.156 194.909 697.396 194.717 697.61 194.536C697.823 194.355 697.988 194.189 698.106 194.04C698.234 193.891 698.33 193.741 698.394 193.592C698.458 193.443 698.5 193.288 698.522 193.128C698.543 192.957 698.554 192.765 698.554 192.552V192.088H696.394V191.144H706.698V192.088H704.538V192.552C704.538 192.765 704.548 192.957 704.57 193.128C704.591 193.288 704.634 193.443 704.698 193.592C704.762 193.741 704.852 193.891 704.97 194.04C705.098 194.189 705.268 194.355 705.482 194.536C705.695 194.717 705.93 194.904 706.186 195.096C706.442 195.277 706.772 195.507 707.178 195.784L706.554 196.552C706.308 196.381 706.079 196.221 705.866 196.072C705.652 195.912 705.418 195.736 705.162 195.544C704.842 195.299 704.58 195.08 704.378 194.888C704.175 194.696 704.047 194.547 703.994 194.44H703.978C703.924 194.557 703.791 194.712 703.578 194.904C703.375 195.096 703.151 195.299 702.906 195.512C702.692 195.693 702.49 195.859 702.298 196.008C702.106 196.147 701.919 196.28 701.738 196.408H702.106V197.928H708.266V198.888H694.826V197.928H700.986ZM696.538 200.6H706.33V205.288H705.21V201.576H696.538V200.6ZM700.394 194.376C700.543 194.525 700.719 194.685 700.922 194.856C701.124 195.027 701.332 195.187 701.546 195.336C701.759 195.187 701.967 195.027 702.17 194.856C702.372 194.685 702.548 194.525 702.698 194.376C702.868 194.216 703.002 194.072 703.098 193.944C703.204 193.816 703.284 193.688 703.338 193.56C703.391 193.432 703.423 193.288 703.434 193.128C703.455 192.957 703.466 192.749 703.466 192.504V192.088H699.626V192.504C699.626 192.749 699.631 192.957 699.642 193.128C699.663 193.288 699.7 193.432 699.754 193.56C699.807 193.688 699.882 193.816 699.978 193.944C700.084 194.072 700.223 194.216 700.394 194.376ZM711.276 194.952C711.276 194.429 711.404 193.955 711.66 193.528C711.916 193.091 712.263 192.723 712.7 192.424C713.137 192.125 713.649 191.896 714.236 191.736C714.823 191.565 715.447 191.48 716.108 191.48C716.769 191.48 717.393 191.565 717.98 191.736C718.567 191.896 719.079 192.125 719.516 192.424C719.953 192.723 720.3 193.091 720.556 193.528C720.812 193.955 720.94 194.429 720.94 194.952V195.736C720.94 196.269 720.812 196.749 720.556 197.176C720.3 197.603 719.953 197.965 719.516 198.264C719.079 198.563 718.567 198.797 717.98 198.968C717.393 199.128 716.769 199.208 716.108 199.208C715.447 199.208 714.823 199.128 714.236 198.968C713.649 198.797 713.137 198.563 712.7 198.264C712.263 197.965 711.916 197.603 711.66 197.176C711.404 196.749 711.276 196.269 711.276 195.736V194.952ZM716.108 192.52C715.585 192.52 715.095 192.584 714.636 192.712C714.188 192.829 713.799 193 713.468 193.224C713.137 193.437 712.876 193.699 712.684 194.008C712.492 194.307 712.396 194.637 712.396 195V195.688C712.396 196.051 712.492 196.387 712.684 196.696C712.876 196.995 713.137 197.256 713.468 197.48C713.799 197.693 714.188 197.864 714.636 197.992C715.095 198.109 715.585 198.168 716.108 198.168C716.631 198.168 717.116 198.109 717.564 197.992C718.012 197.864 718.401 197.693 718.732 197.48C719.073 197.256 719.34 196.995 719.532 196.696C719.724 196.387 719.82 196.051 719.82 195.688V195C719.82 194.637 719.724 194.307 719.532 194.008C719.34 193.699 719.073 193.437 718.732 193.224C718.401 193 718.012 192.829 717.564 192.712C717.116 192.584 716.631 192.52 716.108 192.52ZM722.828 202.136V203.112H709.388V202.136H722.828ZM735.359 191.704V196.04H727.039V198.408H735.695V199.384H731.231V202.136H737.391V203.112H723.951V202.136H730.111V199.384H725.935V195.08H734.255V192.68H725.887V191.704H735.359ZM753.969 198.856V205.16H745.201V198.856H746.305V200.92H752.865V198.856H753.969ZM742.929 197.576C743.772 197.256 744.492 196.968 745.089 196.712C745.697 196.445 746.204 196.2 746.609 195.976C747.014 195.752 747.334 195.533 747.569 195.32C747.814 195.096 748.001 194.867 748.129 194.632C748.257 194.397 748.337 194.141 748.369 193.864C748.412 193.587 748.433 193.267 748.433 192.904V192.424H743.409V191.432H749.537V192.968C749.537 193.427 749.505 193.832 749.441 194.184C749.388 194.536 749.276 194.861 749.105 195.16C748.945 195.459 748.721 195.736 748.433 195.992C748.145 196.248 747.772 196.509 747.313 196.776C746.854 197.032 746.3 197.299 745.649 197.576C744.998 197.853 744.23 198.163 743.345 198.504L742.929 197.576ZM752.865 204.152V201.912H746.305V204.152H752.865ZM753.969 193.864H756.209V194.856H753.969V197.992H752.849V190.552H753.969V193.864ZM769.172 205.176H768.036V190.552H769.172V205.176ZM759.476 200.136H761.572C762.34 200.136 763.124 200.109 763.924 200.056C764.734 199.992 765.577 199.885 766.452 199.736L766.596 200.744C765.732 200.893 764.852 201 763.956 201.064C763.06 201.128 762.228 201.16 761.46 201.16H758.34V191.752H759.476V200.136ZM772.454 191.88H779.11V192.904H773.59V200.248H775.478C776.299 200.248 777.105 200.221 777.894 200.168C778.694 200.104 779.547 199.997 780.454 199.848L780.598 200.856C779.745 201.005 778.854 201.112 777.926 201.176C777.009 201.24 776.097 201.272 775.19 201.272H772.454V191.88ZM782.982 195.976H785.414V196.984H782.982V205.176H781.846V190.552H782.982V195.976ZM786.793 202.28H788.409V203.88H786.793V202.28ZM790.715 202.28H792.331V203.88H790.715V202.28ZM794.636 202.28H796.252V203.88H794.636V202.28ZM814.014 197.848H812.894V190.552H814.014V197.848ZM814.014 198.712V202.44H806.174V204.264H814.398V205.224H805.07V201.496H812.91V199.688H804.99V198.712H814.014ZM802.67 197.368C803.513 197.048 804.233 196.76 804.83 196.504C805.438 196.237 805.945 195.992 806.35 195.768C806.766 195.533 807.097 195.309 807.342 195.096C807.588 194.883 807.774 194.659 807.902 194.424C808.03 194.179 808.11 193.917 808.142 193.64C808.185 193.363 808.206 193.043 808.206 192.68V192.2H803.15V191.208H809.31V192.744C809.31 193.203 809.278 193.608 809.214 193.96C809.161 194.312 809.049 194.637 808.878 194.936C808.718 195.235 808.489 195.517 808.19 195.784C807.902 196.04 807.529 196.301 807.07 196.568C806.612 196.824 806.052 197.091 805.39 197.368C804.74 197.645 803.972 197.955 803.086 198.296L802.67 197.368ZM828.593 205.176H827.457V190.552H828.593V205.176ZM824.561 197.336C824.561 198.68 824.241 199.725 823.601 200.472C822.971 201.219 822.086 201.592 820.945 201.592C819.803 201.592 818.913 201.219 818.273 200.472C817.643 199.725 817.329 198.68 817.329 197.336V195.816C817.329 194.472 817.643 193.432 818.273 192.696C818.913 191.949 819.803 191.576 820.945 191.576C822.086 191.576 822.971 191.949 823.601 192.696C824.241 193.443 824.561 194.488 824.561 195.832V197.336ZM823.457 196.024C823.457 195.416 823.393 194.899 823.265 194.472C823.147 194.045 822.977 193.699 822.753 193.432C822.539 193.155 822.278 192.952 821.969 192.824C821.659 192.696 821.318 192.632 820.945 192.632C820.571 192.632 820.23 192.696 819.921 192.824C819.611 192.952 819.345 193.155 819.121 193.432C818.907 193.699 818.737 194.045 818.609 194.472C818.491 194.899 818.433 195.416 818.433 196.024V197.144C818.433 197.752 818.491 198.275 818.609 198.712C818.737 199.139 818.907 199.491 819.121 199.768C819.345 200.035 819.611 200.232 819.921 200.36C820.23 200.488 820.571 200.552 820.945 200.552C821.318 200.552 821.659 200.488 821.969 200.36C822.278 200.232 822.539 200.035 822.753 199.768C822.977 199.491 823.147 199.139 823.265 198.712C823.393 198.275 823.457 197.752 823.457 197.144V196.024ZM842.387 196.136H844.819V197.144H842.387V205.176H841.251V190.552H842.387V196.136ZM831.523 200.904C832.345 200.435 833.049 200.013 833.635 199.64C834.222 199.267 834.713 198.92 835.107 198.6C835.513 198.269 835.838 197.96 836.083 197.672C836.329 197.384 836.515 197.096 836.643 196.808C836.771 196.509 836.857 196.195 836.899 195.864C836.942 195.533 836.963 195.171 836.963 194.776V192.968H831.683V191.944H838.067V194.792C838.067 195.517 837.998 196.152 837.859 196.696C837.731 197.229 837.459 197.752 837.043 198.264C836.627 198.765 836.025 199.293 835.235 199.848C834.457 200.403 833.417 201.059 832.115 201.816L831.523 200.904ZM861.702 197.848H860.582V190.552H861.702V197.848ZM861.702 198.712V202.44H853.862V204.264H862.086V205.224H852.758V201.496H860.598V199.688H852.678V198.712H861.702ZM850.358 197.368C851.2 197.048 851.92 196.76 852.518 196.504C853.126 196.237 853.632 195.992 854.038 195.768C854.454 195.533 854.784 195.309 855.03 195.096C855.275 194.883 855.462 194.659 855.59 194.424C855.718 194.179 855.798 193.917 855.83 193.64C855.872 193.363 855.894 193.043 855.894 192.68V192.2H850.838V191.208H856.998V192.744C856.998 193.203 856.966 193.608 856.902 193.96C856.848 194.312 856.736 194.637 856.566 194.936C856.406 195.235 856.176 195.517 855.878 195.784C855.59 196.04 855.216 196.301 854.758 196.568C854.299 196.824 853.739 197.091 853.078 197.368C852.427 197.645 851.659 197.955 850.774 198.296L850.358 197.368ZM876.344 205.176H875.224V196.824H871.944V197.32C871.944 198.664 871.624 199.709 870.984 200.456C870.355 201.192 869.475 201.56 868.344 201.56C867.214 201.56 866.328 201.192 865.688 200.456C865.059 199.709 864.744 198.664 864.744 197.32V195.816C864.744 194.483 865.059 193.448 865.688 192.712C866.328 191.965 867.214 191.592 868.344 191.592C869.475 191.592 870.355 191.96 870.984 192.696C871.614 193.432 871.934 194.467 871.944 195.8H875.224V190.552H876.344V205.176ZM870.84 196.024C870.84 195.416 870.782 194.899 870.664 194.472C870.547 194.045 870.376 193.699 870.152 193.432C869.939 193.155 869.678 192.957 869.368 192.84C869.059 192.712 868.718 192.648 868.344 192.648C867.971 192.648 867.63 192.712 867.32 192.84C867.011 192.957 866.744 193.155 866.52 193.432C866.307 193.699 866.142 194.045 866.024 194.472C865.907 194.899 865.848 195.416 865.848 196.024V197.128C865.848 197.736 865.907 198.259 866.024 198.696C866.142 199.123 866.307 199.475 866.52 199.752C866.744 200.019 867.011 200.216 867.32 200.344C867.63 200.461 867.971 200.52 868.344 200.52C868.718 200.52 869.059 200.461 869.368 200.344C869.678 200.216 869.939 200.019 870.152 199.752C870.376 199.475 870.547 199.123 870.664 198.696C870.782 198.259 870.84 197.736 870.84 197.128V196.024ZM890.859 198.648V202.408H883.019V204.264H891.243V205.224H881.915V201.464H889.755V199.624H881.835V198.648H890.859ZM883.579 194.92C883.536 195.112 883.147 195.512 882.411 196.12C882.261 196.237 882.085 196.371 881.883 196.52C881.691 196.669 881.483 196.829 881.259 197C881.035 197.171 880.8 197.341 880.555 197.512C880.32 197.672 880.091 197.827 879.867 197.976L879.227 197.144C880.208 196.525 881.083 195.896 881.851 195.256C882.085 195.064 882.272 194.888 882.411 194.728C882.56 194.557 882.672 194.387 882.747 194.216C882.832 194.035 882.891 193.848 882.923 193.656C882.955 193.453 882.971 193.213 882.971 192.936V192.168H879.643V191.192H887.291V192.168H884.107V192.84C884.107 193.149 884.117 193.405 884.139 193.608C884.16 193.811 884.208 193.992 884.283 194.152C884.368 194.312 884.491 194.472 884.651 194.632C884.811 194.781 885.029 194.957 885.307 195.16C885.648 195.416 886.016 195.677 886.411 195.944C886.805 196.211 887.205 196.467 887.611 196.712L886.987 197.512C886.656 197.299 886.315 197.075 885.963 196.84C885.611 196.595 885.28 196.36 884.971 196.136C884.587 195.859 884.272 195.613 884.027 195.4C883.781 195.187 883.637 195.027 883.595 194.92H883.579ZM890.859 197.784H889.739V190.552H890.859V197.784ZM905.117 199.48C905.715 199.48 906.28 199.544 906.813 199.672C907.357 199.8 907.832 199.981 908.237 200.216C908.643 200.451 908.963 200.739 909.197 201.08C909.432 201.411 909.549 201.784 909.549 202.2V202.824C909.549 203.24 909.432 203.619 909.197 203.96C908.963 204.301 908.643 204.589 908.237 204.824C907.832 205.059 907.357 205.24 906.813 205.368C906.28 205.496 905.715 205.56 905.117 205.56C904.52 205.56 903.949 205.496 903.405 205.368C902.872 205.24 902.403 205.059 901.997 204.824C901.592 204.589 901.272 204.301 901.037 203.96C900.803 203.619 900.685 203.24 900.685 202.824V202.2C900.685 201.773 900.803 201.389 901.037 201.048C901.272 200.707 901.592 200.424 901.997 200.2C902.403 199.965 902.872 199.789 903.405 199.672C903.949 199.544 904.52 199.48 905.117 199.48ZM905.117 204.6C905.544 204.6 905.955 204.557 906.349 204.472C906.755 204.397 907.112 204.28 907.421 204.12C907.741 203.971 907.992 203.784 908.173 203.56C908.365 203.336 908.461 203.08 908.461 202.792V202.248C908.461 201.96 908.365 201.704 908.173 201.48C907.992 201.256 907.741 201.069 907.421 200.92C907.112 200.76 906.755 200.643 906.349 200.568C905.955 200.483 905.544 200.44 905.117 200.44C904.691 200.44 904.275 200.483 903.869 200.568C903.475 200.643 903.117 200.76 902.797 200.92C902.488 201.069 902.237 201.256 902.045 201.48C901.864 201.704 901.773 201.96 901.773 202.248V202.792C901.773 203.08 901.864 203.336 902.045 203.56C902.237 203.784 902.488 203.971 902.797 204.12C903.117 204.28 903.475 204.397 903.869 204.472C904.275 204.557 904.691 204.6 905.117 204.6ZM897.933 198.216C898.776 197.864 899.496 197.549 900.093 197.272C900.701 196.984 901.208 196.717 901.613 196.472C902.029 196.227 902.355 195.992 902.589 195.768C902.835 195.533 903.021 195.293 903.149 195.048C903.277 194.803 903.357 194.541 903.389 194.264C903.432 193.976 903.453 193.651 903.453 193.288V192.472H898.429V191.48H904.557V193.384C904.557 194.056 904.488 194.627 904.349 195.096C904.211 195.565 903.923 196.003 903.485 196.408C903.048 196.813 902.424 197.224 901.613 197.64C900.803 198.056 899.731 198.552 898.397 199.128L897.933 198.216ZM908.365 192.808V190.552H909.469V199.16H908.365V196.856H905.213V195.88H908.365V193.784H905.453V192.808H908.365ZM913.808 193.912C913.808 193.432 913.946 193.005 914.224 192.632C914.501 192.259 914.869 191.944 915.328 191.688C915.786 191.432 916.298 191.24 916.864 191.112C917.44 190.984 918.026 190.92 918.624 190.92C919.21 190.92 919.792 190.984 920.368 191.112C920.944 191.24 921.461 191.432 921.92 191.688C922.378 191.944 922.746 192.259 923.024 192.632C923.301 193.005 923.44 193.432 923.44 193.912V194.648C923.44 195.128 923.301 195.555 923.024 195.928C922.746 196.301 922.378 196.616 921.92 196.872C921.461 197.128 920.944 197.32 920.368 197.448C919.792 197.576 919.21 197.64 918.624 197.64C918.026 197.64 917.44 197.576 916.864 197.448C916.298 197.32 915.786 197.128 915.328 196.872C914.869 196.616 914.501 196.301 914.224 195.928C913.946 195.555 913.808 195.128 913.808 194.648V193.912ZM922.32 194.008C922.32 193.688 922.218 193.4 922.016 193.144C921.824 192.888 921.557 192.675 921.216 192.504C920.874 192.323 920.48 192.184 920.032 192.088C919.584 191.992 919.114 191.944 918.624 191.944C918.122 191.944 917.648 191.992 917.2 192.088C916.762 192.184 916.373 192.323 916.032 192.504C915.69 192.675 915.418 192.888 915.216 193.144C915.024 193.4 914.928 193.688 914.928 194.008V194.552C914.928 194.872 915.024 195.16 915.216 195.416C915.418 195.672 915.69 195.891 916.032 196.072C916.373 196.243 916.762 196.376 917.2 196.472C917.648 196.568 918.122 196.616 918.624 196.616C919.114 196.616 919.584 196.568 920.032 196.472C920.48 196.376 920.874 196.243 921.216 196.072C921.557 195.891 921.824 195.672 922.016 195.416C922.218 195.16 922.32 194.872 922.32 194.552V194.008ZM925.344 199.176V200.152H919.2V205.176H918.064V200.152H911.904V199.176H925.344ZM931.282 191.88H937.938V192.904H932.418V200.248H934.306C935.128 200.248 935.933 200.221 936.722 200.168C937.522 200.104 938.376 199.997 939.282 199.848L939.426 200.856C938.573 201.005 937.682 201.112 936.754 201.176C935.837 201.24 934.925 201.272 934.018 201.272H931.282V191.88ZM941.81 195.976H944.242V196.984H941.81V205.176H940.674V190.552H941.81V195.976ZM951.749 196.488C951.151 196.488 950.575 196.435 950.021 196.328C949.466 196.211 948.975 196.045 948.549 195.832C948.122 195.619 947.781 195.352 947.525 195.032C947.279 194.712 947.157 194.344 947.157 193.928V193.384C947.157 192.968 947.279 192.6 947.525 192.28C947.781 191.96 948.122 191.693 948.549 191.48C948.975 191.267 949.466 191.107 950.021 191C950.575 190.883 951.151 190.824 951.749 190.824C952.346 190.824 952.922 190.883 953.477 191C954.031 191.107 954.517 191.267 954.933 191.48C955.359 191.693 955.701 191.96 955.957 192.28C956.213 192.6 956.341 192.968 956.341 193.384V193.928C956.341 194.344 956.213 194.712 955.957 195.032C955.701 195.352 955.359 195.619 954.933 195.832C954.517 196.045 954.031 196.211 953.477 196.328C952.922 196.435 952.346 196.488 951.749 196.488ZM951.749 191.784C951.311 191.784 950.885 191.827 950.469 191.912C950.053 191.987 949.679 192.099 949.349 192.248C949.018 192.387 948.751 192.563 948.549 192.776C948.346 192.979 948.245 193.208 948.245 193.464V193.848C948.245 194.104 948.346 194.339 948.549 194.552C948.751 194.755 949.018 194.931 949.349 195.08C949.679 195.219 950.053 195.331 950.469 195.416C950.885 195.491 951.311 195.528 951.749 195.528C952.175 195.528 952.597 195.491 953.013 195.416C953.439 195.331 953.818 195.219 954.149 195.08C954.479 194.931 954.746 194.755 954.949 194.552C955.151 194.339 955.253 194.104 955.253 193.848V193.464C955.253 193.208 955.151 192.979 954.949 192.776C954.746 192.563 954.479 192.387 954.149 192.248C953.818 192.099 953.439 191.987 953.013 191.912C952.597 191.827 952.175 191.784 951.749 191.784ZM958.469 197.672V198.648H945.029V197.672H958.469ZM946.997 200.2H956.501V205.144H946.997V200.2ZM948.085 204.136H955.413V201.208H948.085V204.136ZM971.255 196.12H973.575V197.128H971.255V205.176H970.119V190.552H971.255V196.12ZM969.095 201.416C968.434 201.48 967.799 201.539 967.191 201.592C966.583 201.635 965.922 201.672 965.207 201.704C964.503 201.736 963.703 201.757 962.807 201.768C961.922 201.779 960.866 201.784 959.639 201.784V200.792C960.226 200.792 960.77 200.792 961.271 200.792C961.783 200.792 962.269 200.787 962.727 200.776V196.12H963.863V200.76C964.375 200.749 964.855 200.733 965.303 200.712C965.762 200.691 966.199 200.669 966.615 200.648C967.031 200.627 967.431 200.6 967.815 200.568C968.21 200.525 968.605 200.483 968.999 200.44L969.095 201.416ZM967.671 191.96V193.736C967.671 194.12 967.661 194.536 967.639 194.984C967.629 195.432 967.607 195.88 967.575 196.328C967.543 196.765 967.501 197.181 967.447 197.576C967.405 197.96 967.351 198.28 967.287 198.536L966.151 198.392C966.226 198.072 966.285 197.725 966.327 197.352C966.381 196.968 966.423 196.584 966.455 196.2C966.487 195.816 966.509 195.432 966.519 195.048C966.53 194.664 966.535 194.301 966.535 193.96V192.968H960.375V191.96H967.671ZM980.762 198.984H989.642V199.96H981.866V201.608H989.498V202.568H981.866V204.248H989.914V205.224H980.762V198.984ZM978.57 197.352C979.412 197.021 980.132 196.728 980.73 196.472C981.338 196.216 981.844 195.976 982.25 195.752C982.655 195.528 982.975 195.309 983.21 195.096C983.455 194.872 983.642 194.643 983.77 194.408C983.898 194.173 983.978 193.917 984.01 193.64C984.052 193.363 984.074 193.043 984.074 192.68V192.2H979.05V191.208H985.178V192.744C985.178 193.203 985.146 193.608 985.082 193.96C985.028 194.312 984.916 194.637 984.746 194.936C984.586 195.235 984.362 195.512 984.074 195.768C983.786 196.024 983.412 196.285 982.954 196.552C982.495 196.808 981.94 197.075 981.29 197.352C980.639 197.629 979.871 197.939 978.986 198.28L978.57 197.352ZM989.61 193.656H991.85V194.648H989.61V198.04H988.49V190.552H989.61V193.656Z" fill="#0F172A"/>
</svg>
